<svg width="450" height="640" viewBox="0 0 450 640" fill="none" xmlns="http://www.w3.org/2000/svg">
<path d="M0.0933838 54.2696C0.25 41.5044 3.3222 29.3783 9.40576 18.1734C15.5415 6.87732 25.6633 -0.160969 39.2839 0.0631277C53.2961 0.303824 66.9688 3.61547 79.9801 8.64519C96.5336 15.0361 111.155 24.5062 124.819 35.4289C132.635 41.6704 141.242 46.6088 151.877 46.8412C158.022 46.974 164.219 47.2728 170.293 46.642C180.024 45.6377 189.797 44.2599 197.247 37.1552C199.04 35.4455 200.868 33.7689 203.418 31.3868C204.245 30.2913 204.61 34.1839 204.367 36.6075C203.923 41.1143 203.226 45.5879 202.669 50.0781C201.973 55.6308 200.137 60.7601 196.09 64.91C190.685 70.446 185.437 76.1895 179.519 81.1777C171.877 87.6019 162.217 90.4487 152.33 89.9341C139.528 89.2618 127.622 84.8712 116.777 78.1566C113.514 76.1314 110.189 74.0814 106.629 72.6123C99.5363 69.6741 92.2691 67.3668 84.3057 69.4749C78.9532 70.8859 75.498 78.5135 79.31 81.7504C86.4728 87.8508 93.7051 94.0675 101.738 98.9893C113.818 106.376 126.647 112.676 139.127 119.473C153.331 127.217 167.996 133.899 183.662 138.663C201.599 144.107 219.397 150 237.143 155.984C249.084 160.01 260.972 164.235 272.643 168.941C283.305 173.232 293.662 178.212 304.053 183.075C306.803 184.353 308.788 184.337 311.216 182.395C316.943 177.821 322.73 173.298 328.84 169.214C332.46 166.799 336.838 165.446 340.676 163.288C364.34 150.058 390.232 142.622 416.716 136.903C424.427 135.227 432.426 134.239 440.328 133.982C458.692 133.384 476.69 134.787 494.68 139.775C515.837 145.643 536.507 152.183 555.855 162.284C558.788 163.82 561.677 165.48 564.741 166.758C572.957 170.21 580.624 174.319 586.42 181.108C589.571 184.777 591.99 184.984 596.447 182.785C601.39 180.353 606.342 177.863 611.486 175.871C621.138 172.119 631.172 169.19 640.624 165.031C660.702 156.209 681.225 148.589 702.426 142.696C720.842 137.584 738.831 131.541 755.524 122.395C767.996 115.572 780.198 108.26 792.956 101.969C802.956 97.0471 811.094 90.0918 819.379 83.178C821.651 81.2774 823.157 79.1028 822.043 76.1812C820.842 73.0522 819.466 70.2634 815.306 69.3172C807.099 67.4249 799.614 69.5994 792.661 72.9858C781.764 78.2894 771.721 85.0123 759.588 88.1081C748.666 90.9052 738.239 90.5317 728.318 85.7593C716.429 80.049 707.717 70.8444 700.598 60.2621C699.562 58.7349 698.814 56.884 698.483 55.0996C697.36 48.9494 696.333 42.766 695.585 36.5577C695.341 34.5408 695.959 30.7975 696.751 31.7852C698.231 32.914 699.24 33.4452 699.91 34.2337C704.636 39.9191 710.772 43.264 718.17 44.6915C739.205 48.7668 759.493 49.5387 776.847 34.2337C786.821 25.4275 798.439 18.7212 810.424 12.7204C824.836 5.52444 840.467 2.1381 856.516 0.262325C868.509 -1.14035 878.126 3.15068 885.942 11.492C894.236 20.3397 897.143 31.6109 898.77 42.6747C900.459 54.1866 900.067 66.0554 899.588 77.7416C899.127 88.88 898.3 100.234 893.261 110.534C889.214 118.801 885.271 127.508 879.231 134.372C870.485 144.315 859.841 152.706 850.102 161.869C845.646 166.069 841.956 171.157 837.03 174.742C823.043 184.918 809.101 195.284 794.218 204.157C774.732 215.768 754.436 226.16 734.349 236.85C703.061 253.491 673.827 273.145 644.027 291.97C641.399 293.638 640.511 295.696 640.598 298.676C640.816 306.528 640.885 314.388 640.676 322.239C640.563 326.472 640.25 330.805 639.188 334.888C636.264 346.242 632.878 357.497 629.789 368.818C629.423 370.154 629.58 371.723 629.902 373.101C630.937 377.491 632.739 381.799 633.191 386.231C634.01 394.265 635.228 402.499 634.227 410.417C632.173 426.585 628.161 442.28 618.353 456.265C615.211 460.747 612.46 465.329 607.813 468.358C602.382 471.886 600.363 477.463 597.204 482.435C595.385 485.307 592.861 487.772 590.65 490.411C590.267 490.162 589.884 489.913 589.501 489.656C589.588 488.809 589.667 487.963 589.797 486.676C584.088 487.763 582.025 491.142 581.399 495.765C579.849 507.301 577.317 518.266 568.875 527.619C561.686 535.579 557.282 545.331 553.574 555.308C550.694 563.068 547.03 570.58 543.679 578.182C540.502 585.411 537.36 592.649 533.992 599.795C533.374 601.123 531.982 602.567 530.598 603.04C521.094 606.319 513.183 611.988 505.698 618.171C493.252 628.455 479.527 635.891 463.035 638.746C450.363 640.938 438.152 640.332 426.09 636.331C415.742 632.895 406.29 628.015 397.63 621.458C389.484 615.283 380.729 609.78 372.025 604.302C369.562 602.75 366.29 602.476 364.923 599.347C362.948 594.807 360.589 590.416 358.683 585.851C353.061 572.414 348.1 558.702 341.877 545.539C338.178 537.729 333.296 530.192 327.613 523.561C322.783 517.933 320.859 511.816 319.606 505.118C318.927 501.45 318.379 497.757 317.656 494.088C316.742 489.382 313.923 487.166 308.335 486.751C308.831 487.946 309.284 489.058 310.093 491.042C306.812 488.261 304.332 486.195 301.895 484.07C301.703 483.904 301.938 483.348 301.773 483.066C299.467 478.899 298.065 473.695 294.567 470.815C288.779 466.051 283.905 461.146 280.093 454.697C275.663 447.21 271.729 439.699 269.397 431.391C264.593 414.31 262.121 397.079 267.717 379.849C269.858 373.25 269.214 367.515 266.89 361.34C259.971 342.964 256.908 324.015 258.205 304.469C258.353 302.212 258.065 299.921 258.257 297.672C258.535 294.509 257.204 292.426 254.393 290.783C250.232 288.351 246.246 285.637 242.182 283.039C208.927 261.725 175.463 240.734 139.789 223.18C131.86 219.271 123.966 215.229 116.447 210.664C106.203 204.464 96.1072 197.99 86.3509 191.101C75.7156 183.598 65.0803 175.987 55.2978 167.505C44.5928 158.217 35.2543 147.485 24.6103 138.107C12.7043 127.64 7.15167 114.203 3.47021 99.9355C-0.393982 84.9957 -0.0894165 69.5994 0.0933838 54.2696ZM168.518 60.0546C167.326 57.7057 166.377 55.2573 165.324 52.8586C164.993 52.9416 164.662 53.0163 164.323 53.091V65.2918C169.597 65.5408 170.615 64.1962 168.518 60.0546ZM176.664 48.6672C176.412 48.9328 176.159 49.1901 175.907 49.4474C176.273 50.8666 176.655 52.2693 177.125 54.0455C178.579 53.6222 179.823 53.257 181.068 52.8835C181.199 52.4602 181.346 52.0369 181.477 51.6136C179.876 50.6342 178.266 49.6549 176.664 48.6672ZM189.536 64.6444C193.888 61.4241 192.286 58.3033 190.964 54.585C186.055 57.7306 189.789 60.9593 189.536 64.6444ZM183.383 71.774C186.742 69.0184 187.134 65.8396 184.976 60.5692C179.641 61.4573 179.823 64.827 183.383 71.774ZM180.998 60.3119C181.956 58.793 182.913 57.2741 183.879 55.7387C182.704 55.4233 180.781 54.5518 180.502 54.9004C179.519 56.0955 179.11 57.7057 178.492 59.1665C179.327 59.5483 180.154 59.9301 180.998 60.3119ZM175.193 77.8827C179.85 77.1606 179.867 74.015 179.162 70.8195C178.579 68.1221 178.727 64.3871 173.427 65.2586C174.053 69.6741 174.61 73.6747 175.193 77.8827ZM175.689 59.0586C175.246 58.2203 173.801 57.8551 172.809 57.2824C172.521 59.0752 172.234 60.868 171.895 63.0093C176.281 62.8931 176.838 61.2415 175.689 59.0586ZM163.148 81.0284C170.067 81.1031 171.103 80.1984 171.129 74.4051C171.138 73.0771 171.146 71.7325 170.99 70.4211C170.781 68.6947 171.251 66.155 168.109 66.7775C166.438 67.1095 162.783 66.3127 165.098 70.4792C165.829 71.7823 163.705 74.4051 163.209 76.4966C162.887 77.8661 163.148 79.3518 163.148 81.0284ZM130.38 54.4688C130.563 50.7255 130.746 46.9823 130.946 42.9569C127.317 44.6749 126.699 51.099 130.38 54.4688ZM142.574 48.9079C142.417 51.0907 142.095 53.1242 142.199 55.1411C142.226 55.7802 143.296 56.7927 143.984 56.8591C144.602 56.9255 145.655 56.0789 145.977 55.4067C147.5 52.2693 146.508 50.0864 142.574 48.9079ZM151.86 52.1448C151.172 52.3772 150.494 52.6179 149.806 52.8503C150.189 54.502 150.581 56.1453 150.964 57.797C151.834 57.1247 153.435 56.4358 153.427 55.7802C153.392 54.5684 152.426 53.3566 151.86 52.1448ZM158.344 60.7601C157.665 62.0383 156.682 63.2666 156.429 64.6195C156.29 65.3997 157.334 66.3625 157.848 67.2506C158.797 66.2214 159.745 65.1839 161.077 63.7314C159.876 62.42 159.11 61.5901 158.344 60.7601ZM153.792 82.3563C155.037 81.5014 156.977 80.879 157.378 79.7502C158.379 76.9116 158.77 73.849 159.171 70.8444C159.258 70.2053 158.335 69.4417 157.883 68.7363C157.186 69.2342 156.055 69.5994 155.872 70.2302C154.784 73.8905 153.914 77.6005 152.965 81.294C153.235 81.6508 153.514 82.0077 153.792 82.3563ZM152.226 67.4498C152.739 66.6364 152.556 65.4163 152.565 65.3167C152.565 63.5903 152.843 62.6607 152.495 62.0549C152.06 61.2664 151.129 60.7186 150.407 60.0629C149.884 60.7103 149.101 61.2913 148.892 62.0217C148.457 63.5239 148.109 65.1258 148.17 66.6613C148.205 67.5909 149.075 68.4873 149.571 69.4002C150.494 68.7612 151.703 68.2964 152.226 67.4498ZM147.343 80.464C148.588 77.9906 149.902 75.5504 150.99 73.019C151.138 72.6621 150.25 71.4171 149.797 71.3922C149.023 71.3507 147.674 71.7906 147.508 72.3135C146.708 74.7454 146.229 77.2851 145.646 79.7834C146.212 80.0075 146.786 80.2316 147.343 80.464ZM144.279 65.7649C146.769 61.2913 146.273 60.0463 141.564 59.5732C141.155 61.4739 140.563 63.1421 140.511 64.827C140.485 65.6404 141.416 66.5036 141.912 67.3502C142.722 66.8356 143.879 66.4953 144.279 65.7649ZM138.222 77.7499C139.85 77.3764 141.59 75.9571 142.452 74.5379C143.244 73.2514 143.078 71.3341 143 69.7156C142.974 69.2342 141.808 68.8026 140.981 68.2217C140.389 68.6283 139.719 68.8856 139.406 69.3587C138.213 71.1349 137.038 72.9277 136.038 74.8035C134.889 76.9614 136.534 78.14 138.222 77.7499ZM136.238 63.3911C137.073 58.4693 137.796 53.5226 138.335 48.5593C138.414 47.8704 137.36 47.0653 136.83 46.31L135.594 46.7416C134.567 51.8377 133.479 56.9338 132.617 62.0632C132.504 62.7686 133.348 63.8974 134.079 64.3539C134.454 64.5946 136.159 63.8559 136.238 63.3911ZM128.266 74.6375C130.076 72.9443 131.895 71.2428 134.201 69.1014C129.615 67.4249 127.996 68.8773 128.266 74.6375ZM128.144 61.6316C128.962 59.9882 129.789 58.3531 130.607 56.7097C129.945 56.3943 129.284 56.0872 128.614 55.7719C127.813 57.3571 126.986 58.9258 126.316 60.5692C126.281 60.6771 127.508 61.2664 128.144 61.6316ZM120.137 37.1386C120.65 41.8115 121.155 46.4096 121.703 51.4227C126.69 46.725 125.568 38.6077 120.137 37.1386ZM121.225 59.7392C121.764 57.8468 122.295 55.971 122.835 54.087C122.26 53.9459 121.695 53.7882 121.112 53.6471C120.589 55.5395 120.058 57.4235 119.536 59.3076C120.093 59.457 120.659 59.5981 121.225 59.7392ZM709.266 54.6846C707.665 58.0211 706.664 60.8846 709.832 63.5571C710.702 60.6522 713.557 57.631 709.266 54.6846ZM723.766 78.3143C724.105 78.0404 724.436 77.7665 724.775 77.5092C725.324 74.1229 725.907 70.7531 726.359 67.3585C726.464 66.6779 726.246 65.4412 725.872 65.3167C725.063 65.0594 723.383 65.1258 723.244 65.4661C722.191 68.2383 720.955 71.0685 720.763 73.9403C720.659 75.3429 722.695 76.8618 723.766 78.3143ZM716.481 71.6744C720.528 65.574 720.241 62.7769 715.324 60.4198C712.756 65.3499 713.122 68.9022 716.481 71.6744ZM716.081 55.7802C717.108 57.2658 718.117 58.7681 719.144 60.2538C721.338 57.7389 722.704 55.7635 719.545 54.8921C718.561 54.6182 717.247 55.4565 716.081 55.7802ZM718.518 52.6594C719.963 53.174 721.172 53.6056 722.748 54.1617C723.374 52.3274 723.801 51.099 724.262 49.771C720.955 48.0032 719.971 50.2939 718.518 52.6594ZM727.038 57.2741C726.124 57.8219 724.767 58.1622 724.375 58.9424C723.278 61.1502 724.027 62.7188 728.265 63.2998C727.778 60.8514 727.413 59.0586 727.038 57.2741ZM11.9123 31.4034C15.5502 33.2045 18.2308 31.7354 24.4884 24.4481C20.9114 19.9413 17.5085 21.8669 11.9123 31.4034ZM57.813 35.9767C56.6381 33.0219 52.9392 33.3871 49.2926 36.5245C49.8235 38.3421 50.1716 39.7697 50.659 41.1475C51.8339 44.5255 52.713 48.0447 54.3753 51.1903C56.1333 54.5186 58.1525 54.4107 63.3744 51.6302C61.5293 46.3681 59.8583 41.106 57.813 35.9767ZM67.7521 49.713C68.2917 50.4101 69.3884 50.7172 70.2239 51.2152C70.424 50.4018 70.92 49.5304 70.7721 48.7751C70.0845 45.3804 69.1882 42.0273 68.4223 38.6492C67.3692 34.0428 65.8113 33.163 59.632 34.2835C60.8505 37.2963 61.8339 40.2843 63.2613 43.0648C64.471 45.4219 66.1159 47.5882 67.7521 49.713ZM53.1829 31.1876C51.364 28.3657 49.6407 25.5188 47.7173 22.8131C47.256 22.174 46.0289 21.51 45.3065 21.6345C41.1725 22.3732 37.0907 23.336 32.7391 24.2821C39.2926 31.1793 47.0646 33.827 53.1829 31.1876ZM29.1534 26.2077C26.116 24.5145 20.981 28.5566 20.3631 32.9555C27.8827 33.9017 35.0019 34.8064 42.1212 35.7028C42.1995 35.3376 42.2604 34.9558 42.33 34.5906C37.961 31.7769 33.7051 28.7558 29.1534 26.2077ZM41.2769 59.5815C41.3379 64.4037 43.1481 64.91 46.6381 62.9263C45.1237 61.9885 43.6181 61.0506 41.2769 59.5815ZM46.8644 47.4554C47.9784 51.0077 49.0924 54.5684 50.5284 59.1499C53.4614 55.0996 52.5215 52.1116 48.0654 47.14C47.6651 47.2396 47.2648 47.3558 46.8644 47.4554ZM47.4824 83.2029C44.8192 85.3194 42.5302 87.8343 40.102 90.208C37.3605 92.8806 39.3622 99.8276 43.1829 100.608C43.8705 100.749 45.0977 100.126 45.5502 99.5122C47.6129 96.6902 50.0324 93.9347 51.2944 90.7807C52.4693 87.8342 54.0707 86.2158 57.169 85.4024C59.2404 84.8463 61.1464 83.7092 63.3657 82.7298C59.2143 76.5796 52.3909 79.3103 47.4824 83.2029ZM45.8896 78.7957C46.934 77.808 48.1786 76.8452 49.5276 76.3638C52.7303 75.2267 53.0959 74.0067 50.5807 71.6246C47.7695 68.9852 45.35 67.7237 41.7643 70.6618C38.8749 73.019 35.3413 74.6458 32.2256 76.7622C31.4075 77.3183 31.0158 78.4471 30.3805 79.4016C31.7556 82.1903 32.9567 84.8712 34.4885 87.3612C34.6886 87.6932 37.0037 87.3944 37.726 86.7553C40.572 84.2321 43.1133 81.4101 45.8896 78.7957ZM38.2395 66.6862C39.3275 65.6902 39.1708 63.4409 39.5798 61.7727C37.9871 61.7561 36.1159 61.2249 34.8365 61.8391C29.8061 64.2377 27.0123 67.4 27.0558 71.0934C27.961 71.3009 29.4841 72.1475 30.3021 71.7408C33.1133 70.3298 35.9593 68.7528 38.2395 66.6862ZM27.7695 60.6107C29.9193 59.1665 31.4858 57.9464 33.2264 57.0168C34.5929 56.2864 36.2117 55.9959 37.6564 55.3569C39.3013 54.6348 41.9819 53.9957 42.2343 52.8918C42.8087 50.4433 38.605 47.0902 36.2552 47.4969C29.5798 48.6672 26.4118 53.0744 27.7695 60.6107ZM29.5624 42.9735V44.982H41.1812C41.3726 42.0439 37.0037 37.6864 33.1133 37.6366C28.9532 37.5868 24.7234 37.869 20.6416 38.616C19.1882 38.8733 17.6303 40.7159 16.9601 42.185C16.0463 44.1852 15.9244 46.5175 15.4719 48.7004C15.1586 48.6838 14.8539 48.6672 14.5319 48.6506C14.9149 45.5464 15.3065 42.4423 15.7156 39.114C12.713 41.6538 11.7817 46.1772 12.5128 54.6763C19.2752 52.0037 26.5163 50.5595 29.5624 42.9735ZM20.6677 10.2969C25.7156 8.1887 30.7722 6.08053 35.82 3.97237C29.7365 3.54907 24.8801 6.19673 20.6677 10.2969ZM24.0446 19.2275C29.7713 23.8091 31.9297 23.8838 41.7469 19.8002C36.9079 14.2808 34.3231 14.1978 24.0446 19.2275ZM44.175 14.4053C46.4466 19.0366 48.6572 19.7753 56.9079 18.4805C54.7843 12.7868 51.6337 11.8489 44.175 14.4053ZM51.364 21.5681C53.4527 28.1499 57.8392 31.8267 63.5137 31.7437C60.8505 21.2361 58.1873 19.0034 51.364 21.5681ZM64.6364 13.4508C63.7486 13.0856 62.1559 14.2891 60.8853 14.7788C61.7295 16.1483 62.2865 18.2896 63.5049 18.7295C65.9157 19.5844 68.692 19.5014 71.3204 19.8002C71.6076 19.103 71.9036 18.4058 72.1821 17.7004C69.6843 16.2479 67.2996 14.5464 64.6364 13.4508ZM66.9514 22.3566C63.5572 22.7633 65.0977 25.2864 65.6285 27.0128C66.8905 31.1959 69.7451 33.6942 75.0889 34.242C74.6886 30.9137 74.4971 28.0337 73.9488 25.2034C73.1655 21.1282 69.5798 22.0412 66.9514 22.3566ZM70.9026 35.5119C72.1907 41.0728 73.3483 46.0278 74.4971 50.9911C74.9497 50.9496 75.4109 50.9164 75.8723 50.8832C75.9418 49.8706 76.1072 48.8332 76.0637 47.8206C75.9592 44.9073 75.6547 41.9941 75.6547 39.0808C75.6459 36.2423 74.1141 35.4538 70.9026 35.5119ZM114.123 49.2648C114.149 49.2814 114.175 49.298 114.192 49.3063C111.973 50.5512 110.842 55.5561 112.635 56.8591C113.139 57.216 114.924 56.9421 115.211 56.4607C116.734 53.9127 117.36 51.3065 114.192 49.3063C114.175 49.2897 114.158 49.2648 114.14 49.2482C114.941 48.1858 116.281 47.1732 116.412 46.0361C116.751 43.1644 116.568 40.2262 116.525 37.3129C116.473 34.8479 115.019 33.8353 111.825 33.91C112.948 39.1223 109.458 44.6002 114.14 49.2399C114.132 49.2565 114.123 49.2565 114.123 49.2648ZM107.587 55.0996C109.11 48.551 108.501 47.5384 102.469 46.2353C99.3013 52.8005 100.372 54.751 107.587 55.0996ZM108.605 45.4966C107.83 40.5914 107.387 35.902 106.22 31.3868C105.872 30.0672 103.453 29.2455 101.817 28.0752C98.6398 37.0142 101.233 44.3014 108.605 45.4966ZM96.4292 52.6926C96.9688 50.5678 97.7695 48.4597 97.9436 46.31C98.0306 45.1563 97.0037 43.9279 96.4814 42.7245C95.9332 42.8407 95.4022 42.9569 94.8539 43.0648C94.6277 45.7622 94.2708 48.468 94.2795 51.1654C94.2795 51.68 95.6807 52.1863 96.4292 52.6926ZM98.3875 40.9483C96.7077 35.7526 98.135 30.8307 95.907 26.4733C93.2177 31.171 94.4014 39.3547 98.3875 40.9483ZM94.9149 23.5767C95.4545 23.1866 95.9766 22.7965 96.5162 22.3981C95.4109 21.0535 94.2969 19.7089 93.1829 18.3643C92.6955 18.7461 92.2082 19.1445 91.7121 19.5263C92.7826 20.8792 93.8444 22.2238 94.9149 23.5767ZM86.7686 49.2897C86.8557 50.1528 88.1176 50.9164 88.84 51.7215C89.5363 51.0741 90.7373 50.4931 90.8505 49.7627C91.2159 47.4222 91.538 44.9737 91.1551 42.683C90.981 41.6206 89.162 40.7906 88.0828 39.861C87.6129 40.1266 87.1429 40.4005 86.6642 40.6578C86.6642 43.5378 86.5075 46.4345 86.7686 49.2897ZM86.8383 35.0388C87.1603 36.1925 88.9183 36.9644 90.4849 38.3089C90.4849 33.9349 90.659 30.5237 90.363 27.1539C90.276 26.2741 88.7095 25.5105 87.8217 24.6971C87.169 25.5271 85.9505 26.3737 85.9592 27.2037C85.968 29.8265 86.1246 32.5239 86.8383 35.0388ZM89.2751 20.6883C87.6215 18.6797 86.3857 17.1858 85.1586 15.6835C84.7669 16.0072 84.3666 16.3226 83.9662 16.6546C84.2621 18.9785 84.1925 21.6179 89.2751 20.6883ZM80.0845 49.5802C80.102 50.1113 80.6329 50.8998 81.1029 51.0492C81.5554 51.1986 82.7651 50.6923 82.7651 50.4516C82.8435 46.4843 82.7913 42.5087 82.6956 38.5247C82.6956 38.4002 81.9819 38.284 80.0411 37.6698C80.0411 42.0854 79.9976 45.8369 80.0845 49.5802ZM82.3126 34.1424C83.6616 29.4364 82.1124 24.5643 79.0054 23.7344C76.9688 29.6024 78.1699 33.3705 82.3126 34.1424ZM80.6851 19.8251C78.9183 18.1153 77.1516 16.3973 75.3848 14.6792C75.0541 14.9946 74.7408 15.2934 74.4101 15.6005C75.7069 17.7336 75.585 21.1614 80.6851 19.8251ZM72.8261 88.5646C69.2404 87.9172 65.1498 89.7847 60.0759 90.7807C64.1403 94.2749 67.2038 97.1301 70.5372 99.6367C71.3727 100.267 73.3047 100.259 74.3927 99.8027C77.256 98.5909 79.9105 96.9807 83.6529 94.997C79.4753 92.3743 76.4031 89.2037 72.8261 88.5646ZM90.3109 101.737C91.6685 102.218 93.0175 102.699 94.3839 103.181C94.5667 102.882 94.7408 102.583 94.9323 102.276C93.0698 101.338 90.4414 99.147 89.4667 99.6865C85.6111 101.811 79.6233 101.23 78.3875 106.932C77.4214 107.555 75.7765 108.036 75.6024 108.816C74.5493 113.522 71.7991 116.876 67.7347 119.573C64.9758 121.407 66.1507 123.308 68.1873 125.084C70.3457 126.96 72.7042 129.931 75.2891 126.528C78.5093 122.279 81.1202 117.498 83.209 112.643C83.6703 111.564 80.894 109.206 79.6059 107.439C85.0628 110.908 90.2325 110.601 95.6721 106.003C93.6877 104.633 91.8948 103.397 90.1107 102.152C90.1803 102.002 90.2499 101.869 90.3109 101.737ZM90.4066 144.995C86.0811 141.559 81.7121 138.173 77.1081 134.596C74.8278 139.376 72.9218 143.012 71.3901 146.797C70.9723 147.817 71.1812 149.818 71.9471 150.432C75.8809 153.561 80.0933 156.391 85.0541 159.935C87.1864 155.063 89.1098 150.756 90.9375 146.415C91.0854 146.05 90.7634 145.278 90.4066 144.995ZM93.679 141.825C96.7077 136.38 99.5015 130.811 102.391 125.2C101.033 123.607 100.389 122.42 99.3709 121.731C96.8905 120.046 94.3318 118.378 91.5989 117.124C90.5807 116.651 88.6224 116.892 87.7086 117.564C82.565 121.357 81.129 127.217 79.1185 132.678C78.8922 133.309 79.7365 134.67 80.4762 135.202C83.7051 137.492 87.0211 139.7 90.4414 141.709C91.2769 142.207 93.444 142.248 93.679 141.825ZM92.2604 114.95C100.494 123.167 104.514 123.358 113.427 116.112C108.579 109.406 98.4222 108.733 92.2604 114.95ZM109.266 126.163C108.518 126.727 107.5 127.159 107.056 127.898C104.036 133.11 101.129 138.38 98.196 143.643C98.0654 143.875 97.7869 144.273 97.8478 144.331C100.137 146.39 102.269 148.681 104.854 150.316C105.837 150.938 108.884 150.531 109.258 149.793C112.078 144.224 114.662 138.53 116.795 132.695C117.16 131.674 115.045 129.823 114.088 128.346C120.259 132.214 123.905 127.798 127.996 124.711C124.532 117.631 115.542 120.76 109.266 126.163ZM128.039 157.761C131.956 152.125 135.315 146.141 139.467 139.401C134.837 137.716 131.051 136.081 127.091 135.052C126.029 134.77 123.87 136.015 123.174 137.119C121.12 140.389 119.51 143.933 117.787 147.394C117.204 148.598 116.751 149.876 116.342 151.137C115.742 152.963 111.608 154.258 115.742 156.798C123.749 161.72 125.019 162.118 128.039 157.761ZM122.478 182.254C124.34 183.955 125.829 185.881 127.796 187.043C135.481 191.558 135.533 191.466 138.196 183.25C138.483 182.361 138.796 181.482 139.092 180.594C141.956 172.012 141.756 171.812 133.4 167.936C130.389 166.534 128.361 167.413 127.239 169.829C125.498 173.53 124.28 177.465 122.478 182.254ZM113.287 158.059C112.521 157.91 111.085 158.275 110.816 158.798C108.44 163.396 106.264 168.086 104.053 172.709C104.915 173.945 105.254 174.95 105.959 175.331C108.84 176.917 111.782 179.423 114.784 179.523C119.284 179.689 117.482 174.659 119.223 172.294C119.763 171.563 119.85 170.551 120.172 169.679C122.53 163.097 120.424 159.462 113.287 158.059ZM128.065 133.284C130.589 134.421 132.739 135.343 134.845 136.339C140.964 139.26 141.094 139.235 144.619 133.318C138.527 127.632 134.741 127.557 128.065 133.284ZM153.07 136.853C150.468 135.816 146.212 138.978 145.385 142.19C143.575 143.925 141.329 145.419 140.032 147.452C137.23 151.843 134.976 156.557 132.365 161.072C131.103 163.239 131.294 164.525 133.775 165.795C142.617 170.343 143.583 170.127 148.283 161.587C149.51 159.363 150.807 157.171 152.034 154.939C153.253 152.723 154.427 150.49 155.803 147.909C153.253 146.373 150.842 144.921 148.422 143.468C150.172 143.8 151.991 143.925 153.627 144.514C157.186 145.792 159.554 145.228 162.617 141.576C159.371 139.949 156.333 138.156 153.07 136.853ZM168.24 168.467C169.789 165.795 171.608 163.239 173.009 160.5C173.618 159.304 174.062 156.79 173.592 156.532C169.763 154.457 165.716 152.739 161.669 151.038C161.338 150.905 160.38 151.577 160.067 152.067C156.499 157.769 153 163.496 149.51 169.231C149.232 169.679 149.101 170.219 148.796 170.941C149.031 171.381 149.223 172.012 149.632 172.476C149.98 172.858 150.563 173.032 151.051 173.29C162.112 179.058 162.104 179.05 168.24 168.467ZM165.315 206.863C167.874 208.099 170.241 209.693 173.653 211.693C175.942 205.203 178.004 199.484 179.971 193.724C180.859 191.143 179.85 189.342 177.125 188.42C176.072 188.072 175.063 187.607 174.036 187.192C167.978 184.735 167.508 184.901 165.768 190.861C164.689 194.554 163.836 198.322 162.87 202.049C162.286 204.315 163.087 205.775 165.315 206.863ZM158.509 180.444C155.742 178.685 152.661 177.274 149.528 176.195C148.483 175.838 146.055 176.568 145.707 177.382C143.888 181.648 142.521 186.096 140.903 190.728C141.999 192.139 142.643 193.483 143.731 194.247C145.733 195.666 148.161 196.563 150.128 198.015C153.322 200.38 155.341 199.824 156.577 196.231C157.926 192.321 159.519 188.462 160.485 184.461C160.781 183.283 159.658 181.166 158.509 180.444ZM163.131 148.299C170.354 154.756 175.881 155.345 181.599 150.183C177.43 148.349 173.818 146.157 169.893 145.327C168.039 144.929 165.576 147.137 163.131 148.299ZM172.774 142.539L172.173 143.883C175.768 145.9 179.249 148.158 183.54 148.606C183.749 148.141 183.957 147.668 184.166 147.203C180.372 145.651 176.568 144.091 172.774 142.539ZM183.209 157.844C184.645 158.591 186.064 159.321 187.474 160.051C187.378 160.234 187.186 160.624 187.169 160.624C182.469 158.798 180.041 161.205 178.135 164.865C176.151 168.667 173.792 172.294 171.982 176.153C170.215 179.963 171.164 181.714 175.098 183.299C184.062 186.91 184.062 186.91 186.96 177.896C188.387 173.481 189.693 169.04 191.294 164.674C191.686 163.612 192.922 162.765 193.905 161.969C195.637 160.591 197.465 159.329 199.519 157.827C189.249 152.797 187.352 151.478 183.209 157.844ZM267.743 219.927C267.204 219.811 266.655 219.727 266.116 219.578C257.952 217.262 257.822 217.213 254.227 224.865C250.877 231.995 247.883 239.282 244.662 246.47C243.435 249.234 243.766 251.217 246.925 252.553C249.336 253.566 251.773 254.72 253.836 256.264C257.334 258.895 259.745 257.982 261.225 254.479C265.246 244.976 269.058 235.381 272.948 225.82C272.574 225.703 272.191 225.596 271.825 225.479C272.208 222.45 270.833 220.607 267.743 219.927ZM251.138 218.325C252.556 215.154 251.625 213.353 248.3 212.258C246.212 211.569 244.236 210.54 242.217 209.668C241.773 209.319 241.32 208.971 240.877 208.631C240.572 209.519 240.32 210.423 239.98 211.295C236.264 220.574 232.408 229.795 228.962 239.157C228.588 240.178 230.093 242.486 231.364 243.316C238.074 247.706 238.535 247.507 241.616 240.394C244.802 233.04 247.874 225.645 251.138 218.325ZM200.024 165.488C194.514 170.933 193.374 178.203 190.929 184.91C189.963 187.549 191.172 189.516 194.149 190.404C196.76 191.184 199.31 192.172 201.886 193.068C202.034 192.853 202.191 192.628 202.339 192.413C201.93 191.84 201.521 191.267 201.129 190.719C206.629 189.79 212.548 175.971 209.971 169.887C210.868 168.899 211.843 167.978 212.643 166.915C217.317 160.749 216.908 159.578 209.362 157.229C207.578 156.673 206.438 156.026 205.585 158.889C204.845 161.404 202.104 163.446 200.024 165.488ZM200.903 154.341C197.36 153.187 193.818 152.034 190.276 150.88C190.146 151.237 189.997 151.594 189.867 151.942C193.34 153.312 196.821 154.673 200.302 156.043C200.494 155.478 200.702 154.914 200.903 154.341ZM210.285 191.209C210.929 195.226 214.454 195.226 216.89 196.197C217.848 196.571 220.337 195.674 220.676 194.836C222.852 189.408 224.68 183.864 226.42 178.303C226.621 177.655 225.768 176.278 225.028 175.896C223.34 175.008 221.46 174.311 219.571 173.987C218.622 173.821 216.838 174.394 216.551 175.058C214.279 180.461 212.269 185.972 210.285 191.209ZM225.533 174.311C230.232 174.568 229.997 169.605 229.562 167.613C229.092 165.446 225.541 163.886 223.174 161.927C219.371 164.193 218.701 167.505 218.657 170.136C218.596 173.912 222.957 174.178 225.533 174.311ZM225.959 196.753C226.734 200.173 231.686 204.315 234.915 203.634C235.75 203.46 236.777 202.364 236.995 201.509C238.535 195.591 240.102 189.674 241.225 183.681C241.843 180.336 238.257 180.801 236.333 179.946C234.575 179.166 232.434 178.353 231.468 180.975C229.545 186.204 227.787 191.483 225.959 196.753ZM234.854 207.601C233.566 206.722 232.356 205.609 230.92 204.962C224.863 202.265 224.506 202.323 222.295 208.274C219.397 216.034 216.873 223.927 214.071 231.712C213.026 234.617 215.463 235.099 217.117 236.062C219.188 237.257 221.503 237.763 222.878 235.248C224.662 231.97 226.238 228.55 227.691 225.114C230.05 219.578 232.252 213.984 234.854 207.601ZM217.952 203.941C219.058 201.352 218.022 200.098 215.472 199.127C207.717 196.164 207.143 196.272 204.436 203.817C202.461 209.328 200.842 214.955 199.023 220.516C197.639 224.724 199.528 227.28 203.531 228.824C204.541 229.206 205.524 229.679 206.899 230.277C210.711 221.172 214.297 212.548 217.952 203.941ZM201.172 197.924C201.538 197.011 200.981 195.766 200.842 194.67C200.137 195.044 199.406 195.774 198.744 195.716C196.986 195.583 195.211 195.193 193.496 194.737C189.571 193.682 187.308 194.537 185.994 198.148C184.767 201.526 183.862 205.004 182.931 208.473C182.487 210.133 182.313 211.859 182.008 213.552C181.286 218.308 185.933 218.499 188.483 220.142C191.19 221.885 192.199 218.881 192.896 217.37C195.863 210.979 198.553 204.456 201.172 197.924ZM189.562 141.792C189.319 142.132 189.075 142.489 188.831 142.829C189.71 143.551 190.467 144.622 191.486 144.946C205.246 149.253 219.031 153.445 232.826 157.653C233.009 157.711 233.287 157.487 233.514 157.395C233.644 157.047 233.775 156.698 233.897 156.35C219.118 151.503 204.34 146.647 189.562 141.792ZM236.56 168.932C232.4 176.842 233.035 178.162 241.468 179.523C245.742 172.85 244.706 170.476 236.56 168.932ZM260.633 176.137C260.772 175.722 260.911 175.315 261.042 174.9C257.709 173.58 254.375 172.252 251.051 170.933C250.842 171.298 250.633 171.671 250.424 172.036C251.756 173.024 253.096 174.003 254.427 174.991C249.031 173.862 249.432 173.945 248.326 179.232C247.047 185.325 244.967 191.259 243.261 197.268C243.009 198.164 242.861 199.086 242.687 200.007C241.434 206.838 243.348 209.602 250.589 210.789C251.651 210.963 253.714 209.884 254.079 208.938C256.795 202.04 260.737 195.409 259.641 187.549C259.44 186.096 260.232 184.436 260.833 182.967C262.034 179.996 261.303 177.813 258.309 176.361C259.075 176.278 259.858 176.203 260.633 176.137ZM269.493 178.552C269.353 182.644 265.019 186.893 270.093 190.736C270.102 190.736 270.102 190.744 270.111 190.744C270.128 190.753 270.137 190.769 270.154 190.778C267.552 190.537 266.394 191.956 265.803 194.139C264.201 200.048 262.608 205.95 260.894 211.834C260.302 213.884 260.816 215.104 262.957 215.843C266.081 216.914 269.153 218.134 272.826 219.512C275.698 211.668 278.231 204.19 278.118 196.148C278.109 195.21 276.682 194.064 275.637 193.425C273.914 192.355 271.973 191.624 270.119 190.744C272.643 191.3 275.176 191.865 277.709 192.429C279.319 184.478 277.708 180.61 269.493 178.552ZM275.855 233.605C272.565 241.764 269.902 250.163 266.838 258.413C265.324 262.472 266.455 265.302 270.485 267.203C271.695 267.775 272.774 268.597 274.419 269.618C276.943 265.775 279.789 262.422 281.503 258.604C285.002 250.835 287.9 242.818 291.033 234.891C292.078 232.269 290.92 230.783 288.457 229.48C279.649 224.84 279.458 224.691 275.855 233.605ZM327.534 251.798C326.246 251.151 324.889 250.586 323.67 249.839C320.781 248.038 318.422 248.254 315.881 250.686C306.873 259.285 300.816 269.402 297.526 281.122C296.699 284.06 297.117 286.243 299.797 288.085C302.034 289.612 304.062 291.438 306.638 293.497C313.052 278.266 321.329 264.796 337.352 256.272C332.095 252.545 327.195 249.059 322.286 245.582C321.973 245.98 321.677 246.37 321.364 246.777C323.54 248.229 325.707 249.69 327.883 251.134C327.778 251.35 327.665 251.574 327.534 251.798ZM318.414 231.256C318.474 232.501 320.363 233.68 321.407 234.891C320.563 234.51 319.797 234.435 318.918 234.302C318.187 239.714 320.05 243.407 325.08 246.104C329.615 248.536 333.653 251.79 338.683 255.193C338.1 249.732 337.857 245.175 333.749 241.847C336.386 238.9 333.574 236.228 332.226 234.692C328.709 230.7 328.431 226.085 327.813 221.454C327.004 215.519 324.567 212.922 318.283 212.274C318.274 218.64 318.109 224.956 318.414 231.256ZM336.159 216.283C332.295 205.875 327.474 200.563 321.521 201.061C324.21 208.456 327.752 214.457 336.159 216.283ZM333.226 217.619C332.826 217.852 332.417 218.084 332.025 218.317C333.078 221.927 333.749 225.695 335.28 229.115C338.083 235.34 341.521 241.299 344.41 247.499C345.272 249.375 345.829 251.79 345.385 253.715C343.879 260.339 348.396 262.588 353.731 265.053C355.08 262.248 356.438 259.915 357.343 257.426C358.396 254.512 358.266 252.014 356.09 248.985C353.609 245.523 352.13 241.008 351.59 236.792C350.772 230.376 348.753 225.272 342.208 222.408C339.101 221.047 336.212 219.23 333.226 217.619ZM351.077 265.543C348.988 263.825 346.56 262.48 344.514 261.144C329.162 271.062 315.263 281.736 314.192 299.879C304.279 301.813 295.211 303.581 286.142 305.357C286.212 305.83 286.272 306.303 286.342 306.768C293.4 309.026 300.354 309.242 307.152 305.772C307.987 305.349 308.997 304.901 309.893 304.951C317.639 305.366 321.747 300.427 326.246 295.547C331.738 289.596 337.883 284.209 343.592 278.441C346.612 275.386 349.397 272.108 352.017 268.73C352.46 268.149 351.843 266.165 351.077 265.543ZM301.442 293.414C297.743 288.16 294.236 287.338 288.274 290.583C285.019 292.36 281.599 293.895 278.353 295.688C277.099 296.385 276.107 297.514 274.819 298.585C277.935 301.514 280.563 302.768 284.636 300.66C290.05 297.854 295.881 295.771 301.442 293.414ZM287.796 282.217C284.941 280.068 282.521 278.15 279.98 276.416C279.501 276.084 278.239 276.167 277.787 276.548C273.844 279.868 269.728 283.072 266.194 286.766C262.104 291.048 263.122 293.314 269.179 294.211C270.589 294.418 272.487 294.219 273.54 293.447C278.248 289.994 282.713 286.276 287.796 282.217ZM283.844 186.852C281.059 193.068 283.27 195.724 293.54 198.156C293.27 189.972 291.555 188.022 283.844 186.852ZM292.565 199.526C290.05 198.231 287.212 197.484 284.245 196.43C280.346 204.63 279.858 212.756 280.65 221.014C280.737 221.894 282.095 222.923 283.113 223.413C285.916 224.749 288.849 225.836 291.555 226.957C292.669 218.632 293.818 210.822 294.662 202.978C294.767 201.874 293.635 200.082 292.565 199.526ZM290.032 252.28C287.587 258.164 285.472 264.198 282.626 269.892C281.007 273.129 281.373 275.021 284.506 276.764C286.29 277.76 287.909 279.022 290.102 280.499C291.486 277.843 292.6 275.478 293.914 273.22C299.214 263.999 304.602 254.836 309.884 245.615C310.528 244.486 310.711 243.125 311.12 241.88C311.286 241.133 311.816 239.88 311.581 239.73C307.848 237.39 304.018 235.198 300.215 232.974C300.006 233.281 299.797 233.572 299.597 233.879C301.286 235.29 302.983 236.701 304.671 238.112C298.326 235.63 298.109 235.514 294.758 241.274C292.756 244.718 291.564 248.594 290.032 252.28ZM300.467 189.723C297.395 197.243 299.458 201.401 307.526 203.634C305.063 198.779 302.826 194.363 300.467 189.723ZM310.607 208.896C309.057 206.589 305.106 205.709 302.156 204.381C301.843 204.24 300.511 205.311 300.267 206.016C297.883 212.739 296.133 219.52 297.891 226.716C298.579 229.546 299.971 231.422 302.713 232.733C306.125 234.36 309.345 236.377 312.809 238.311C314.332 230.833 313.487 229.48 308.074 226.882C310.546 227.928 309.319 227.413 312.217 228.625C313.792 221.653 314.628 214.855 310.607 208.896ZM320.964 209.137C317.813 204.987 317.247 199.185 311.938 195.932C311.695 201.584 315.716 207.518 320.964 209.137ZM578.883 208.83C583.957 208.265 588.239 202.057 588.875 194.911C582.574 197.642 582.809 204.364 578.883 208.83ZM695.019 159.728C694.218 159.08 693.966 157.835 693.2 156.375C690.589 157.379 687.822 158.234 685.324 159.545C684.593 159.927 684.036 161.969 684.453 162.699C685.916 165.222 687.839 167.505 689.736 170.086C687.526 176.078 693.435 189.898 698.909 190.379C698.448 191.11 698.022 191.782 697.604 192.454C697.761 192.687 697.917 192.919 698.074 193.151C701.259 191.956 704.662 191.101 707.534 189.416C708.666 188.744 709.388 186.03 708.979 184.594C706.29 175.34 703.017 166.326 695.019 159.728ZM699.58 155.91C703.07 154.615 706.56 153.32 710.05 152.017C709.884 151.652 709.71 151.287 709.545 150.922C706.02 152.067 702.504 153.212 698.979 154.349C699.188 154.872 699.388 155.395 699.58 155.91ZM669.51 169.073C672.739 175.863 670.415 176.153 678.622 173.107C679.91 172.634 681.155 172.095 682.713 171.464C682.469 170.459 682.391 169.928 682.208 169.439C678.605 160.292 680.128 161.612 670.772 165.446C669.91 165.803 669.075 168.185 669.51 169.073ZM664.706 179.573C661.869 180.743 657.404 180.361 657.978 185.474C659.58 190.844 661.129 196.222 662.8 201.567C663.505 203.842 665.002 204.19 667.343 203.244C674.575 200.298 674.802 200.214 672.93 192.869C672.043 189.4 670.746 185.997 669.406 182.644C668.64 180.735 667.874 178.278 664.706 179.573ZM681.077 173.771C678.918 174.053 676.768 174.925 674.836 175.929C674.053 176.336 673.252 177.913 673.496 178.668C675.245 184.104 677.299 189.45 679.136 194.861C679.928 197.177 681.346 197.268 683.305 196.363C684.819 195.666 686.438 195.152 687.83 194.288C688.692 193.749 689.223 192.72 689.641 192.222C687.9 186.163 686.507 180.743 684.706 175.456C684.401 174.576 682.234 173.622 681.077 173.771ZM704.862 193.624C706.09 193.126 707.299 192.595 708.509 192.072C708.413 191.84 708.326 191.608 708.231 191.375C705.55 192.33 702.774 193.085 700.276 194.355C699.406 194.795 698.527 196.762 698.866 197.583C701.851 204.821 705.037 211.984 708.405 219.055C708.744 219.752 711.085 220.284 712.017 219.877C718.213 217.188 718.831 215.976 717.369 209.494C716.586 206 715.515 202.547 714.358 199.144C712.713 194.338 710.711 193.483 705.541 195.044C704.149 195.459 702.713 195.774 701.294 196.131C701.181 195.791 701.05 195.467 700.929 195.127C702.243 194.629 703.557 194.147 704.862 193.624ZM701.251 224.035C698.788 215.661 696.229 207.319 693.444 199.044C693.183 198.247 691.312 197.816 690.102 197.492C689.536 197.334 688.788 197.791 688.117 197.99C680.467 200.339 680.424 200.356 683.426 207.477C686.577 214.963 689.815 222.4 693.27 230.459C695.794 229.073 698.03 228.011 700.023 226.641C700.755 226.143 701.468 224.757 701.251 224.035ZM686.185 231.248C683.531 223.994 681.033 216.69 678.474 209.411C678.3 208.913 678.126 208.406 677.909 207.917C675.75 202.92 669.719 202.19 666.151 206.522C665.698 207.078 665.681 207.95 665.48 208.631C667.874 214.449 670.128 220.142 672.565 225.778C673.992 229.073 675.498 232.368 677.317 235.472C678.988 238.327 681.399 236.792 683.479 235.804C685.367 234.883 687.169 233.937 686.185 231.248ZM659.789 210.772C659.684 210.54 659.379 210.158 659.275 210.191C655.942 211.245 652.469 212.075 649.379 213.594C648.431 214.059 647.769 216.731 648.265 217.893C652.121 226.99 656.281 235.962 660.346 244.976C661.181 246.851 662.408 247.308 664.262 246.113C666.098 244.918 668.117 243.955 669.858 242.652C670.72 242.021 671.164 240.867 672.269 239.265C668.135 229.795 663.966 220.275 659.789 210.772ZM655.167 244.478C651.564 236.12 647.674 227.886 644.088 219.537C642.948 216.872 641.625 216.515 639.031 217.777C637.082 218.732 634.836 219.13 632.695 219.678C629.432 220.524 627.517 222.251 628.048 225.737C628.196 226.782 628.161 227.911 628.527 228.891C631.729 237.199 634.697 245.615 638.379 253.732C640.746 258.944 641.547 258.803 646.856 255.857C648.553 254.919 650.302 254.081 651.973 253.118C657.404 250.014 657.534 249.947 655.167 244.478ZM634.088 260.762C630.302 249.922 626.351 239.141 622.495 228.326C621.547 225.662 620.015 225.073 617.473 226.567C615.698 227.612 613.792 228.467 611.982 229.455C606.586 232.443 606.89 232.335 609.118 237.688C613.374 247.914 617.247 258.289 621.294 268.597C621.625 269.427 622.043 270.224 622.756 271.759C626.629 269.037 630.258 266.655 633.644 263.991C634.305 263.468 634.419 261.725 634.088 260.762ZM601.303 233.323C601.111 233.057 600.92 232.8 600.72 232.542C596.29 235.024 591.86 237.498 587.439 239.979C587.587 240.311 587.743 240.651 587.891 240.992H590.476C590.346 242.527 589.571 244.353 590.154 245.573C595.202 255.898 600.589 266.066 605.689 276.374C608.196 281.462 608.5 281.661 613.348 278.217C614.236 277.586 615.08 276.855 616.037 276.324C618.796 274.805 618.727 273.029 617.561 270.34C614.567 263.418 612.191 256.255 609.232 249.317C607.395 245.034 605.063 240.934 602.661 236.908C602.199 236.128 600.433 236.07 599.258 235.68C599.928 234.9 600.615 234.103 601.303 233.323ZM578.97 246.752C578.622 246.295 578.274 245.847 577.926 245.399C573.07 248.943 568.213 252.487 563.035 256.272C578.509 264.92 587.073 278.117 593.322 293.547C596.594 290.957 599.58 288.807 602.234 286.334C602.974 285.637 603.096 283.877 602.835 282.748C599.876 270.091 593.366 259.318 583.627 250.263C581.46 248.254 579.345 248.096 576.864 249.524C575.106 250.537 573.279 251.466 570.911 251.682C573.601 250.047 576.281 248.404 578.97 246.752ZM621.921 276.358C621.599 276.059 620.493 276.158 620.041 276.465C617.491 278.208 615.028 280.076 612.147 282.184C617.23 286.243 621.668 290.011 626.377 293.464C628.579 295.074 634.48 294.094 636.081 292.119C636.507 291.579 636.56 290.119 636.124 289.695C631.477 285.155 626.716 280.732 621.921 276.358ZM607.935 289.173C603.252 287.23 600.702 290.832 598.431 293.256C604.01 295.655 609.702 297.68 614.941 300.485C619.075 302.71 621.903 301.705 625.829 297.945C619.458 294.783 613.853 291.629 607.935 289.173ZM585.942 300.585C584.819 282.084 571.155 271.187 555.733 261.26C555.942 261.227 555.62 261.202 555.402 261.335C545.698 266.854 544.95 269.676 554.21 276.573C563.592 283.553 570.589 292.393 578.692 300.377C580.955 302.618 584.802 303.573 588.074 304.677C591.964 305.98 595.977 307.283 600.032 307.723C604.523 308.204 609.127 307.698 613.679 307.615C613.714 307.017 613.749 306.411 613.775 305.814C604.993 303.158 596.081 301.083 585.942 300.585ZM553.183 260.82C554.253 259.783 555.01 257.766 554.81 256.33C554.175 251.748 555.254 247.823 557.621 243.805C560.685 238.601 563.305 233.123 565.655 227.579C566.882 224.707 567.125 221.446 567.848 218.175C557.082 219.661 549.284 227.504 548.544 236.975C548.17 241.847 546.264 246.08 543.296 250.171C542.025 251.923 542.321 255.135 542.835 257.5C543.392 260.023 545.045 262.331 546.516 265.352C548.953 263.75 551.373 262.571 553.183 260.82ZM578.587 201.343C573.522 199.916 573.522 199.916 563.949 215.727C572.182 214.333 573.27 212.1 578.587 201.343ZM572.669 219.86C571.895 226.641 569.571 232.567 566.055 238.311C565.541 239.149 566.168 240.635 566.264 241.805C561.956 245.1 562.077 249.798 561.39 255.268C567.952 250.736 574.088 247.034 579.458 242.511C581.207 241.042 580.981 237.423 581.764 234.327C580.241 234.559 579.319 234.7 578.405 234.842C581.425 232.941 582.06 230.227 581.903 226.932C581.668 222.085 581.842 217.213 581.842 212.365C574.871 212.432 573.165 215.495 572.669 219.86ZM599.588 189.616C597.178 194.338 594.81 198.978 592.312 203.875C600.511 201.327 603.409 195.616 599.588 189.616ZM599.075 204.364C590.99 205.028 587.447 207.801 586.986 215.071C586.507 222.616 586.873 230.219 586.873 238.435C592.165 235.53 596.856 233.024 601.451 230.36C602.147 229.961 602.739 228.857 602.774 228.044C603.157 219.918 602.774 211.892 599.075 204.364ZM616.429 186.893C608.735 187.607 606.647 189.923 606.516 198.181C617.395 195.334 618.518 194.014 616.429 186.893ZM616.499 196.272C613.035 197.484 609.771 198.247 606.969 199.775C605.829 200.38 605.254 202.621 605.185 204.149C605.098 205.95 606.003 207.767 606.212 209.61C606.708 214.034 607.082 218.482 607.456 222.923C607.561 224.168 607.473 225.438 607.473 227.471C611.721 225.654 615.158 224.342 618.413 222.691C619.319 222.242 620.145 220.815 620.189 219.802C620.546 211.942 619.092 204.331 616.499 196.272ZM632.252 189.981C632.26 189.972 632.278 189.956 632.286 189.948C635.211 187.366 632.965 184.553 632.504 181.863C632.443 181.482 630.885 181.025 630.058 181.1C623.609 181.681 620.25 184.528 621.294 192.828C624.984 191.857 628.64 190.91 632.278 189.948C629.379 191.184 626.386 192.255 623.653 193.749C622.46 194.388 620.885 196.123 621.085 197.052C622.669 204.406 624.645 211.685 626.69 219.736C631.512 217.893 635.663 216.491 639.597 214.656C640.389 214.291 640.885 212.183 640.607 211.104C638.997 205.078 637.204 199.094 635.211 193.168C634.802 191.931 633.261 191.035 632.252 189.981ZM649.614 173.315C649.266 172.609 648.683 171.281 648.587 171.281C645.472 172.327 642.408 173.506 639.327 174.667C639.414 175.008 639.493 175.365 639.571 175.705C640.276 175.871 640.972 176.037 641.677 176.211C637.439 179.465 636.525 185.881 638.979 186.86C638.979 189.101 638.527 190.968 639.066 192.512C640.946 197.932 643.2 203.236 645.245 208.606C646.22 211.179 647.691 211.668 650.372 210.581C659.745 206.805 659.719 206.896 657.151 197.476C655.324 190.786 653.74 184.038 651.877 177.357C651.486 175.929 650.389 174.659 649.614 173.315ZM662.13 169.082C658.553 168.833 655.837 171.696 655.097 175.232C656.377 176.726 658.1 179.672 658.849 179.465C661.425 178.734 665.855 179.548 665.846 175.514C665.837 173.182 666.09 169.364 662.13 169.082ZM666.046 156.35C666.238 156.79 666.429 157.229 666.629 157.661C680.511 155.196 708.605 145.693 710.528 141.783C695.698 146.647 680.876 151.503 666.046 156.35ZM701.059 157.744C701.338 158.184 701.503 158.856 701.912 159.022C710.485 162.666 710.485 170.982 712.896 177.797C715.994 186.52 719.336 187.939 727.012 182.287C728.187 181.415 728.857 178.402 728.222 177.066C725.62 171.646 722.713 166.31 719.231 161.379C718.326 160.101 714.958 160.4 712.652 159.96C713.748 159.437 715.176 158.757 716.577 158.101C713.853 151.527 709.597 152.839 701.059 157.744ZM721.616 199.559C722.53 202.713 724.088 205.751 725.794 208.606C726.29 209.436 728.527 210.033 729.597 209.685C731.651 209.012 733.548 207.734 735.298 206.439C736.342 205.659 736.96 204.373 737.891 203.161C736.211 197.683 734.715 192.62 733.087 187.582C732.426 185.557 730.955 184.968 728.849 185.93C718.727 190.562 718.248 187.897 721.616 199.559ZM727.552 142.406C723.67 143.975 719.78 145.552 715.298 147.361C718.605 148.747 724.95 146.423 728.004 143.394C727.856 143.062 727.7 142.73 727.552 142.406ZM726.037 146.846C723.714 147.909 721.381 148.971 718.944 150.075C723.104 155.213 723.862 155.42 728.883 153.096C731.024 152.1 733.139 151.079 735.245 150.05C735.611 149.876 735.933 149.618 736.507 149.253C731.764 144.224 731.764 144.232 726.037 146.846ZM736.377 151.602C734.384 152.142 732.565 153.237 730.641 154.026C724.941 156.375 724.741 156.831 727.743 161.844C730.589 166.583 733.47 171.298 736.386 175.987C736.829 176.709 737.56 177.265 738.352 178.104C742.6 176.095 746.621 174.286 750.493 172.219C750.929 171.987 750.911 170.127 750.459 169.364C747.073 163.562 743.609 157.794 739.928 152.158C739.501 151.486 737.473 151.312 736.377 151.602ZM742.243 193.492C742.365 193.873 742.513 194.255 742.661 194.62C745.115 200.555 745.298 200.613 751.103 197.31C752.896 196.289 754.845 195.434 756.438 194.189C757.56 193.309 758.222 191.881 759.136 190.645C757.526 185.98 756.168 181.814 754.636 177.714C753.827 175.564 752.347 174.991 750.058 176.186C736.725 183.133 737.526 178.651 742.243 193.492ZM745.367 137.55C742.791 138.812 740.267 140.148 737.708 141.46C739.797 144.937 742.6 145.859 745.976 144.672C747.735 144.049 749.641 143.85 751.486 143.46C749.171 144.854 746.855 146.249 743.827 148.066C747.874 154.582 751.686 160.989 755.863 167.173C756.499 168.119 759.179 168.816 760.276 168.318C771.312 163.413 770.058 165.521 764.819 156.574C762.46 152.54 760.206 148.44 757.7 144.497C757.056 143.485 755.628 142.912 754.558 142.14C753.348 137.799 749.171 135.7 745.367 137.55ZM760.911 180.594C761.729 183.391 762.861 186.105 763.94 188.827C764.166 189.391 764.784 189.815 765.48 190.595C768.692 188.893 771.869 187.283 774.941 185.524C775.681 185.1 776.699 183.997 776.551 183.474C775.115 178.444 773.618 173.414 771.703 168.534C771.416 167.82 768.535 167.214 767.473 167.729C757.639 172.402 758.152 171.182 760.911 180.594ZM754.471 133.757C756.943 135.492 759.223 137.086 761.503 138.688C761.433 139.21 761.137 139.866 761.355 140.231C764.828 146.133 768.326 152.009 771.929 157.844C773.844 160.956 776.412 161.429 779.597 159.329C781.738 157.91 784.062 156.756 786.298 155.486C783.383 149.56 780.937 143.958 777.882 138.671C776.638 136.53 774.062 135.085 772.095 133.326C766.246 127.624 762.504 127.566 754.471 133.757ZM828.587 146.498C826.934 142.763 825.097 139.111 822.904 134.554C818.387 138.173 813.975 141.659 809.641 145.244C809.258 145.568 809.127 146.556 809.336 147.07C810.998 151.112 812.765 155.121 814.897 160.051C819.997 156.325 824.523 153.121 828.849 149.685C829.362 149.286 829.014 147.469 828.587 146.498ZM830.929 137.185C831.033 137.426 831.129 137.675 831.233 137.924C834.271 145.203 834.271 145.211 841.05 141.999C842.861 140.182 843.27 138.414 841.686 136.065C840.363 134.089 839.788 131.666 838.718 129.525C837.839 127.773 836.708 126.138 835.776 124.594C834.723 124.91 834.41 124.918 834.218 125.067C827.909 129.956 827.909 129.956 830.929 137.185ZM821.059 133.093C818.936 127.209 817.334 121.067 811.764 117.017C811.338 116.701 810.58 116.195 810.345 116.336C806.412 118.701 802.513 121.142 798.674 123.64C798.37 123.831 798.509 124.644 798.439 125.159C798.204 125.283 797.969 125.408 797.735 125.524C800.546 130.952 803.313 136.397 806.264 141.759C806.499 142.182 808.022 142.306 808.779 142.066C809.936 141.7 811.016 140.987 811.99 140.248C815.045 137.916 818.039 135.492 821.059 133.093ZM809.084 160.45C808.135 157.561 806.742 154.806 805.646 151.951C804.131 148.042 802.695 147.535 798.97 149.892C797.343 150.93 795.82 152.142 794.253 153.279C796.159 158.914 797.83 163.944 799.614 168.949C799.788 169.455 800.937 170.186 801.129 170.069C803.862 168.36 806.716 166.716 809.066 164.591C809.806 163.911 809.51 161.753 809.084 160.45ZM789.519 159.371C789.11 158.624 786.89 158.159 785.837 158.499C783.766 159.155 781.686 160.209 780.076 161.604C779.049 162.5 778.144 164.45 778.448 165.637C779.458 169.613 781.129 173.439 782.356 177.373C783.087 179.689 784.305 180.477 786.62 179.324C788.962 178.162 791.39 177.108 793.574 175.722C794.549 175.116 795.045 173.813 795.976 172.518C793.783 167.936 791.842 163.554 789.519 159.371ZM771.642 124.395C775.376 126.736 777.839 130.819 783.235 129.998C782.756 137.766 786.638 144.066 790.972 150.116C791.494 150.839 793.827 151.096 794.88 150.639C803.296 147.037 803.409 146.282 798.579 138.771C796.768 135.965 795.594 132.778 793.888 129.89C793.061 128.487 791.668 127.383 790.537 126.146C786.533 120.428 777.325 119.341 771.642 124.395ZM786.551 115.838C793.827 123.275 799.693 123.067 807.891 114.892C801.442 108.601 793.035 109.057 786.551 115.838ZM804.871 102.027C805.045 102.409 805.219 102.799 805.402 103.181C806.986 102.625 808.57 102.077 810.163 101.521C810.25 101.687 810.328 101.853 810.415 102.019C808.483 103.156 806.551 104.285 804.619 105.413C807.587 110.045 814.836 111.207 819.458 108.144C816.229 110.767 816.264 113.522 818.657 116.751C820.18 118.793 820.815 121.44 822.373 123.432C823.766 125.225 826.264 127.989 827.621 127.682C829.98 127.134 832.695 124.885 833.566 122.735C834.07 121.465 831.703 117.93 829.91 117.299C826.664 116.162 826.481 113.771 825.524 111.547C824.993 110.327 824.584 109.065 824.088 107.762H819.875C821.825 105.754 821.303 104.185 818.866 103.056C816.359 101.894 813.888 100.201 811.259 99.894C809.249 99.6699 807.003 101.255 804.871 102.027ZM817.36 94.7812C825.158 102.235 831.277 101.164 838.683 91.3119C828.5 86.8549 825.82 87.2699 817.36 94.7812ZM880.876 39.4543C876.742 37.5868 871.433 37.786 866.612 37.6698C863.4 37.5868 859.484 41.4878 859.127 44.0192C863.026 44.6666 867.073 44.8492 870.728 46.1108C873.957 47.2147 876.708 49.5802 879.745 51.2567C882.138 52.5764 884.636 53.7052 888.396 55.5644C887.621 49.4142 887.003 44.4757 886.394 39.529C885.776 39.5871 885.158 39.6452 884.549 39.6867C884.862 42.6664 885.176 45.6377 885.585 49.4308C883.809 45.4053 883.287 40.5333 880.876 39.4543ZM862.008 55.3652C863.801 56.1536 865.75 56.6599 867.517 57.5065C869.031 58.2369 870.372 59.2827 871.938 60.2787C874.114 53.4728 869.963 47.3143 863.27 47.6463C861.251 47.7542 859.414 51.1322 857.5 53.008C858.996 53.8048 860.459 54.6846 862.008 55.3652ZM854.288 64.6859C855.933 64.0053 857.578 63.3247 859.223 62.6358C858.944 62.0383 858.666 61.4324 858.405 60.8348C856.037 59.9633 854.419 60.702 854.288 64.6859ZM858.335 35.6696C865.402 34.7649 872.469 33.8685 879.788 32.9306C879.597 29.4198 877.108 27.7681 874.488 26.382C871.956 25.054 870.267 26.6476 868.274 28.0752C865.106 30.366 861.547 32.1504 858.144 34.1507C858.213 34.6653 858.265 35.1633 858.335 35.6696ZM872.808 69.3421C872.556 66.4372 865.184 60.3202 862.338 60.8514C861.268 61.0506 860.441 62.4864 859.423 63.4243C860.354 64.9266 860.685 66.072 861.468 66.6364C864.018 68.4458 866.699 70.1223 869.432 71.6744C870.128 72.0811 871.512 72.2056 872.077 71.7989C872.661 71.4005 872.887 70.1804 872.808 69.3421ZM867.952 76.9863C865.541 74.8533 862.721 73.1352 860.023 71.3175C859.493 70.9606 858.657 71.0353 858.03 70.778C852.295 68.4292 851.068 68.869 848.161 73.8241C853.043 78.3309 857.752 82.7049 862.547 87.0043C863.139 87.5438 864.332 88.0417 865.002 87.8343C867.247 87.1454 869.701 78.5301 867.952 76.9863ZM836.838 51.5472C842.286 55 844.358 54.6597 846.829 48.9494C848.492 45.1148 849.406 40.9566 850.215 36.8565C850.354 36.1427 848.257 34.2503 847.265 34.2835C845.506 34.3665 842.756 35.0969 842.234 36.2838C840.093 41.1143 838.648 46.2187 836.838 51.5472ZM839.823 34.0428C833.627 33.4535 832.695 34.0843 831.564 39.031C830.798 42.4008 829.867 45.7373 829.136 49.1154C828.996 49.7462 829.466 50.5097 829.649 51.2069C830.372 50.9828 831.494 50.9662 831.764 50.5014C834.523 45.6543 837.169 40.7325 839.788 35.8024C840.006 35.3874 839.823 34.7815 839.823 34.0428ZM847.891 57.7638C848.448 57.9298 848.988 58.0958 849.536 58.2618C850.763 54.7095 851.99 51.1571 853.2 47.6131C852.521 47.4388 851.842 47.2728 851.164 47.0902C850.772 50.8417 845.428 53.2321 847.891 57.7638ZM860.824 91.3617C856.307 87.5272 851.956 83.4436 847.047 80.132C843.435 77.6918 839.658 78.8123 835.802 83.3274C846.124 83.5847 848.614 91.1791 852.861 97.1052C854.07 98.7818 856.063 99.9521 857.691 101.363C859.049 98.7486 860.502 96.159 861.694 93.4699C861.929 92.9636 861.372 91.8265 860.824 91.3617ZM829.049 36.1593C828.744 35.8273 828.448 35.5119 828.144 35.1882C826.916 36.1095 824.741 36.9478 824.636 37.9686C824.245 42.2265 824.471 46.5424 824.471 50.8251C824.793 50.9164 825.106 50.9911 825.428 51.0824C826.629 46.1025 827.839 41.1392 829.049 36.1593ZM816.855 49.2482C816.89 49.9204 817.865 50.5429 818.396 51.182C818.909 50.5346 819.841 49.9038 819.875 49.2316C820.015 45.6045 819.945 41.9692 819.945 38.3421C819.423 38.1927 818.901 38.035 818.387 37.8773C817.856 38.6492 816.908 39.3796 816.864 40.1764C816.681 43.1893 816.69 46.2353 816.855 49.2482ZM747.099 81.2691C745.489 73.0937 743.661 69.201 741.32 68.9935C739.893 77.1357 742.391 82.4227 747.099 81.2691ZM735.594 53.0827C735.254 53.0163 734.915 52.9499 734.575 52.8752C733.218 56.22 731.564 59.4902 730.728 62.9512C730.554 63.6899 733.357 65.076 735.585 66.7775V53.0827H735.594ZM735.602 68.4541C735.419 67.5992 732.878 66.9933 731.329 66.7609C730.746 66.6696 729.371 67.9146 729.31 68.6283C729.049 71.6495 728.718 74.762 729.205 77.7167C729.876 81.7421 733.531 80.8956 737.178 81.3438C736.655 76.5215 736.464 72.4297 735.602 68.4541ZM741.677 60.6605C740.885 61.5071 740.102 62.3454 738.849 63.6816C740.206 65.1424 741.164 66.1882 742.121 67.2257C742.634 66.3127 743.661 65.325 743.531 64.495C743.313 63.167 742.339 61.9387 741.677 60.6605ZM747.804 52.3191C747.456 53.755 746.96 55.1743 746.916 56.6101C746.916 56.9172 748.614 57.2575 749.527 57.5895C749.641 55.9461 749.754 54.3111 749.876 52.6677C749.179 52.5515 748.492 52.4353 747.804 52.3191ZM751.259 63.5322C750.676 62.3205 749.832 61.2249 749.101 60.0878C748.318 61.2747 747.552 62.4533 747.108 63.1172C747.456 65.0179 747.369 66.2048 747.9 67.0348C748.5 68.0059 749.658 68.6616 750.58 69.45C751.007 68.3628 751.634 67.3087 751.799 66.1882C751.929 65.3499 751.651 64.3456 751.259 63.5322ZM750.145 71.3673C749.675 71.4171 748.857 72.6538 749.023 73.0107C750.163 75.5172 751.529 77.9242 752.835 80.3644C753.322 80.1237 753.809 79.8913 754.297 79.6506C753.722 77.1357 753.261 74.596 752.486 72.1392C752.33 71.6661 750.911 71.2843 750.145 71.3673ZM757.865 48.551C754.158 49.7794 752.521 54.0455 754.375 56.2283C754.723 56.635 755.776 57.0334 756.107 56.8425C756.829 56.4109 757.708 55.6308 757.795 54.9253C758.004 52.8918 757.865 50.8168 757.865 48.551ZM757.221 68.4623C761.834 66.0969 758.727 62.8184 758.483 59.872C754.131 59.5649 753.557 60.1044 754.81 63.4907C755.437 65.2088 756.403 66.819 757.221 68.4623C757.195 68.4706 757.178 68.4873 757.151 68.4956C757.169 68.4956 757.195 68.4873 757.212 68.4873C755.472 71.8736 756.655 74.7122 759.406 76.8784C760.285 77.5839 762.104 77.2104 763.496 77.3432C763.548 76.1812 764.131 74.5462 763.557 73.9652C761.59 72.0147 761.738 67.6822 757.221 68.4873C757.212 68.479 757.221 68.4706 757.221 68.4623ZM764.305 46.5673C763.783 46.4926 763.27 46.4262 762.756 46.3598C762.339 47.3309 761.468 48.3435 761.564 49.2565C762.104 53.838 762.826 58.4195 763.653 62.9678C763.766 63.6069 765.158 64.6693 765.463 64.5365C766.316 64.1713 767.613 63.1421 767.508 62.5694C766.594 57.216 765.419 51.9041 764.305 46.5673ZM766.072 69.1014C767.987 71.0685 769.736 72.8945 772.217 75.4508C772.452 69.1678 770.363 67.2506 766.072 69.1014ZM769.762 41.9609V54.4024C772.878 51.5804 772.774 46.6005 769.762 41.9609ZM771.912 55.8465C771.172 56.1038 770.441 56.3694 769.701 56.6267C770.45 58.3365 771.181 60.0712 772.034 61.7312C772.077 61.8225 773.191 61.4075 773.809 61.2332C773.183 59.4321 772.547 57.6393 771.912 55.8465ZM778.204 51.5057C778.814 46.4345 779.362 41.8613 779.928 37.2216C774.384 38.4002 773.244 45.978 778.204 51.5057ZM785.776 49.2648C785.768 49.2565 785.75 49.2482 785.741 49.2316C786.542 47.6878 787.813 46.1938 787.978 44.5919C788.326 41.1143 788.091 37.5785 788.091 34.0677C787.665 33.8519 787.247 33.6361 786.821 33.412C785.715 34.4329 783.583 35.57 783.679 36.4664C784.175 40.7408 780.981 45.6294 785.733 49.2316C785.715 49.2565 785.698 49.2814 785.689 49.3063C785.689 49.3063 785.698 49.3063 785.698 49.3146C782.782 51.1903 783.157 53.6886 784.593 56.137C784.932 56.7097 786.847 57.1579 787.325 56.801C789.127 55.4648 787.935 50.5429 785.698 49.3146C785.724 49.298 785.75 49.2814 785.776 49.2648ZM798.909 28.5815C793.131 29.6688 790.702 35.5285 792.182 45.1563C797.012 45.0401 798.744 43.571 798.883 39.2136C798.988 35.6613 798.909 32.1089 798.909 28.5815ZM797.795 46.3598C791.694 47.057 790.824 48.4182 792.312 54.917C799.284 55.3818 800.546 53.423 797.795 46.3598ZM803.296 26.4235C802.869 31.0797 802.443 35.736 801.99 40.5831C805.959 39.5622 807.212 30.8224 803.296 26.4235ZM805.776 48.966C805.698 47.6546 805.785 46.2934 805.446 45.0484C805.263 44.3512 804.375 43.82 803.801 43.2225C803.191 43.8366 802.069 44.4425 802.051 45.0733C801.999 47.0238 802.199 49.0158 802.634 50.9247C802.808 51.6966 803.862 52.2776 804.514 52.9416C804.984 52.1448 805.55 51.3729 805.881 50.5263C806.072 50.0781 805.828 49.4806 805.776 48.966ZM809.797 51.3148C809.832 51.5057 811.216 51.8128 811.599 51.5555C812.304 51.099 813.139 50.2856 813.183 49.5802C813.357 46.5922 813.261 43.6042 813.261 40.6163C812.774 40.3756 812.295 40.1266 811.816 39.8859C810.763 40.8653 808.857 41.8032 808.814 42.8241C808.701 45.646 809.327 48.5012 809.797 51.3148ZM809.658 26.6393C809.388 30.1087 809.536 33.6195 809.536 37.1138C809.893 37.3129 810.258 37.5204 810.615 37.7279C811.625 36.6075 813.191 35.6115 813.505 34.3499C814.088 31.9512 814.088 29.3783 814.001 26.8883C813.975 26.133 812.695 24.7469 812.243 24.8299C811.251 25.0457 809.71 25.9421 809.658 26.6393ZM815.132 15.7914C813.783 17.1692 812.426 18.5469 811.068 19.9247C815.82 21.6013 815.75 18.9619 816.116 16.6878C815.802 16.389 815.472 16.0902 815.132 15.7914ZM820.868 22.9957C816.264 26.0334 818.187 30.3992 816.699 33.8519C821.651 34.0594 823.017 30.4656 820.868 22.9957ZM824.375 15.0029C822.695 16.6048 821.007 18.1983 818.84 20.2567C823.627 20.8128 823.766 20.68 825.211 15.8661C824.932 15.5756 824.654 15.2851 824.375 15.0029ZM826.081 24.9129C825.698 26.8551 825.576 28.8471 825.315 31.0216C825.176 33.6112 826.194 34.4578 829.057 33.2045C832.965 31.5113 834.392 28.3076 834.81 24.6639C834.897 23.9419 833.087 22.3649 832.086 22.3151C829.788 22.174 826.768 21.5017 826.081 24.9129ZM838.3 13.7911C836.185 13.7662 833.792 13.4591 832.025 14.2891C830.372 15.061 829.379 17.1028 828.109 18.5884C828.292 18.9453 828.466 19.3188 828.657 19.6757C830.676 19.5678 832.869 19.8998 834.662 19.2441C836.342 18.6382 837.691 17.0613 838.988 15.7333C839.231 15.4677 838.561 13.7994 838.3 13.7911ZM838.909 25.552C838.274 27.3863 837.421 29.1625 836.673 30.9635C841.686 32.4741 846.681 28.4155 848.561 21.5515C842.922 19.4765 840.711 20.4144 838.909 25.552ZM843.365 18.2232C850.389 20.0409 852.808 19.3188 855.863 14.6543C849.501 11.6829 845.106 12.8532 843.365 18.2232ZM854.358 21.6594C853.688 21.5432 852.565 22.3815 852.095 23.0538C850.267 25.6848 848.622 28.4404 846.612 31.6109C855.82 34.5491 860.868 28.5483 867.012 25.386V24.166C862.8 23.2945 858.605 22.3566 854.358 21.6594ZM858.605 19.2939C864.593 24.0913 870.285 24.0498 876.011 19.02C870.076 16.8206 864.297 12.5046 858.605 19.2939ZM864.619 2.40369C864.401 2.86848 864.192 3.33328 863.975 3.79807C868.77 5.82324 873.548 7.84841 878.344 9.86527C878.561 9.38388 878.788 8.89419 879.014 8.4128C874.21 6.41253 869.414 4.40396 864.619 2.40369ZM880.493 22.6139C879.44 21.9748 877.125 23.1949 875.28 24.2075C880.241 26.6725 881.747 33.3539 889.127 33.163C887.299 28.4404 884.427 24.9959 880.493 22.6139ZM890.076 41.6372C890.607 48.0779 891.12 54.2613 891.625 60.4281C895.158 55.5644 893.775 43.0316 890.076 41.6372ZM886.89 62.1213C882.983 59.2246 879.144 56.2449 874.018 54.7676C872.895 59.5649 874.61 63.0591 879.014 65.8396C883.705 68.811 888.03 72.3052 892.338 75.4508C893.957 70.6037 892.173 66.0388 886.89 62.1213ZM888.848 96.2669C890.459 90.9467 893.435 85.7095 889.545 80.1071C889.153 85.5103 885.28 90.7392 888.848 96.2669ZM884.845 76.2725C882.112 73.6996 880.354 70.0476 874.845 71.8072C873.775 78.9368 883.313 80.6632 885.28 86.8217C887.691 82.9788 888.439 79.6589 884.845 76.2725ZM879.58 112.626C880.18 113.663 880.868 114.668 882.043 115.423C884.941 110.825 887.856 106.783 885.933 101.753C883.287 94.8559 881.538 87.4442 874.915 82.6053C873.853 81.8251 872.835 80.9869 871.364 79.8415C868.439 85.1285 865.794 89.4527 869.371 94.9223C873.113 100.624 876.203 106.708 879.58 112.626ZM869.092 138.58C872.617 133.21 877.117 128.354 878.022 121.623C874.697 127.118 871.372 132.62 868.048 138.115C868.396 138.264 868.753 138.422 869.092 138.58ZM867.491 133.915C868.022 134.065 868.544 134.222 869.075 134.363C871.86 129.168 874.958 124.088 877.247 118.693C877.848 117.274 876.238 114.759 875.193 112.991C871.964 107.555 868.509 102.243 865.124 96.8977C865.002 96.7151 864.654 96.6736 864.401 96.5657C858.126 106.135 857.082 105.189 863.209 114.294C864.828 116.693 865.602 119.764 866.168 122.627C866.925 126.329 867.082 130.147 867.491 133.915ZM854.889 154.964C858.631 150.648 862.382 146.332 866.124 142.016C865.881 141.808 865.628 141.601 865.385 141.402L853.731 153.984C854.114 154.308 854.497 154.64 854.889 154.964ZM854.097 151.669C857.526 147.726 862.182 143.966 864.427 139.194C865.855 136.164 864.166 131.483 863.07 127.748C861.738 123.208 859.64 118.867 857.7 114.502C856.943 112.817 855.959 111.09 854.61 109.846C853.896 109.182 852.182 109.489 850.929 109.348C851.895 103.131 848.379 98.6407 844.218 94.6235C843.392 93.8268 840.58 93.7272 839.588 94.4492C836.081 96.9973 832.826 99.9189 829.806 102.99C829.127 103.679 829.284 105.82 829.902 106.824C831.668 109.671 833.853 112.286 835.898 114.967C837.848 117.506 839.893 118.602 842.504 115.556C843.148 114.801 844.375 114.502 845.332 113.987C840.737 118.909 842.478 123.69 844.993 128.977C848.379 136.115 850.92 143.618 854.097 151.669ZM837.63 155.794C838.448 159.18 839.449 162.525 840.363 165.886C840.929 166.152 841.834 166.766 841.99 166.625C844.654 164.276 847.221 161.819 849.336 158.699C848.753 158.815 848.17 158.948 847.587 159.064C850.859 153.204 847.909 148.199 844.976 143.327C844.445 142.456 842.373 142.431 841.016 142.016C835.585 145.626 836.385 150.697 837.63 155.794ZM821.703 178.593C821.303 179.672 820.885 180.818 820.45 181.963C820.772 182.262 821.085 182.561 821.407 182.859C823.618 181.266 825.672 179.398 828.065 178.12C835.75 173.987 838.196 168.409 834.384 160.508C833.026 157.686 832.391 154.549 831.216 150.839C826.185 154.54 821.816 157.736 817.491 160.989C816.995 161.363 816.429 162.151 816.499 162.658C817.247 167.505 818.039 172.36 819.075 177.157C819.205 177.772 820.781 178.112 821.703 178.593ZM809.815 191.118C812.617 189.093 815.411 187.076 818.213 185.051C817.865 184.627 817.5 184.196 817.151 183.772C814.497 185.964 811.851 188.163 809.197 190.363C809.406 190.612 809.606 190.861 809.815 191.118ZM806.647 190.221C809.649 187.615 812.669 185.134 815.489 182.453C816.142 181.83 816.568 180.428 816.316 179.598C814.976 175.182 813.383 170.825 811.869 166.451C801.86 169.895 799.754 179.722 806.647 190.221ZM790.502 197.716C791.956 198.613 794.558 198.978 796.116 198.372C802.33 195.973 803.522 193.068 801.285 187.059C799.997 183.598 798.5 180.22 796.838 176.178C793.278 178.253 790.406 179.855 787.63 181.59C786.873 182.063 786.151 182.859 785.855 183.665C784.358 187.673 786.69 195.359 790.502 197.716ZM775.489 209.054C778.527 207.361 781.66 205.8 784.523 203.866C785.141 203.451 785.15 201.617 784.828 200.621C783.792 197.467 782.295 194.446 781.312 191.276C780.05 187.242 777.482 186.785 773.714 187.914C766.307 190.147 764.836 192.62 767.178 199.584C767.682 201.094 768.326 202.58 768.753 204.115C769.623 207.211 771.921 208.265 775.489 209.054ZM755.881 219.528C759.719 217.968 763.461 216.615 767.003 214.872C767.752 214.507 768.352 212.44 767.952 211.635C765.794 207.327 763.339 203.161 760.92 198.978C759.719 196.919 758.257 196.413 755.785 197.666C745.376 202.937 744.184 207.278 751.137 216.756C752.025 217.968 753.992 218.458 755.881 219.528ZM740.137 229.164C741.956 228.517 743.679 227.604 745.411 226.749C746.638 226.143 747.795 225.413 749.571 224.4C746.49 219.171 743.653 214.333 740.772 209.519C740.441 208.963 739.597 208.083 739.379 208.174C735.785 209.759 732.104 211.237 728.822 213.295C727.9 213.859 727.7 216.325 728.048 217.719C728.744 220.4 729.954 222.981 731.155 225.529C732.774 228.957 736.525 230.459 740.137 229.164ZM716.916 239.232C717.587 239.39 718.292 239.415 719.936 239.622C722.408 238.344 725.646 236.834 728.64 234.991C729.258 234.609 729.519 232.708 729.092 231.937C726.908 227.936 724.419 224.085 722.086 220.159C720.815 218.026 719.301 217.852 717.334 219.329C715.489 220.723 713.566 222.018 711.686 223.371C711.251 223.687 710.72 223.977 710.459 224.4C708.831 227.04 713.827 238.493 716.916 239.232ZM707.874 247.441C709.388 246.785 710.824 246.005 712.591 245.142C709.719 239.199 707.064 233.68 704.027 227.38C700.92 229.032 697.795 230.575 694.845 232.393C694.375 232.692 694.453 234.335 694.775 235.182C695.942 238.17 697.325 241.075 698.622 244.013C700.58 248.478 703.218 249.474 707.874 247.441ZM690.737 256.056C695.889 255.956 698.631 252.412 696.847 248.993C694.819 245.1 692.408 241.374 689.858 237.78C689.345 237.049 687.178 236.668 686.22 237.074C680.032 239.664 679.649 240.676 682.356 246.636C683.444 249.051 684.584 251.566 686.316 253.558C687.517 254.952 689.745 255.533 690.737 256.056ZM678.431 266.198C685.75 260.737 686.455 263.086 680.737 254.454C679.023 251.873 677.369 249.25 675.715 246.636C674.462 244.644 672.878 244.295 670.824 245.548C669.179 246.553 667.36 247.325 665.829 248.453C664.871 249.167 664.305 250.354 663.313 251.657C665.567 256.355 667.317 261.019 669.954 265.169C672.208 268.705 674.915 268.821 678.431 266.198ZM656.916 276.914C664.227 277.071 668.057 271.61 665.298 266.539C663.244 262.762 661.225 258.961 658.875 255.359C658.352 254.554 656.229 253.898 655.324 254.255C651.999 255.6 648.779 257.243 645.759 259.11C644.863 259.666 643.975 261.783 644.384 262.447C646.995 266.663 649.806 270.797 652.93 274.681C653.983 276.001 656.142 276.499 656.916 276.914ZM653.287 281.321C648.84 276.997 644.506 272.921 640.328 268.697C636.934 265.269 633.775 266.107 630.528 268.78C629.702 269.46 628.831 270.108 627.63 271.046C631.216 275.577 634.375 280.275 638.274 284.342C641.877 288.102 647.178 286.973 653.287 281.321ZM631.555 413.953C632.974 407.57 633.035 400.897 632.487 394.075C632.069 392.996 632.025 393.07 631.782 394.066C632.46 401.163 632.321 407.695 630.433 413.886C629.562 415.347 630.903 415.696 631.555 413.953ZM622.634 419.331C629.075 405.786 630.267 391.701 627.378 377.159C620.154 390.655 622.93 405.138 622.634 419.331ZM608.205 461.362C616.272 451.833 620.25 440.297 624.262 429.532C620.128 433.491 615.611 437.707 611.268 442.081C610.189 443.168 609.319 444.704 608.979 446.173C607.848 450.978 607.004 455.842 606.046 460.681C606.769 460.905 607.482 461.137 608.205 461.362ZM616.064 434.404C616.42 432.86 615.837 432.918 614.923 433.507C613.252 435.79 611.198 437.815 608.814 439.616C607.743 441.168 608.344 441.359 610.024 440.678C612.46 438.861 614.462 436.761 616.064 434.404ZM590.415 481.472C592.626 479.522 594.828 477.563 597.047 475.612C596.734 475.272 596.429 474.915 596.116 474.575C595.019 475.554 593.949 476.575 592.8 477.505C591.651 478.434 590.415 479.273 589.214 480.152C589.606 480.592 590.015 481.032 590.415 481.472ZM328.57 512.763C333.104 522.623 338.796 532.002 343.514 541.796C351.581 558.57 359.371 575.46 367.038 592.408C368.953 596.641 372.252 599.065 376.064 601.422C383.061 605.738 389.815 610.411 396.742 614.818C405.298 620.279 413.583 626.247 422.661 630.77C427.621 633.252 433.931 633.949 439.684 634.14C449.284 634.455 458.979 634.248 468.509 633.202C473.444 632.654 478.596 630.571 482.8 627.948C492.008 622.213 500.581 615.573 509.58 609.514C514.001 606.543 519.023 604.36 523.305 601.239C526.621 598.832 530.215 595.977 531.956 592.524C538.483 579.593 544.123 566.255 550.441 553.216C556.751 540.185 563.757 527.453 569.91 514.365C572.957 507.891 574.775 500.886 577.465 493.241C575.332 493.407 574.166 493.192 573.392 493.607C569.51 495.715 565.628 497.856 561.956 500.271C560.842 501.01 560.145 502.587 559.693 503.915C557.334 510.854 555.594 518.016 552.739 524.764C549.832 531.62 545.707 538.003 542.46 544.75C539.571 550.751 537.221 556.984 534.514 563.076C532.347 567.957 530.05 572.787 527.674 577.576C527.447 578.041 526.299 578.132 525.559 578.307C525.054 578.423 524.288 578.157 524.036 578.423C518.527 583.843 513.078 589.304 507.621 594.774C507.543 594.857 507.569 595.031 507.421 595.977C509.484 594.566 511.085 593.479 512.669 592.408C510.929 597.712 485.855 610.236 476.473 609.821C488.091 607.663 499.205 601.928 504.897 596.475L511.39 588.64V587.719L511.068 582.017L508.283 583.112L500.024 587.42C494.201 588.665 484.601 595.579 475.298 602.036C474.767 602.808 474.253 603.223 474.21 603.688C473.461 610.344 468.466 611.158 462.939 611.075C452.199 610.934 441.468 610.726 430.729 610.469C429.693 610.452 428.413 610.543 427.848 609.83C427.552 609.473 427.456 608.883 427.691 607.97H427.717C427.726 607.987 427.743 608.012 427.752 608.029C427.743 608.012 427.743 607.987 427.735 607.97C428.213 607.987 428.692 607.995 429.171 608.012C437.5 608.244 445.855 608.527 454.184 608.593C455.045 608.601 456.42 607.323 456.699 606.402C457.708 603.049 460.241 601.82 464.828 600.866C462.913 603.937 461.538 606.161 460.154 608.394C465.628 609.863 467.508 605.979 469.623 602.451C469.632 602.451 469.641 602.443 469.649 602.443C469.11 604.202 468.588 605.962 468.057 607.738C468.031 607.821 468.004 607.904 467.978 607.987C470.389 608.203 471.512 607.705 472.478 604.875C472.852 603.771 473.209 602.31 473.601 600.401C472.191 601.131 471.146 601.663 470.154 602.177C469.989 602.268 469.815 602.351 469.649 602.443C469.649 602.426 469.658 602.418 469.658 602.401C469.649 602.418 469.641 602.434 469.623 602.451C469.623 602.459 469.615 602.459 469.615 602.459C468.892 601.331 468.161 600.193 467.369 598.949C470.032 597.255 472.774 595.454 475.576 593.753C477.648 592.5 478.735 591.055 478.135 588.499C477.36 585.179 478.631 583.61 482.626 583.154C495.541 581.676 498.979 575.999 496.185 563.516C491.634 566.272 487.578 569.061 483.192 571.293C477.839 574.032 477.282 578.639 476.986 583.552C476.586 590.234 471.251 593.081 464.523 592.939C460.92 592.856 457.317 593.653 453.705 593.653C446.682 593.637 439.658 593.354 432.643 593.164C428.309 593.039 423.818 589.503 422.713 585.403C422.443 584.374 422.234 583.328 422.008 582.282C421.503 579.884 421.877 576.24 420.372 575.302C414.732 571.808 411.024 565.21 403.209 565.11C400.824 575.933 402.87 581.021 415.742 583.112C419.632 583.743 421.956 584.258 421.32 588.773C421.111 590.292 422.478 592.491 423.827 593.628C426.29 595.695 429.266 597.197 432.025 598.932C432.017 599.007 432.008 599.073 432.008 599.148H431.999C431.973 599.447 431.947 599.737 431.912 600.036C429.641 599.928 427.352 599.82 425.01 599.704C425.028 599.77 425.054 599.82 425.071 599.886C425.89 602.426 426.803 605.198 427.717 607.97C427.708 607.97 427.708 607.97 427.7 607.97C426.49 606.062 425.289 604.153 424.062 602.219C418.901 603.862 417.5 602.517 416.133 594.143C415.071 594.84 414.149 595.438 413.409 595.919C411.938 595.18 410.615 594.516 409.301 593.852C409.092 594.151 408.883 594.442 408.675 594.732C405.28 589.669 402.878 588.134 398.91 588.798C399.745 589.678 400.319 590.798 401.19 591.097C403.949 592.026 403.801 593.753 403.783 596.127C403.757 600.65 407.465 603.107 411.077 605.057C414.401 606.85 418.118 607.987 422.156 609.614C415.246 610.967 388.857 598.011 385.994 591.919C387.987 593.296 389.58 594.409 391.172 595.512C391.416 595.263 391.66 595.006 391.903 594.757C388.048 591.288 384.166 587.86 380.372 584.332C378.892 582.955 377.656 581.361 376.307 579.859C376.029 579.56 375.872 579.021 375.55 578.929C367.317 576.738 368.561 568.563 365.124 563.4C361.695 558.246 360.537 551.772 357.796 546.136C354.488 539.314 350.172 532.94 347.021 526.076C344.306 520.15 342.226 513.891 340.615 507.6C339.571 503.525 337.839 500.554 333.949 498.562C330.45 496.777 327.091 494.719 323.679 492.785C323.209 493.092 322.748 493.391 322.278 493.698C324.34 500.047 325.776 506.687 328.57 512.763ZM547.578 516.755V527.412C552.008 524.441 551.869 522.805 547.578 516.755ZM516.847 578.116L517.926 577.975C518.109 579.261 518.292 580.556 518.457 581.685C521.747 580.05 524.218 576.63 523.522 573.941C523.226 572.812 522.295 571.833 521.66 570.795C520.554 571.634 519.406 572.422 518.379 573.343C518.057 573.642 518.1 574.315 517.996 574.771C513.07 574.92 512.661 575.734 511.895 586.432C515.698 584.806 515.95 584.391 516.847 578.116ZM513.261 572.339C508.022 574.588 503.583 576.091 499.649 578.39C498.091 579.303 497.656 581.992 496.525 584.249C501.521 585.436 504.593 585.196 506.777 581.419C508.544 578.373 510.876 575.634 513.261 572.339ZM499.258 568.596C499.623 569.376 501.172 570.04 502.182 570.048C504.401 570.09 506.647 569.824 508.823 569.401C514.715 568.264 516.786 563.616 514.793 555.358C513.348 556.586 512.4 557.565 511.277 558.287C509.301 559.541 508.483 562.064 504.636 560.902C500.772 559.757 497.482 564.894 499.258 568.596ZM513.975 571.501C521.808 569.758 525.341 565.915 524.227 560.744C520.903 564.238 517.787 567.509 513.975 571.501ZM522.086 555.839C528.231 552.27 533.139 547.365 529.571 539.903C528.692 541.14 527.9 541.92 527.526 542.841C525.907 546.759 523.653 550.087 519.745 552.37C518.77 552.942 518.561 554.719 517.996 555.93C519.371 555.93 521.077 556.428 522.086 555.839ZM526.299 561.45C526.246 562.769 526.934 562.819 527.996 562.23C529.902 558.395 531.808 554.561 533.722 550.735C533.496 548.029 533.052 547.896 532.391 550.145C530.354 553.922 528.326 557.682 526.299 561.45ZM540.067 524.872C537.369 529.504 534.662 534.143 531.764 539.09C538.709 538.418 541.503 532.848 540.067 524.872ZM536.281 551.581C537.299 549.34 538.187 547.373 539.379 544.742C533.313 546.402 532.8 547.572 536.281 551.581ZM496.333 583.353C490.763 584.623 486.081 585.586 481.494 586.847C480.763 587.047 480.459 588.632 479.963 589.578C481.529 590.3 483.27 591.836 484.636 591.578C487.134 591.105 489.432 589.578 491.79 588.474C492.661 588.067 493.783 587.802 494.306 587.13C495.219 585.959 495.742 584.507 496.333 583.353ZM473.653 580.556C473.644 579.12 473.131 576.746 472.286 576.489C470.781 576.033 467.865 576.315 467.273 577.269C465.037 580.913 461.712 580.033 458.509 579.933C453 579.784 453 579.751 452.904 585.212C452.835 589.362 455.803 591.246 461.851 590.715C464.201 590.516 466.647 590.317 468.814 589.545C470.311 589.014 471.903 587.727 472.565 586.383C473.418 584.648 473.653 582.515 473.653 580.556ZM446.29 580.647C445.245 579.485 442.295 579.875 440.215 579.56C437.038 579.734 433.531 581.187 431.338 577.361C430.824 576.472 428.17 576.149 426.769 576.514C426.02 576.705 425.472 578.929 425.489 580.224C425.637 588.208 429.632 591.304 438.762 590.698C439.867 590.624 440.972 590.433 442.069 590.25C446.168 589.561 449.014 583.702 446.29 580.647ZM367.63 539.297C364.654 534.558 361.947 530.267 359.249 525.993C357.9 532.716 360.789 538.401 367.63 539.297ZM360.224 545.199C361.042 547.033 361.86 548.867 362.678 550.701C363.044 550.768 363.409 550.818 363.766 550.884C364.271 549.763 365.524 548.178 365.141 547.63C364.21 546.294 362.521 545.448 361.138 544.402C360.824 544.667 360.528 544.933 360.224 545.199ZM367.36 551.017C366.995 551.141 366.621 551.274 366.255 551.399C367.83 554.835 369.414 558.263 370.99 561.699C371.668 561.45 372.339 561.201 373.017 560.952C371.129 557.64 369.249 554.328 367.36 551.017ZM380.511 581.685C380.816 579.303 381.494 577.087 381.259 574.97C380.99 572.555 379.771 570.364 376.481 570.58C375.541 577.51 375.585 577.634 380.511 581.685ZM382.6 577.991C383.218 581.013 382.643 584.764 387.508 586.374C387.065 583.079 386.864 580.324 386.246 577.659C386.037 576.73 384.784 576.024 384.018 575.219C383.514 576.149 382.426 577.195 382.6 577.991ZM378.675 556.553C379.388 556.669 380.772 556.395 380.859 556.071C381.042 555.324 380.885 554.254 380.398 553.656C379.649 552.743 378.335 552.253 377.587 551.332C375.698 549 373.957 546.56 372.234 544.12C371.503 543.082 370.946 541.928 369.893 540.086C367.378 546.859 372.504 555.565 378.675 556.553ZM374.88 560.62C374.097 565.923 376.908 568.853 384.993 571.152C381.808 567.841 378.631 564.529 374.88 560.62ZM397.752 570.115C400.955 569.633 401.033 566.903 400.476 565.226C399.945 563.624 397.265 561.184 396.22 561.466C391.686 562.686 389.728 559.599 387.064 557.549C386.238 556.901 385.341 556.32 383.896 555.299C383.818 556.86 383.775 557.64 383.74 558.404C383.383 567.185 388.544 571.484 397.752 570.115ZM397.082 577.527C393.653 576.232 390.563 574.132 387.395 572.439C388.657 579.552 395.054 585.262 401.068 584.515C402.295 579.27 402.147 579.444 397.082 577.527ZM401.886 599.779C402.33 599.463 402.765 599.156 403.209 598.841L391.773 583.195C389.963 591.155 393.374 596.068 401.886 599.779ZM418.988 588.092C417.891 587.329 416.42 587.055 415.089 586.64C411.399 585.486 407.708 584.349 403.705 583.112C402.896 585.304 403.653 586.831 406.246 587.852C408.814 588.856 411.12 590.483 413.731 591.329C415.071 591.761 416.925 591.346 418.326 590.79C418.892 590.566 419.327 588.316 418.988 588.092ZM352.417 523.619C352.295 521.569 351.834 519.544 351.512 517.502C351.172 517.369 350.833 517.228 350.494 517.087C349.867 519.627 349.031 522.142 348.77 524.714C348.701 525.287 350.624 526.051 351.625 526.723C351.912 525.686 352.478 524.64 352.417 523.619ZM291.808 461.943C293.844 453.883 289.806 443.608 284.645 439.425C281.225 436.653 278.648 432.943 275.689 429.664C279.536 440.637 282.817 452.082 291.808 461.943ZM290.424 439.325C288.1 437.093 285.776 434.86 283.453 432.627C283.165 432.943 282.878 433.242 282.6 433.549C284.784 435.839 286.96 438.13 289.145 440.404C289.562 440.039 289.997 439.682 290.424 439.325ZM271.512 376.437C268.527 392.282 270.798 406.466 276.716 420.518C278.997 404.532 276.951 385.808 271.512 376.437ZM266.786 391.941C264.793 399.411 267.012 407.479 270.502 416.318C269.118 407.246 267.865 399.071 266.786 391.941ZM263.148 329.676C264.68 336.556 266.838 343.313 268.431 350.185C271.451 363.207 276.864 375.192 284.628 386.289C294.34 400.175 296.638 415.795 296.29 432.096C296.125 440.296 297.125 448.53 296.925 456.73C296.551 472.077 315.568 488.942 330.45 489.515C342.991 489.996 350.024 497.25 355.985 506.363C357.9 509.293 359.841 512.207 361.773 515.128C361.999 515.46 362.495 515.792 362.46 516.099C361.625 525.154 368.979 531.081 372.138 538.6C373.183 541.098 376.716 542.933 379.501 544.435C388.466 549.282 397.613 553.822 406.655 558.528C416.438 563.608 426.194 568.754 435.985 573.825C436.803 574.248 437.891 574.514 438.814 574.414C443.374 573.958 447.073 575.053 449.162 579.958C452.086 576.049 455.071 573.509 459.849 574.373C460.711 574.53 461.816 574.124 462.643 573.7C472.199 568.762 481.686 563.707 491.268 558.835C501.216 553.772 511.286 548.942 521.198 543.837C523.313 542.758 525.62 541.264 526.76 539.355C530.163 533.703 533.896 528.001 535.776 521.843C537.056 517.668 538.004 513.393 540.502 509.849C544.14 504.703 548.126 499.732 552.513 495.159C555.985 491.54 560.781 490.071 566.081 489.731C574.192 489.216 581.738 487.075 587.369 480.908C591.103 476.816 595.637 473.197 598.466 468.607C603.731 460.092 604.123 450.265 603.426 440.728C601.938 420.493 603.914 401.138 616.107 383.733C622.365 374.802 627.004 365.174 629.519 354.658C631.686 345.603 633.957 336.565 636.151 327.51C636.89 324.455 636.212 321.874 633.74 319.525C629.649 315.616 625.872 311.433 621.99 307.399C613.139 315.433 603.618 314.454 593.975 311.939C588.892 310.611 583.688 309.316 578.997 307.125C575.907 305.681 573.67 302.627 570.972 300.369C569.658 299.273 568.318 297.97 566.742 297.456C563.409 296.377 562.382 294.053 561.903 291.131C561.721 290.019 561.677 288.426 560.929 287.928C556.873 285.222 552.626 282.79 548.44 280.275C545.689 277.337 542.887 274.44 540.224 271.436C539.371 270.473 538.396 269.211 538.361 268.049C538.109 260.887 537.674 253.732 541.024 246.885C542.635 243.606 543.322 239.904 544.384 236.377C544.697 235.364 544.749 234.269 545.063 233.256C546.586 228.251 547.169 223.471 552.922 219.86C558.474 216.383 562.034 209.959 566.342 204.73C567.961 202.754 569.04 200.372 570.659 198.372C571.86 196.895 573.348 195.492 574.993 194.521C577.717 192.927 580.641 191.616 583.566 190.371C586.864 188.968 586.943 186.644 584.654 184.851C580.198 181.349 575.324 178.303 570.554 175.157C569.554 174.501 568.178 174.377 567.151 173.746C554.854 166.393 542.391 159.736 528.631 154.698C519.066 151.195 509.571 147.27 499.762 144.257C462.574 132.844 425.733 134.961 389.214 147.228C383.949 148.996 378.579 150.54 373.461 152.64C359.101 158.533 344.923 164.749 331.93 173.198C326.908 176.469 321.233 178.859 316.394 182.337C311.39 185.939 311.625 188.221 317.352 190.678C324.706 193.84 330.389 198.015 334.079 205.136C336.377 209.577 340.415 213.212 343.722 217.163C344.593 218.2 345.481 219.586 346.655 219.96C353.749 222.267 353.487 228.476 355.063 233.729C356.655 239.05 358.796 244.27 359.832 249.69C360.99 255.766 361.999 262.073 361.416 268.132C361.12 271.245 357.308 274.1 354.95 276.98C353.966 278.2 352.643 279.171 351.477 280.25L351.46 280.258C347.378 282.699 343.183 285.006 339.292 287.695C338.379 288.326 338.266 290.235 338.109 291.588C337.674 295.215 335.742 296.8 332.73 295.646C330.685 298.078 329.014 301.033 326.473 302.909C314.871 311.483 301.608 314.811 287.082 312.877C284.793 312.57 282.426 311.001 280.668 309.432C279.058 307.988 277.891 307.731 276.49 309.142C272.104 313.599 267.491 317.923 263.627 322.762C262.382 324.331 262.652 327.46 263.148 329.676ZM261.677 284.367C265.585 280.325 268.779 275.66 272.608 270.846C269.989 269.228 267.857 267.8 265.602 266.597C264.897 266.223 263.601 266.124 262.965 266.497C256.412 270.415 251.529 275.909 247.03 281.943C253.627 287.056 258.187 287.969 261.677 284.367ZM243.261 276.972C244.01 276.532 246.281 275.818 247.508 274.332C250.424 270.788 253 266.962 255.333 263.044C255.855 262.181 255.272 259.824 254.41 259.276C251.303 257.284 247.926 255.633 244.488 254.189C243.67 253.84 241.651 254.429 241.207 255.16C238.422 259.749 235.75 264.439 233.383 269.245C231.886 272.266 237.056 276.864 243.261 276.972ZM218.483 264.057C226.394 269.817 228.936 269.162 232.817 260.413C233.2 259.567 233.635 258.729 233.966 257.857C237.534 248.644 237.439 250.039 228.692 245.44C227.813 244.976 225.62 245.216 225.159 245.855C221.86 250.437 218.857 255.201 215.768 259.915C215.559 260.247 215.472 260.646 215.185 261.426C216.212 262.264 217.317 263.202 218.483 264.057ZM209.954 255.956C210.955 255.209 213.27 254.097 214.584 252.313C216.316 249.964 217.212 247.084 218.518 244.461C219.893 241.722 219.258 239.913 216.377 238.311C211.338 235.514 211.364 235.315 208.414 239.954C206.551 242.884 204.723 245.864 203.235 248.976C201.486 252.628 204.358 256.247 209.954 255.956ZM193.357 247.93C196.821 249.018 199.649 248.262 201.138 244.685C202.469 241.481 204.079 238.369 205.185 235.099C205.515 234.111 204.549 232.725 204.114 231.538C204.044 231.339 203.67 231.248 203.435 231.107C196.133 226.724 196.194 226.749 192.826 234.128C191.172 237.747 189.258 241.241 187.282 245.175C189.406 246.154 191.294 247.283 193.357 247.93ZM171.164 234.833C174.41 236.751 177.83 238.402 181.399 240.253C183.296 239.033 185.402 238.435 185.985 237.182C187.622 233.713 188.701 229.994 189.815 226.318C190.015 225.629 189.571 224.392 188.979 223.911C186.786 222.118 184.532 220.325 182.034 218.997C181.19 218.541 178.901 219.047 178.379 219.794C175.637 223.77 173.166 227.936 170.798 232.127C170.407 232.8 170.624 234.518 171.164 234.833ZM166.003 228.251C169.519 225.488 170.528 219.835 172.661 215.47C168.936 212.598 165.202 209.734 161.024 206.506C157.178 213.021 153.931 218.524 150.346 224.608C155.898 226.832 160.711 232.41 166.003 228.251ZM132.878 214.698C136.386 216.474 140.111 217.868 143.261 219.188C145.272 218.673 147.204 218.698 147.534 218.018C149.78 213.42 151.747 208.68 153.609 203.916C153.757 203.534 152.556 202.472 151.799 201.999C150.067 200.887 148.239 199.932 146.447 198.928C141.068 195.907 140.929 195.899 137.891 200.92C135.82 204.364 133.836 207.867 132.121 211.477C131.712 212.316 132.182 214.357 132.878 214.698ZM125.411 208.282C128.083 208.348 130.424 207.112 131.399 203.925C131.825 202.522 132.617 201.177 132.791 199.758C133.139 197.119 134.358 193.151 133.061 192.047C130.224 189.632 126.072 188.553 122.339 187.233C121.79 187.043 120.241 188.379 119.771 189.3C118.483 191.798 117.526 194.446 116.447 197.036C113.853 203.244 117.578 208.274 125.411 208.282ZM99.8757 195.724C106.09 201.161 110.624 199.932 113.409 192.247C113.81 191.126 114.123 189.964 114.41 188.81C115.333 185.1 114.784 182.112 110.546 180.403C108.17 179.44 106.055 177.871 103.166 176.195C100.972 181.689 98.8139 186.412 97.3344 191.317C96.9862 192.487 98.605 194.612 99.8757 195.724ZM100.659 168.492C102.374 163.869 104.401 159.172 104.802 154.374C104.967 152.474 101.242 150.282 98.8139 147.718C96.8296 149.452 95.3936 150.258 94.6799 151.453C93.6616 153.154 93.2961 155.196 92.4431 157.014C89.2751 163.761 90.0759 166.202 97.169 169.563C97.9958 169.953 100.398 169.198 100.659 168.492ZM92.1124 188.337C93.1481 188.138 94.2795 187.134 94.8278 186.213C99.4231 178.585 96.9601 171.505 87.6738 167.264C86.3857 171.663 84.9932 175.904 83.9401 180.228C83.5223 181.963 90.3282 188.694 92.1124 188.337ZM64.1403 171.356C67.2734 174.186 71.1551 176.518 75.1498 178.153C77.6216 179.158 80.3369 177.813 81.2159 174.759C83.5136 166.766 84.384 161.537 75.0193 155.395C73.1046 154.142 71.3117 152.706 68.5441 150.689C67.1429 155.868 65.8461 160.276 64.793 164.733C64.2708 166.957 63.0872 170.401 64.1403 171.356ZM67.0037 142.223C68.7878 138.945 70.1194 135.409 71.3378 131.89C71.6251 131.043 71.0593 129.566 70.3718 128.836C68.9009 127.284 67.0906 126.014 64.8017 124.113C63.5485 125.956 62.3387 127.391 61.5206 129.01C60.5459 130.911 60.0236 133.027 59.0924 134.944C56.9427 139.418 57.961 142.356 62.9567 144.091C63.9836 144.448 66.4118 143.286 67.0037 142.223ZM51.8862 157.321C53.9053 159.794 56.116 162.126 58.257 164.517C64.5754 158.259 64.1055 148.208 58.3875 143.551C56.7252 142.198 55.3762 141.916 54.5319 144.008C53.1481 147.444 51.9122 150.946 50.8853 154.491C50.659 155.296 51.2682 156.557 51.8862 157.321ZM37.7783 142.671C39.4406 144.273 40.8853 146.074 42.4693 147.743C44.7495 150.158 47.8392 149.793 48.1263 146.664C48.9445 137.708 54.5929 130.711 57.9871 122.843C59.3622 119.631 57.169 117.88 56.1942 115.556C61.9557 117.996 62.0341 117.996 65.8983 112.692C67.7086 110.202 70.7722 107.596 70.7112 105.098C70.6503 102.89 67.082 100.732 65.002 98.5992C58.048 91.4696 56.7948 91.6771 51.3292 100.018C49.1794 103.297 48.431 106.534 49.7974 110.186C48.8922 109.605 47.9958 109.024 46.6903 108.194C45.2804 110.144 43.5746 111.813 42.7303 113.813C40.1368 119.971 37.8914 126.263 35.4632 132.496C33.9489 136.372 34.706 139.708 37.7783 142.671ZM32.1385 133.268C32.6869 130.072 33.4615 127.342 33.5572 124.578C33.7051 120.088 34.558 116.037 37.9349 112.601C43.827 106.617 39.0228 101.703 35.6459 95.8519C33.3222 99.8442 31.3379 103.372 29.2056 106.824C28.0568 108.692 26.3422 110.285 25.4545 112.244C24.8801 113.497 24.9496 115.34 25.4631 116.651C26.5162 119.357 28.0654 121.88 29.4058 124.478C29.1273 124.603 28.84 124.727 28.5702 124.852C27.0297 122.104 25.4806 119.365 23.7574 116.286C22.4693 120.22 27.0211 129.624 32.1385 133.268ZM27.8479 134.397C28.2482 134.189 28.6573 133.99 29.049 133.782C26.7948 129.815 24.5319 125.848 22.2778 121.889C21.7991 122.129 21.3204 122.378 20.8417 122.627C23.1829 126.545 25.5154 130.471 27.8479 134.397ZM16.4728 114.983C17.0037 114.975 17.5345 114.975 18.0654 114.967C23.7225 109.09 27.3083 102.093 30.8766 94.8808C33.7399 89.129 31.4597 85.1202 29.049 80.796C18.196 85.4688 15.8723 95.1298 13.8618 104.509C13.1743 107.704 15.5154 111.481 16.4728 114.983ZM14.619 87.7679C17.3083 81.211 25.0019 78.7957 25.4631 70.9191C14.8713 72.9194 10.8505 78.7874 14.619 87.7679ZM10.9549 96.7898C15.1238 91.0463 10.9462 85.6597 10.3457 80.1237C6.83826 85.834 9.82349 91.2704 10.9549 96.7898ZM7.36053 75.7662C12.8697 71.691 18.8401 67.9312 23.8792 63.2583C25.9593 61.3328 26.0289 57.4318 27.169 53.9293C14.7669 56.7512 6.33356 66.57 7.36053 75.7662ZM8.51801 60.3783C8.96191 54.4024 9.39703 48.4182 9.867 42.1269C6.24646 44.5919 4.94971 56.1785 8.51801 60.3783Z" fill="#C6B394" fill-opacity="0.2"/>
</svg>
