<svg width="553" height="700" viewBox="0 0 553 700" fill="none" xmlns="http://www.w3.org/2000/svg">
<path d="M940.102 59.3573C939.938 45.3954 936.729 32.1325 930.374 19.8772C923.964 7.52207 913.39 -0.17606 899.161 0.0690459C884.523 0.332307 870.239 3.95442 856.647 9.45568C839.354 16.4457 824.08 26.8037 809.805 38.7503C801.641 45.577 792.649 50.9784 781.538 51.2326C775.119 51.3778 768.646 51.7046 762.3 51.0147C752.135 49.9163 741.925 48.4093 734.142 40.6385C732.269 38.7685 730.36 36.9347 727.696 34.3294C726.832 33.1311 726.45 37.3886 726.705 40.0394C727.168 44.9688 727.896 49.8618 728.478 54.773C729.205 60.8461 731.123 66.4563 735.351 70.9953C740.997 77.0503 746.48 83.3323 752.662 88.7882C760.645 95.8145 770.737 98.9283 781.066 98.3654C794.44 97.6301 806.878 92.8279 818.206 85.4838C821.616 83.2688 825.089 81.0265 828.807 79.4197C836.217 76.2061 843.809 73.6824 852.128 75.9882C857.72 77.5315 861.329 85.8741 857.347 89.4145C849.864 96.0869 842.309 102.886 833.917 108.27C821.297 116.349 807.896 123.239 794.858 130.674C780.02 139.144 764.7 146.452 748.334 151.662C729.596 157.617 711.003 164.063 692.464 170.608C679.99 175.011 667.571 179.632 655.378 184.779C644.241 189.472 633.421 194.919 622.565 200.239C619.692 201.637 617.619 201.618 615.083 199.494C609.1 194.492 603.054 189.545 596.672 185.078C592.889 182.437 588.316 180.957 584.306 178.597C559.585 164.126 532.537 155.992 504.87 149.738C496.815 147.904 488.459 146.824 480.204 146.542C461.02 145.889 442.217 147.423 423.424 152.879C401.322 159.297 379.728 166.45 359.517 177.498C356.453 179.178 353.434 180.993 350.234 182.391C341.651 186.168 333.641 190.661 327.586 198.087C324.295 202.1 321.767 202.327 317.112 199.921C311.948 197.261 306.775 194.538 301.401 192.359C291.318 188.256 280.835 185.051 270.961 180.503C249.986 170.853 228.547 162.52 206.399 156.074C187.161 150.482 168.368 143.873 150.929 133.869C137.9 126.407 125.154 118.41 111.825 111.529C101.378 106.145 92.8771 98.5379 84.2216 90.976C81.8486 88.8971 80.2757 86.5187 81.4395 83.3232C82.6942 79.9008 84.1307 76.8506 88.4766 75.8157C97.0504 73.7459 104.869 76.1244 112.134 79.8282C123.517 85.629 134.009 92.9822 146.683 96.3683C158.094 99.4276 168.986 99.0191 179.351 93.7992C191.77 87.5536 200.871 77.4861 208.309 65.9117C209.391 64.2413 210.172 62.2169 210.518 60.2651C211.691 53.5384 212.764 46.7753 213.546 39.9849C213.8 37.779 213.155 33.6848 212.327 34.7651C210.782 35.9997 209.727 36.5807 209.027 37.4431C204.09 43.6615 197.68 47.3199 189.952 48.8814C167.977 53.3386 146.783 54.1829 128.654 37.4431C118.235 27.8114 106.097 20.4764 93.5772 13.913C78.5209 6.04236 62.1918 2.33854 45.4262 0.286918C32.8975 -1.24726 22.8509 3.44606 14.6863 12.5694C6.02173 22.2466 2.98492 34.5745 1.28473 46.6754C-0.479126 59.2666 -0.0700073 72.2481 0.430054 85.0299C0.911926 97.2125 1.77576 109.631 7.03998 120.897C11.2678 129.939 15.3864 139.461 21.6962 146.969C30.8336 157.844 41.9531 167.022 52.127 177.044C56.7821 181.638 60.637 187.203 65.7831 191.124C80.3939 202.254 94.9592 213.592 110.506 223.297C130.863 235.997 152.066 247.362 173.05 259.055C205.736 277.256 236.275 298.753 267.406 319.342C270.152 321.166 271.079 323.418 270.989 326.677C270.761 335.264 270.689 343.861 270.907 352.449C271.025 357.079 271.352 361.818 272.461 366.284C275.516 378.703 279.053 391.012 282.281 403.395C282.663 404.856 282.499 406.572 282.163 408.079C281.081 412.881 279.199 417.593 278.726 422.44C277.871 431.228 276.598 440.233 277.644 448.894C279.79 466.577 283.981 483.744 294.228 499.04C297.51 503.942 300.383 508.953 305.238 512.267C310.911 516.125 313.021 522.226 316.321 527.663C318.221 530.804 320.858 533.5 323.167 536.387C323.567 536.115 323.967 535.843 324.367 535.561C324.277 534.635 324.195 533.709 324.058 532.302C330.023 533.491 332.177 537.186 332.832 542.242C334.45 554.861 337.096 566.853 345.915 577.084C353.425 585.79 358.026 596.456 361.899 607.368C364.908 615.856 368.736 624.071 372.237 632.387C375.555 640.294 378.837 648.21 382.356 656.026C383.001 657.478 384.456 659.058 385.902 659.575C395.83 663.161 404.095 669.361 411.914 676.125C424.915 687.372 439.253 695.506 456.483 698.629C469.721 701.026 482.477 700.363 495.078 695.987C505.888 692.229 515.762 686.891 524.809 679.719C533.319 672.965 542.465 666.947 551.557 660.955C554.13 659.258 557.549 658.958 558.976 655.536C561.04 650.57 563.504 645.768 565.495 640.775C571.369 626.078 576.551 611.081 583.052 596.683C586.916 588.141 592.016 579.898 597.953 572.645C603 566.49 605.009 559.799 606.318 552.473C607.027 548.461 607.6 544.421 608.355 540.409C609.309 535.262 612.255 532.838 618.092 532.384C617.574 533.691 617.101 534.907 616.256 537.077C619.683 534.036 622.274 531.776 624.82 529.452C625.02 529.27 624.775 528.662 624.948 528.353C627.357 523.796 628.821 518.104 632.476 514.954C638.522 509.743 643.613 504.378 647.596 497.325C652.223 489.136 656.333 480.921 658.77 471.834C663.788 453.151 666.37 434.305 660.524 415.459C658.288 408.242 658.961 401.969 661.388 395.215C668.616 375.117 671.817 354.392 670.462 333.013C670.307 330.544 670.607 328.038 670.407 325.578C670.116 322.12 671.507 319.841 674.444 318.044C678.79 315.384 682.954 312.415 687.2 309.574C721.941 286.262 756.899 263.303 794.167 244.103C802.45 239.828 810.696 235.407 818.552 230.414C829.253 223.633 839.8 216.552 849.992 209.017C861.102 200.81 872.212 192.486 882.432 183.208C893.615 173.05 903.371 161.312 914.49 151.054C926.928 139.607 932.728 124.909 936.574 109.304C940.611 92.964 940.293 76.1244 940.102 59.3573ZM764.154 65.6847C765.4 63.1156 766.391 60.4376 767.491 57.8141C767.837 57.9049 768.182 57.9866 768.537 58.0683V71.4129C763.027 71.6852 761.963 70.2146 764.154 65.6847ZM755.644 53.2297C755.908 53.5202 756.172 53.8016 756.435 54.083C756.054 55.6354 755.654 57.1696 755.163 59.1122C753.644 58.6493 752.344 58.2498 751.044 57.8413C750.907 57.3783 750.753 56.9154 750.617 56.4524C752.289 55.3812 753.971 54.31 755.644 53.2297ZM742.197 70.7048C737.651 67.1826 739.324 63.7692 740.706 59.7023C745.834 63.1429 741.934 66.6742 742.197 70.7048ZM748.625 78.5028C745.116 75.4889 744.707 72.0121 746.962 66.2475C752.535 67.2189 752.344 70.9045 748.625 78.5028ZM751.117 65.9661C750.116 64.3048 749.116 62.6436 748.107 60.9642C749.335 60.6192 751.344 59.666 751.635 60.0473C752.662 61.3545 753.09 63.1156 753.735 64.7134C752.862 65.131 751.999 65.5485 751.117 65.9661ZM757.181 85.1842C752.317 84.3944 752.299 80.9539 753.035 77.4588C753.644 74.5085 753.49 70.4234 759.027 71.3766C758.372 76.2061 757.79 80.5817 757.181 85.1842ZM756.663 64.5954C757.126 63.6785 758.636 63.279 759.672 62.6526C759.972 64.6135 760.272 66.5743 760.627 68.9165C756.044 68.7894 755.463 66.9829 756.663 64.5954ZM769.764 88.6248C762.536 88.7065 761.454 87.717 761.427 81.3805C761.418 79.9281 761.409 78.4574 761.572 77.0231C761.791 75.1349 761.3 72.357 764.582 73.0379C766.327 73.401 770.146 72.5295 767.728 77.0866C766.964 78.5119 769.182 81.3805 769.701 83.6682C770.037 85.1661 769.764 86.791 769.764 88.6248ZM803.995 59.5752C803.804 55.481 803.614 51.3869 803.404 46.9841C807.196 48.8632 807.841 55.8896 803.995 59.5752ZM791.258 53.493C791.421 55.8805 791.758 58.1046 791.649 60.3105C791.621 61.0095 790.503 62.1171 789.785 62.1897C789.139 62.2623 788.039 61.3363 787.703 60.601C786.112 57.1696 787.148 54.782 791.258 53.493ZM781.556 57.0334C782.275 57.2876 782.984 57.5508 783.702 57.805C783.302 59.6115 782.893 61.409 782.493 63.2155C781.584 62.4802 779.911 61.7267 779.92 61.0095C779.956 59.6842 780.965 58.3588 781.556 57.0334ZM774.783 66.4563C775.492 67.8543 776.52 69.1979 776.783 70.6776C776.929 71.5309 775.838 72.584 775.301 73.5553C774.31 72.4296 773.319 71.2949 771.928 69.7063C773.183 68.2719 773.983 67.3641 774.783 66.4563ZM779.538 90.0772C778.238 89.1422 776.21 88.4614 775.792 87.2268C774.747 84.1221 774.337 80.7723 773.919 77.4861C773.828 76.7871 774.792 75.9519 775.265 75.1803C775.992 75.725 777.174 76.1244 777.365 76.8143C778.502 80.8177 779.411 84.8756 780.402 88.9153C780.12 89.3056 779.829 89.696 779.538 90.0772ZM781.175 73.7732C780.638 72.8835 780.829 71.5491 780.82 71.4401C780.82 69.5519 780.529 68.5352 780.893 67.8725C781.347 67.0101 782.32 66.4109 783.075 65.6938C783.62 66.4019 784.439 67.0373 784.657 67.8362C785.111 69.4793 785.475 71.2313 785.411 72.9108C785.375 73.9275 784.466 74.9079 783.948 75.9065C782.984 75.2075 781.72 74.6991 781.175 73.7732ZM786.275 88.0075C784.975 85.3022 783.602 82.6333 782.466 79.8645C782.311 79.4742 783.238 78.1125 783.711 78.0852C784.52 78.0398 785.93 78.521 786.102 79.0929C786.939 81.7527 787.439 84.5306 788.048 87.2631C787.457 87.5082 786.857 87.7533 786.275 88.0075ZM789.476 71.9304C786.875 67.0373 787.394 65.6756 792.312 65.1582C792.74 67.237 793.358 69.0617 793.412 70.9045C793.44 71.7942 792.467 72.7383 791.949 73.6643C791.103 73.1014 789.894 72.7292 789.476 71.9304ZM795.804 85.039C794.103 84.6305 792.285 83.0781 791.385 81.5258C790.557 80.1187 790.73 78.0217 790.812 76.2515C790.839 75.725 792.058 75.2529 792.921 74.6174C793.54 75.0623 794.24 75.3437 794.567 75.8611C795.813 77.8038 797.04 79.7647 798.086 81.8163C799.286 84.1766 797.567 85.4656 795.804 85.039ZM797.877 69.334C797.004 63.9508 796.249 58.5403 795.685 53.1117C795.604 52.3582 796.704 51.4777 797.258 50.6516L798.549 51.1236C799.622 56.6975 800.759 62.2714 801.659 67.8816C801.777 68.6532 800.895 69.8878 800.131 70.3871C799.74 70.6504 797.958 69.8424 797.877 69.334ZM806.205 81.6347C804.314 79.7828 802.413 77.9218 800.004 75.5797C804.796 73.7459 806.487 75.3346 806.205 81.6347ZM806.332 67.4095C805.477 65.6121 804.614 63.8237 803.759 62.0263C804.45 61.6813 805.141 61.3454 805.841 61.0005C806.678 62.7344 807.541 64.4501 808.241 66.2475C808.278 66.3656 806.996 67.0101 806.332 67.4095ZM814.697 40.6204C814.16 45.7313 813.633 50.7605 813.06 56.2436C807.85 51.1055 809.023 42.2272 814.697 40.6204ZM813.56 65.3397C812.996 63.27 812.442 61.2183 811.878 59.1576C812.478 59.0033 813.069 58.8308 813.678 58.6765C814.224 60.7463 814.778 62.807 815.324 64.8677C814.742 65.0311 814.151 65.1854 813.56 65.3397ZM199.253 59.8112C200.926 63.4606 201.972 66.5925 198.662 69.5156C197.753 66.3383 194.771 63.0339 199.253 59.8112ZM184.106 85.6563C183.751 85.3567 183.406 85.0571 183.051 84.7757C182.478 81.0719 181.869 77.3862 181.396 73.6733C181.287 72.9289 181.515 71.5763 181.906 71.4401C182.751 71.1587 184.506 71.2313 184.651 71.6035C185.751 74.6356 187.043 77.7312 187.243 80.8722C187.352 82.4063 185.224 84.0676 184.106 85.6563ZM191.716 78.3939C187.488 71.7216 187.788 68.6623 192.925 66.0841C195.607 71.4765 195.225 75.3618 191.716 78.3939ZM192.134 61.0095C191.061 62.6345 190.006 64.2776 188.934 65.9026C186.642 63.1519 185.215 60.9914 188.515 60.0382C189.543 59.7386 190.916 60.6555 192.134 61.0095ZM189.588 57.5962C188.079 58.1591 186.815 58.6311 185.17 59.2393C184.515 57.2331 184.069 55.8896 183.588 54.4371C187.043 52.5035 188.07 55.009 189.588 57.5962ZM180.687 62.6436C181.642 63.2427 183.06 63.6149 183.469 64.4682C184.615 66.883 183.833 68.5987 179.405 69.2342C179.914 66.5562 180.296 64.5953 180.687 62.6436ZM927.755 34.3475C923.955 36.3174 921.154 34.7106 914.617 26.7402C918.354 21.8108 921.909 23.9169 927.755 34.3475ZM879.804 39.3495C881.032 36.1177 884.896 36.5171 888.705 39.9486C888.151 41.9367 887.787 43.4981 887.278 45.0051C886.05 48.6998 885.132 52.5489 883.395 55.9894C881.559 59.6297 879.45 59.5117 873.994 56.4706C875.922 50.7151 877.668 44.9597 879.804 39.3495ZM869.421 54.3735C868.857 55.1361 867.712 55.472 866.839 56.0167C866.63 55.127 866.112 54.1738 866.266 53.3477C866.985 49.6348 867.921 45.9673 868.721 42.2726C869.821 37.2343 871.449 36.272 877.904 37.4976C876.631 40.7929 875.604 44.061 874.113 47.1021C872.849 49.6802 871.13 52.0496 869.421 54.3735ZM884.641 34.1115C886.541 31.025 888.342 27.9112 890.351 24.9518C890.833 24.2528 892.115 23.5266 892.869 23.6627C897.188 24.4707 901.452 25.5237 905.998 26.5586C899.152 34.1024 891.033 36.9983 884.641 34.1115ZM909.744 28.6647C912.917 26.8128 918.281 31.2338 918.927 36.0451C911.071 37.08 903.634 38.0695 896.197 39.0499C896.115 38.6505 896.051 38.2329 895.979 37.8335C900.543 34.756 904.989 31.4516 909.744 28.6647ZM897.079 65.1673C897.015 70.4416 895.124 70.9953 891.478 68.8257C893.06 67.7999 894.633 66.7741 897.079 65.1673ZM891.242 51.9043C890.078 55.7897 888.914 59.6842 887.414 64.6952C884.35 60.2651 885.332 56.9971 889.987 51.5594C890.405 51.6683 890.824 51.7954 891.242 51.9043ZM890.596 91.0032C893.378 93.3181 895.77 96.0687 898.306 98.665C901.17 101.588 899.079 109.186 895.088 110.04C894.369 110.194 893.088 109.513 892.615 108.841C890.46 105.755 887.932 102.741 886.614 99.2914C885.387 96.0687 883.714 94.2985 880.477 93.4089C878.313 92.8006 876.322 91.557 874.003 90.4858C878.34 83.759 885.468 86.7456 890.596 91.0032ZM892.26 86.1828C891.169 85.1025 889.869 84.0495 888.46 83.5229C885.114 82.2793 884.732 80.9448 887.36 78.3394C890.296 75.4526 892.824 74.0728 896.57 77.2864C899.588 79.8645 903.28 81.6438 906.535 83.9587C907.389 84.5669 907.798 85.8015 908.462 86.8455C907.025 89.8957 905.771 92.8279 904.171 95.5513C903.961 95.9144 901.543 95.5876 900.788 94.8886C897.815 92.1289 895.16 89.0424 892.26 86.1828ZM900.252 72.938C899.115 71.8486 899.279 69.3885 898.852 67.5639C900.516 67.5457 902.47 66.9647 903.807 67.6365C909.062 70.26 911.981 73.7187 911.935 77.7584C910.99 77.9854 909.398 78.9113 908.544 78.4665C905.607 76.9232 902.634 75.1984 900.252 72.938ZM911.19 66.2929C908.944 64.7134 907.307 63.3789 905.489 62.3622C904.061 61.5633 902.37 61.2456 900.861 60.5466C899.143 59.7568 896.342 59.0578 896.079 57.8504C895.479 55.1724 899.87 51.5049 902.325 51.9497C909.298 53.2297 912.608 58.0501 911.19 66.2929ZM909.317 47.0022V49.1991H897.179C896.979 45.9855 901.543 41.2195 905.607 41.1651C909.953 41.1106 914.372 41.4193 918.636 42.2363C920.154 42.5177 921.782 44.533 922.482 46.1398C923.436 48.3276 923.564 50.8785 924.037 53.266C924.364 53.2479 924.682 53.2297 925.018 53.2116C924.618 49.8164 924.209 46.4212 923.782 42.781C926.919 45.5588 927.891 50.5063 927.128 59.8022C920.063 56.8791 912.499 55.2995 909.317 47.0022ZM918.609 11.2622C913.335 8.95639 908.053 6.65058 902.78 4.34478C909.135 3.8818 914.208 6.77768 918.609 11.2622ZM915.081 21.0301C909.098 26.0412 906.844 26.1229 896.588 21.6565C901.643 15.6196 904.343 15.5289 915.081 21.0301ZM894.051 15.7558C891.678 20.8213 889.369 21.6293 880.75 20.2131C882.968 13.9856 886.259 12.9598 894.051 15.7558ZM886.541 23.5901C884.359 30.7889 879.777 34.8105 873.849 34.7197C876.631 23.227 879.413 20.785 886.541 23.5901ZM872.676 14.7118C873.603 14.3124 875.267 15.6287 876.595 16.1643C875.713 17.6622 875.131 20.0043 873.858 20.4854C871.34 21.4205 868.439 21.3297 865.693 21.6565C865.393 20.8939 865.084 20.1314 864.793 19.3598C867.403 17.7711 869.894 15.9101 872.676 14.7118ZM870.258 24.4525C873.803 24.8973 872.194 27.657 871.64 29.5453C870.321 34.1206 867.339 36.853 861.757 37.4522C862.175 33.8119 862.375 30.6618 862.948 27.5663C863.766 23.109 867.512 24.1075 870.258 24.4525ZM866.13 38.8411C864.784 44.9234 863.575 50.3429 862.375 55.7715C861.902 55.7262 861.42 55.6898 860.938 55.6535C860.866 54.546 860.693 53.4113 860.738 52.3038C860.847 49.1174 861.166 45.931 861.166 42.7446C861.175 39.64 862.775 38.7776 866.13 38.8411ZM820.979 53.8833C820.952 53.9015 820.925 53.9196 820.906 53.9287C823.225 55.2904 824.407 60.7644 822.534 62.1897C822.007 62.58 820.143 62.2805 819.843 61.7539C818.252 58.967 817.597 56.1165 820.906 53.9287C820.925 53.9106 820.943 53.8833 820.961 53.8652C820.125 52.7032 818.724 51.5957 818.588 50.352C818.233 47.211 818.424 43.9974 818.47 40.811C818.524 38.1149 820.043 37.0074 823.379 37.0891C822.207 42.79 825.852 48.7815 820.961 53.8561C820.97 53.8742 820.979 53.8743 820.979 53.8833ZM827.807 60.2651C826.216 53.1026 826.853 51.9951 833.153 50.5699C836.463 57.7505 835.344 59.8839 827.807 60.2651ZM826.743 49.7619C827.553 44.3968 828.016 39.2678 829.235 34.3294C829.598 32.886 832.126 31.9872 833.835 30.7072C837.154 40.4842 834.444 48.4547 826.743 49.7619ZM839.463 57.6325C838.899 55.3086 838.063 53.0028 837.881 50.6516C837.79 49.3897 838.863 48.0462 839.409 46.7299C839.981 46.857 840.536 46.9841 841.109 47.1021C841.345 50.0524 841.718 53.0118 841.709 55.9622C841.709 56.525 840.245 57.0788 839.463 57.6325ZM837.417 44.7872C839.172 39.1044 837.681 33.7211 840.009 28.9552C842.818 34.0933 841.582 43.0442 837.417 44.7872ZM841.045 25.787C840.481 25.3603 839.936 24.9336 839.372 24.4979C840.527 23.0273 841.691 21.5566 842.854 20.086C843.364 20.5036 843.873 20.9393 844.391 21.3569C843.273 22.8366 842.163 24.3073 841.045 25.787ZM849.555 53.9106C849.464 54.8547 848.146 55.6898 847.391 56.5704C846.664 55.8623 845.409 55.2269 845.291 54.428C844.909 51.868 844.573 49.19 844.973 46.6845C845.155 45.5225 847.055 44.6147 848.182 43.598C848.673 43.8885 849.164 44.188 849.664 44.4695C849.664 47.6195 849.828 50.7877 849.555 53.9106ZM849.482 38.3237C849.146 39.5855 847.31 40.4298 845.673 41.9004C845.673 37.1163 845.491 33.3852 845.8 29.6996C845.891 28.7373 847.528 27.9021 848.455 27.0125C849.137 27.9203 850.41 28.8463 850.401 29.754C850.392 32.6227 850.228 35.573 849.482 38.3237ZM846.937 22.6278C848.664 20.431 849.955 18.7969 851.237 17.1538C851.646 17.5079 852.065 17.8528 852.483 18.2159C852.174 20.7578 852.246 23.6446 846.937 22.6278ZM856.538 54.2283C856.52 54.8093 855.965 55.6717 855.474 55.8351C855.001 55.9985 853.738 55.4447 853.738 55.1815C853.656 50.8422 853.71 46.4939 853.81 42.1364C853.81 42.0002 854.556 41.8732 856.583 41.2014C856.583 46.0309 856.629 50.1341 856.538 54.2283ZM854.21 37.3432C852.801 32.196 854.419 26.8673 857.665 25.9595C859.793 32.3776 858.538 36.499 854.21 37.3432ZM855.91 21.6837C857.756 19.8137 859.602 17.9345 861.447 16.0554C861.793 16.4003 862.12 16.7271 862.466 17.063C861.111 19.3961 861.238 23.1453 855.91 21.6837ZM864.121 96.8676C867.866 96.1595 872.14 98.202 877.44 99.2914C873.194 103.113 869.994 106.236 866.512 108.978C865.639 109.668 863.62 109.658 862.484 109.159C859.493 107.834 856.72 106.073 852.81 103.903C857.174 101.034 860.384 97.5666 864.121 96.8676ZM845.855 111.274C844.436 111.801 843.027 112.327 841.6 112.854C841.409 112.527 841.227 112.2 841.027 111.864C842.973 110.839 845.718 108.442 846.737 109.032C850.764 111.356 857.02 110.721 858.311 116.957C859.32 117.638 861.038 118.165 861.22 119.018C862.32 124.165 865.193 127.833 869.439 130.783C872.321 132.789 871.094 134.868 868.967 136.811C866.712 138.862 864.248 142.112 861.548 138.39C858.183 133.742 855.456 128.513 853.274 123.203C852.792 122.023 855.692 119.445 857.038 117.511C851.337 121.305 845.937 120.97 840.254 115.94C842.327 114.443 844.2 113.09 846.064 111.728C845.991 111.565 845.918 111.42 845.855 111.274ZM845.755 158.589C850.273 154.83 854.838 151.127 859.647 147.214C862.029 152.443 864.021 156.419 865.621 160.559C866.057 161.675 865.839 163.863 865.039 164.535C860.929 167.957 856.529 171.053 851.346 174.929C849.119 169.6 847.109 164.889 845.2 160.141C845.046 159.742 845.382 158.897 845.755 158.589ZM842.336 155.121C839.172 149.166 836.254 143.075 833.235 136.938C834.653 135.195 835.326 133.897 836.39 133.143C838.981 131.3 841.654 129.476 844.509 128.105C845.573 127.587 847.619 127.851 848.573 128.586C853.947 132.735 855.447 139.144 857.547 145.117C857.783 145.807 856.902 147.296 856.129 147.877C852.756 150.382 849.292 152.797 845.718 154.994C844.846 155.539 842.582 155.584 842.336 155.121ZM843.818 125.726C835.217 134.714 831.017 134.922 821.707 126.997C826.771 119.662 837.381 118.927 843.818 125.726ZM826.052 137.991C826.834 138.608 827.898 139.08 828.362 139.888C831.517 145.589 834.553 151.354 837.617 157.109C837.754 157.363 838.045 157.799 837.981 157.863C835.59 160.114 833.362 162.619 830.662 164.408C829.635 165.089 826.453 164.644 826.062 163.836C823.116 157.745 820.416 151.517 818.188 145.135C817.806 144.019 820.015 141.994 821.016 140.378C814.569 144.609 810.76 139.779 806.487 136.402C810.105 128.659 819.497 132.081 826.052 137.991ZM806.441 172.551C802.35 166.387 798.84 159.842 794.503 152.47C799.34 150.627 803.295 148.839 807.432 147.713C808.541 147.405 810.796 148.766 811.524 149.974C813.669 153.551 815.351 157.427 817.151 161.212C817.761 162.529 818.233 163.927 818.661 165.307C819.288 167.304 823.607 168.72 819.288 171.498C810.923 176.881 809.596 177.317 806.441 172.551ZM812.251 199.34C810.305 201.201 808.751 203.307 806.696 204.578C798.668 209.516 798.613 209.416 795.831 200.429C795.531 199.458 795.204 198.496 794.894 197.524C791.903 188.138 792.112 187.92 800.841 183.68C803.986 182.146 806.105 183.108 807.278 185.75C809.096 189.799 810.369 194.102 812.251 199.34ZM821.852 172.878C822.652 172.714 824.152 173.114 824.434 173.685C826.916 178.715 829.189 183.844 831.499 188.9C830.598 190.253 830.244 191.351 829.507 191.769C826.498 193.503 823.425 196.244 820.288 196.353C815.588 196.535 817.47 191.033 815.651 188.446C815.088 187.647 814.997 186.54 814.66 185.587C812.196 178.388 814.397 174.412 821.852 172.878ZM806.414 145.78C803.777 147.023 801.531 148.031 799.331 149.12C792.94 152.316 792.803 152.289 789.121 145.816C795.485 139.598 799.44 139.516 806.414 145.78ZM780.293 149.683C783.011 148.549 787.457 152.007 788.321 155.52C790.212 157.418 792.558 159.052 793.912 161.276C796.84 166.078 799.195 171.234 801.922 176.173C803.241 178.542 803.041 179.949 800.45 181.338C791.212 186.313 790.203 186.077 785.293 176.736C784.011 174.303 782.657 171.906 781.375 169.464C780.102 167.04 778.874 164.598 777.438 161.775C780.102 160.096 782.62 158.507 785.148 156.918C783.32 157.282 781.42 157.418 779.711 158.062C775.992 159.46 773.519 158.843 770.319 154.849C773.71 153.069 776.883 151.109 780.293 149.683ZM764.445 184.261C762.827 181.338 760.927 178.542 759.463 175.546C758.827 174.239 758.363 171.489 758.854 171.207C762.854 168.938 767.082 167.059 771.31 165.198C771.655 165.052 772.655 165.788 772.983 166.323C776.71 172.56 780.365 178.824 784.011 185.096C784.302 185.587 784.439 186.177 784.757 186.967C784.511 187.448 784.311 188.138 783.884 188.646C783.52 189.064 782.911 189.254 782.402 189.536C770.846 195.845 770.855 195.836 764.445 184.261ZM767.5 226.256C764.827 227.609 762.354 229.352 758.79 231.539C756.399 224.44 754.244 218.186 752.189 211.886C751.262 209.062 752.317 207.092 755.163 206.085C756.263 205.704 757.317 205.195 758.39 204.741C764.718 202.054 765.209 202.236 767.028 208.754C768.155 212.793 769.046 216.915 770.055 220.991C770.664 223.469 769.828 225.067 767.5 226.256ZM774.61 197.361C777.501 195.436 780.72 193.893 783.993 192.713C785.084 192.323 787.621 193.121 787.984 194.011C789.885 198.677 791.312 203.543 793.003 208.608C791.858 210.152 791.185 211.622 790.048 212.458C787.957 214.01 785.421 214.99 783.366 216.579C780.029 219.166 777.92 218.558 776.629 214.627C775.219 210.351 773.556 206.13 772.546 201.755C772.237 200.466 773.41 198.151 774.61 197.361ZM769.782 162.202C762.236 169.264 756.463 169.909 750.489 164.263C754.844 162.256 758.617 159.86 762.718 158.952C764.655 158.516 767.228 160.931 769.782 162.202ZM759.709 155.902L760.336 157.372C756.581 159.578 752.944 162.048 748.462 162.538C748.244 162.029 748.025 161.512 747.807 161.004C751.771 159.306 755.744 157.599 759.709 155.902ZM748.807 172.641C747.307 173.459 745.825 174.257 744.352 175.056C744.452 175.256 744.652 175.683 744.67 175.683C749.58 173.685 752.117 176.318 754.108 180.321C756.181 184.479 758.645 188.446 760.536 192.668C762.382 196.834 761.39 198.75 757.281 200.484C747.916 204.433 747.916 204.433 744.889 194.574C743.398 189.744 742.034 184.888 740.361 180.113C739.952 178.951 738.661 178.025 737.633 177.153C735.824 175.646 733.915 174.266 731.769 172.623C742.497 167.122 744.479 165.679 748.807 172.641ZM660.497 240.545C661.061 240.418 661.634 240.327 662.197 240.164C670.726 237.631 670.862 237.576 674.617 245.946C678.117 253.744 681.245 261.715 684.609 269.576C685.891 272.599 685.545 274.769 682.245 276.23C679.727 277.338 677.181 278.6 675.026 280.288C671.371 283.166 668.853 282.167 667.307 278.336C663.106 267.942 659.124 257.448 655.06 246.99C655.451 246.863 655.851 246.745 656.233 246.618C655.833 243.305 657.269 241.289 660.497 240.545ZM677.845 238.793C676.363 235.325 677.335 233.355 680.809 232.157C682.991 231.403 685.054 230.278 687.164 229.324C687.627 228.943 688.1 228.562 688.564 228.19C688.882 229.161 689.146 230.151 689.5 231.104C693.383 241.253 697.41 251.339 701.011 261.578C701.402 262.695 699.829 265.219 698.501 266.127C691.492 270.929 691.01 270.711 687.791 262.931C684.463 254.888 681.254 246.8 677.845 238.793ZM731.242 181.002C736.997 186.957 738.188 194.91 740.743 202.245C741.752 205.132 740.488 207.283 737.379 208.254C734.651 209.108 731.987 210.188 729.296 211.168C729.141 210.932 728.978 210.687 728.823 210.451C729.25 209.825 729.678 209.199 730.087 208.599C724.341 207.583 718.158 192.468 720.85 185.814C719.913 184.733 718.895 183.726 718.058 182.564C713.176 175.819 713.603 174.539 721.486 171.97C723.35 171.362 724.541 170.653 725.432 173.785C726.205 176.536 729.069 178.769 731.242 181.002ZM730.323 168.811C734.024 167.549 737.724 166.287 741.425 165.025C741.561 165.415 741.716 165.806 741.852 166.187C738.224 167.685 734.587 169.174 730.951 170.672C730.751 170.054 730.532 169.437 730.323 168.811ZM720.522 209.135C719.849 213.529 716.167 213.529 713.621 214.591C712.621 214.999 710.021 214.019 709.666 213.102C707.393 207.165 705.484 201.101 703.666 195.019C703.457 194.311 704.348 192.804 705.12 192.386C706.884 191.415 708.848 190.652 710.821 190.298C711.812 190.117 713.676 190.743 713.976 191.469C716.349 197.379 718.449 203.407 720.522 209.135ZM704.593 190.652C699.683 190.934 699.929 185.505 700.384 183.326C700.874 180.957 704.584 179.25 707.057 177.108C711.03 179.586 711.73 183.208 711.776 186.086C711.839 190.216 707.284 190.507 704.593 190.652ZM704.148 215.199C703.338 218.939 698.165 223.469 694.792 222.725C693.919 222.534 692.846 221.336 692.619 220.401C691.01 213.928 689.373 207.456 688.2 200.901C687.555 197.243 691.301 197.751 693.31 196.816C695.147 195.963 697.383 195.073 698.392 197.942C700.402 203.661 702.238 209.435 704.148 215.199ZM694.856 227.064C696.201 226.102 697.465 224.885 698.965 224.177C705.293 221.227 705.666 221.29 707.975 227.799C711.003 236.287 713.64 244.92 716.567 253.436C717.658 256.613 715.112 257.139 713.385 258.192C711.221 259.5 708.803 260.053 707.366 257.303C705.502 253.717 703.857 249.977 702.338 246.219C699.874 240.164 697.574 234.045 694.856 227.064ZM712.512 223.061C711.357 220.228 712.439 218.858 715.103 217.795C723.204 214.555 723.804 214.673 726.632 222.924C728.696 228.952 730.387 235.107 732.287 241.189C733.733 245.792 731.76 248.588 727.578 250.276C726.523 250.694 725.495 251.211 724.059 251.865C720.077 241.907 716.331 232.474 712.512 223.061ZM730.041 216.479C729.66 215.48 730.241 214.119 730.387 212.921C731.123 213.329 731.887 214.128 732.578 214.064C734.415 213.919 736.269 213.492 738.061 212.993C742.161 211.84 744.525 212.775 745.898 216.724C747.18 220.419 748.125 224.223 749.098 228.017C749.562 229.833 749.744 231.721 750.062 233.573C750.817 238.775 745.961 238.983 743.298 240.781C740.47 242.687 739.415 239.401 738.688 237.749C735.588 230.759 732.778 223.623 730.041 216.479ZM742.17 155.085C742.425 155.457 742.679 155.847 742.934 156.219C742.016 157.009 741.225 158.18 740.161 158.534C725.786 163.246 711.385 167.83 696.974 172.433C696.783 172.496 696.492 172.251 696.256 172.151C696.119 171.77 695.983 171.389 695.856 171.007C711.294 165.706 726.732 160.395 742.17 155.085ZM693.074 184.77C697.419 193.421 696.756 194.864 687.946 196.353C683.482 189.055 684.563 186.458 693.074 184.77ZM667.925 192.649C667.78 192.195 667.634 191.751 667.498 191.297C670.98 189.853 674.462 188.401 677.935 186.957C678.154 187.357 678.372 187.765 678.59 188.165C677.199 189.245 675.799 190.316 674.408 191.397C680.045 190.162 679.627 190.253 680.781 196.035C682.118 202.699 684.291 209.189 686.073 215.762C686.336 216.742 686.491 217.75 686.673 218.758C687.982 226.229 685.982 229.252 678.417 230.55C677.308 230.741 675.153 229.56 674.771 228.526C671.935 220.982 667.816 213.728 668.962 205.132C669.171 203.543 668.343 201.727 667.716 200.121C666.461 196.871 667.225 194.483 670.353 192.894C669.553 192.804 668.734 192.722 667.925 192.649ZM658.67 195.291C658.815 199.767 663.343 204.414 658.042 208.618C658.033 208.618 658.033 208.627 658.024 208.627C658.006 208.636 657.997 208.654 657.979 208.663C660.697 208.4 661.906 209.952 662.525 212.34C664.198 218.803 665.861 225.257 667.652 231.694C668.271 233.936 667.734 235.27 665.498 236.078C662.234 237.249 659.024 238.584 655.187 240.091C652.187 231.512 649.541 223.333 649.659 214.536C649.669 213.511 651.16 212.258 652.251 211.559C654.051 210.388 656.078 209.589 658.015 208.627C655.378 209.235 652.733 209.852 650.087 210.469C648.405 201.773 650.087 197.542 658.67 195.291ZM652.023 255.505C655.46 264.429 658.242 273.616 661.443 282.639C663.025 287.079 661.843 290.174 657.633 292.253C656.369 292.879 655.242 293.778 653.524 294.895C650.887 290.692 647.914 287.024 646.123 282.848C642.468 274.351 639.44 265.582 636.167 256.912C635.076 254.044 636.285 252.419 638.858 250.994C648.059 245.919 648.259 245.756 652.023 255.505ZM598.035 275.404C599.381 274.696 600.799 274.079 602.072 273.262C605.091 271.292 607.555 271.528 610.209 274.188C619.62 283.593 625.948 294.659 629.384 307.477C630.248 310.69 629.812 313.078 627.011 315.093C624.675 316.764 622.556 318.761 619.865 321.012C613.164 304.354 604.518 289.62 587.78 280.297C593.271 276.221 598.39 272.409 603.518 268.605C603.845 269.041 604.154 269.467 604.482 269.912C602.209 271.501 599.945 273.098 597.672 274.678C597.781 274.914 597.899 275.159 598.035 275.404ZM607.564 252.936C607.5 254.298 605.527 255.587 604.436 256.912C605.318 256.495 606.118 256.413 607.036 256.268C607.8 262.187 605.854 266.226 600.599 269.177C595.862 271.837 591.644 275.395 586.389 279.117C586.998 273.144 587.252 268.16 591.544 264.52C588.789 261.297 591.725 258.374 593.135 256.695C596.808 252.328 597.099 247.281 597.744 242.215C598.59 235.724 601.136 232.883 607.7 232.175C607.709 239.138 607.882 246.046 607.564 252.936ZM589.025 236.56C593.062 225.176 598.099 219.366 604.318 219.911C601.508 227.999 597.808 234.562 589.025 236.56ZM592.089 238.021C592.507 238.275 592.935 238.529 593.344 238.784C592.244 242.733 591.544 246.854 589.943 250.594C587.016 257.403 583.425 263.921 580.406 270.702C579.506 272.754 578.924 275.395 579.388 277.501C580.961 284.746 576.242 287.206 570.669 289.902C569.259 286.833 567.841 284.283 566.895 281.559C565.795 278.373 565.932 275.64 568.205 272.327C570.796 268.541 572.341 263.603 572.905 258.991C573.76 251.974 575.869 246.391 582.706 243.259C585.952 241.77 588.971 239.782 592.089 238.021ZM573.442 290.437C575.624 288.558 578.16 287.088 580.297 285.626C596.335 296.474 610.855 308.149 611.973 327.993C622.329 330.108 631.803 332.042 641.277 333.984C641.204 334.502 641.14 335.019 641.068 335.528C633.694 337.997 626.43 338.233 619.329 334.438C618.456 333.975 617.401 333.485 616.465 333.54C608.373 333.994 604.081 328.592 599.381 323.254C593.644 316.745 587.225 310.854 581.261 304.545C578.106 301.204 575.196 297.618 572.46 293.923C571.996 293.288 572.642 291.118 573.442 290.437ZM625.293 320.921C629.157 315.175 632.821 314.276 639.049 317.826C642.45 319.768 646.023 321.448 649.414 323.409C650.723 324.171 651.76 325.406 653.105 326.577C649.85 329.781 647.105 331.152 642.85 328.846C637.194 325.778 631.103 323.499 625.293 320.921ZM639.549 308.675C642.531 306.324 645.059 304.227 647.714 302.33C648.214 301.966 649.532 302.057 650.005 302.475C654.124 306.106 658.424 309.61 662.115 313.65C666.389 318.334 665.325 320.812 658.997 321.793C657.524 322.02 655.542 321.802 654.442 320.958C649.523 317.181 644.859 313.114 639.549 308.675ZM643.677 204.369C646.586 211.168 644.277 214.073 633.549 216.733C633.83 207.782 635.622 205.649 643.677 204.369ZM634.567 218.231C637.194 216.815 640.158 215.998 643.259 214.845C647.332 223.814 647.841 232.701 647.014 241.734C646.923 242.696 645.504 243.822 644.441 244.358C641.513 245.819 638.449 247.008 635.621 248.234C634.458 239.129 633.258 230.586 632.376 222.008C632.267 220.8 633.449 218.839 634.567 218.231ZM637.213 275.931C639.767 282.367 641.977 288.967 644.95 295.194C646.641 298.735 646.259 300.804 642.986 302.711C641.122 303.8 639.431 305.18 637.14 306.796C635.694 303.891 634.53 301.304 633.158 298.835C627.621 288.749 621.993 278.727 616.474 268.641C615.801 267.407 615.61 265.918 615.183 264.556C615.01 263.739 614.455 262.368 614.701 262.205C618.601 259.645 622.602 257.248 626.575 254.815C626.793 255.151 627.011 255.469 627.22 255.805C625.457 257.348 623.684 258.891 621.92 260.435C628.548 257.72 628.775 257.593 632.276 263.893C634.367 267.661 635.612 271.9 637.213 275.931ZM626.311 207.51C629.521 215.735 627.366 220.283 618.938 222.725C621.511 217.414 623.847 212.585 626.311 207.51ZM615.719 228.48C617.338 225.956 621.465 224.994 624.547 223.542C624.875 223.387 626.266 224.558 626.52 225.33C629.012 232.683 630.839 240.1 629.003 247.971C628.284 251.066 626.83 253.118 623.966 254.552C620.402 256.331 617.038 258.537 613.419 260.653C611.828 252.473 612.71 250.994 618.365 248.152C615.783 249.296 617.065 248.733 614.037 250.059C612.392 242.433 611.519 234.998 615.719 228.48ZM604.9 228.743C608.191 224.204 608.782 217.859 614.328 214.3C614.583 220.482 610.382 226.973 604.9 228.743ZM335.46 228.408C330.159 227.79 325.686 221 325.022 213.184C331.605 216.17 331.359 223.524 335.46 228.408ZM214.137 174.702C214.973 173.994 215.237 172.632 216.037 171.035C218.764 172.133 221.656 173.068 224.265 174.502C225.029 174.92 225.611 177.153 225.174 177.952C223.647 180.712 221.637 183.208 219.655 186.032C221.965 192.586 215.791 207.701 210.072 208.227C210.554 209.026 211 209.761 211.436 210.497C211.273 210.751 211.109 211.005 210.945 211.259C207.618 209.952 204.063 209.017 201.062 207.174C199.88 206.439 199.126 203.47 199.553 201.9C202.362 191.778 205.781 181.919 214.137 174.702ZM209.372 170.526C205.727 169.11 202.081 167.694 198.435 166.269C198.607 165.869 198.789 165.47 198.962 165.07C202.644 166.323 206.318 167.576 210 168.82C209.782 169.392 209.572 169.964 209.372 170.526ZM240.785 184.924C237.412 192.35 239.839 192.668 231.266 189.336C229.92 188.818 228.62 188.228 226.993 187.538C227.247 186.44 227.329 185.859 227.52 185.323C231.284 175.32 229.693 176.763 239.467 180.957C240.367 181.347 241.24 183.953 240.785 184.924ZM245.804 196.408C248.768 197.688 253.432 197.27 252.832 202.862C251.159 208.736 249.541 214.618 247.795 220.464C247.059 222.952 245.495 223.333 243.049 222.298C235.494 219.075 235.257 218.985 237.212 210.951C238.139 207.156 239.494 203.434 240.894 199.767C241.694 197.679 242.494 194.991 245.804 196.408ZM228.702 190.062C230.957 190.371 233.202 191.324 235.221 192.422C236.039 192.867 236.876 194.592 236.621 195.418C234.793 201.364 232.648 207.21 230.729 213.129C229.902 215.662 228.42 215.762 226.374 214.772C224.792 214.01 223.101 213.447 221.646 212.503C220.746 211.913 220.192 210.787 219.755 210.243C221.574 203.616 223.028 197.688 224.911 191.905C225.229 190.943 227.493 189.899 228.702 190.062ZM203.854 211.777C202.572 211.232 201.308 210.651 200.044 210.079C200.144 209.825 200.235 209.571 200.335 209.317C203.135 210.361 206.036 211.187 208.645 212.576C209.554 213.057 210.472 215.208 210.118 216.107C206.999 224.023 203.672 231.857 200.153 239.592C199.799 240.354 197.353 240.935 196.38 240.49C189.906 237.549 189.261 236.224 190.788 229.134C191.607 225.312 192.725 221.536 193.934 217.814C195.653 212.557 197.744 211.622 203.144 213.329C204.599 213.783 206.099 214.128 207.581 214.518C207.699 214.146 207.836 213.792 207.963 213.42C206.59 212.875 205.217 212.349 203.854 211.777ZM207.627 245.038C210.2 235.879 212.873 226.755 215.782 217.705C216.055 216.833 218.01 216.361 219.274 216.007C219.865 215.835 220.646 216.334 221.346 216.552C229.338 219.121 229.384 219.139 226.247 226.928C222.956 235.116 219.574 243.25 215.964 252.065C213.327 250.549 210.991 249.387 208.909 247.889C208.145 247.344 207.399 245.828 207.627 245.038ZM223.365 252.927C226.138 244.993 228.747 237.004 231.42 229.043C231.602 228.498 231.784 227.945 232.011 227.409C234.266 221.944 240.567 221.145 244.295 225.884C244.767 226.492 244.786 227.445 244.995 228.19C242.494 234.553 240.14 240.781 237.594 246.945C236.103 250.549 234.53 254.153 232.63 257.548C230.884 260.671 228.365 258.991 226.193 257.911C224.22 256.903 222.337 255.868 223.365 252.927ZM250.941 230.532C251.05 230.278 251.368 229.86 251.477 229.896C254.959 231.049 258.587 231.957 261.815 233.618C262.806 234.127 263.497 237.05 262.979 238.321C258.951 248.27 254.605 258.083 250.359 267.942C249.486 269.994 248.204 270.493 246.268 269.186C244.349 267.879 242.24 266.826 240.421 265.4C239.521 264.71 239.058 263.449 237.903 261.697C242.222 251.339 246.577 240.926 250.941 230.532ZM255.769 267.397C259.533 258.256 263.597 249.251 267.343 240.118C268.534 237.204 269.916 236.814 272.625 238.194C274.662 239.238 277.007 239.673 279.244 240.272C282.654 241.198 284.654 243.087 284.099 246.899C283.945 248.043 283.981 249.278 283.599 250.349C280.253 259.436 277.153 268.641 273.307 277.519C270.834 283.22 269.997 283.066 264.451 279.843C262.678 278.818 260.851 277.901 259.105 276.848C253.432 273.452 253.296 273.38 255.769 267.397ZM277.789 285.208C281.744 273.353 285.872 261.56 289.9 249.732C290.891 246.818 292.491 246.173 295.146 247.807C297.001 248.951 298.992 249.886 300.883 250.966C306.52 254.234 306.202 254.116 303.874 259.972C299.428 271.156 295.382 282.503 291.155 293.778C290.809 294.686 290.373 295.557 289.627 297.237C285.581 294.259 281.79 291.654 278.253 288.74C277.562 288.168 277.444 286.262 277.789 285.208ZM312.039 255.197C312.239 254.906 312.439 254.625 312.648 254.343C317.276 257.058 321.904 259.763 326.522 262.477C326.368 262.84 326.204 263.213 326.049 263.585H323.349C323.485 265.264 324.295 267.261 323.686 268.596C318.412 279.889 312.784 291.009 307.456 302.284C304.838 307.849 304.52 308.067 299.455 304.299C298.528 303.61 297.646 302.811 296.646 302.23C293.764 300.568 293.837 298.626 295.055 295.684C298.183 288.113 300.665 280.279 303.756 272.69C305.674 268.006 308.111 263.521 310.62 259.118C311.102 258.265 312.948 258.201 314.175 257.775C313.475 256.921 312.757 256.05 312.039 255.197ZM335.369 269.885C335.732 269.386 336.096 268.895 336.46 268.405C341.533 272.281 346.606 276.158 352.016 280.297C335.851 289.757 326.904 304.191 320.376 321.066C316.958 318.234 313.839 315.883 311.066 313.178C310.293 312.415 310.166 310.491 310.439 309.256C313.53 295.412 320.331 283.629 330.505 273.725C332.768 271.528 334.978 271.355 337.569 272.917C339.406 274.024 341.315 275.041 343.788 275.277C340.978 273.489 338.178 271.691 335.369 269.885ZM290.5 302.266C290.836 301.939 291.991 302.048 292.464 302.384C295.128 304.29 297.701 306.333 300.71 308.639C295.4 313.078 290.764 317.199 285.845 320.976C283.545 322.737 277.38 321.666 275.707 319.505C275.262 318.915 275.207 317.317 275.662 316.854C280.517 311.889 285.49 307.05 290.5 302.266ZM305.111 316.282C310.002 314.158 312.666 318.098 315.039 320.749C309.211 323.372 303.265 325.587 297.792 328.656C293.473 331.089 290.518 329.99 286.418 325.878C293.073 322.419 298.928 318.969 305.111 316.282ZM328.086 328.765C329.259 308.53 343.533 296.61 359.644 285.753C359.426 285.717 359.762 285.69 359.99 285.835C370.127 291.872 370.909 294.958 361.235 302.502C351.434 310.137 344.124 319.805 335.66 328.538C333.296 330.989 329.277 332.033 325.859 333.24C321.794 334.665 317.603 336.091 313.366 336.572C308.675 337.098 303.865 336.544 299.11 336.454C299.074 335.8 299.037 335.137 299.01 334.484C308.184 331.579 317.494 329.309 328.086 328.765ZM362.308 285.272C361.19 284.137 360.399 281.931 360.608 280.361C361.272 275.35 360.144 271.056 357.671 266.662C354.471 260.97 351.734 254.979 349.279 248.915C347.997 245.774 347.743 242.206 346.988 238.629C358.235 240.254 366.381 248.833 367.154 259.191C367.545 264.52 369.536 269.15 372.637 273.625C373.964 275.54 373.655 279.054 373.119 281.641C372.537 284.401 370.809 286.924 369.273 290.229C366.727 288.477 364.199 287.188 362.308 285.272ZM335.769 220.219C341.06 218.658 341.06 218.658 351.061 235.951C342.46 234.426 341.324 231.984 335.769 220.219ZM341.951 240.472C342.76 247.889 345.188 254.371 348.861 260.653C349.398 261.569 348.743 263.194 348.643 264.474C353.143 268.078 353.016 273.216 353.734 279.199C346.879 274.242 340.469 270.194 334.86 265.246C333.032 263.639 333.268 259.681 332.45 256.295C334.041 256.549 335.005 256.704 335.96 256.858C332.805 254.779 332.141 251.811 332.305 248.207C332.55 242.905 332.368 237.576 332.368 232.275C339.651 232.347 341.433 235.697 341.951 240.472ZM313.83 207.392C316.348 212.557 318.821 217.632 321.431 222.988C312.866 220.201 309.839 213.955 313.83 207.392ZM314.366 223.524C322.813 224.25 326.513 227.282 326.995 235.234C327.495 243.486 327.113 251.802 327.113 260.789C321.585 257.611 316.685 254.87 311.884 251.956C311.157 251.52 310.539 250.313 310.502 249.423C310.102 240.536 310.502 231.757 314.366 223.524ZM296.237 204.414C304.274 205.195 306.456 207.728 306.593 216.76C295.228 213.647 294.055 212.203 296.237 204.414ZM296.164 214.673C299.783 215.998 303.192 216.833 306.12 218.503C307.311 219.166 307.911 221.617 307.984 223.288C308.075 225.258 307.129 227.246 306.911 229.261C306.393 234.099 306.002 238.965 305.611 243.822C305.502 245.184 305.593 246.573 305.593 248.797C301.156 246.809 297.564 245.374 294.164 243.568C293.218 243.078 292.355 241.516 292.309 240.409C291.936 231.812 293.455 223.487 296.164 214.673ZM279.708 207.791C279.699 207.782 279.68 207.764 279.671 207.755C276.616 204.932 278.962 201.854 279.444 198.913C279.508 198.496 281.135 197.996 281.999 198.078C288.736 198.713 292.246 201.827 291.155 210.905C287.299 209.843 283.481 208.808 279.68 207.755C282.708 209.108 285.836 210.279 288.691 211.913C289.936 212.612 291.582 214.509 291.373 215.526C289.718 223.569 287.654 231.53 285.518 240.336C280.481 238.321 276.144 236.787 272.034 234.78C271.207 234.381 270.689 232.075 270.979 230.895C272.661 224.304 274.534 217.759 276.617 211.277C277.044 209.925 278.653 208.944 279.708 207.791ZM261.569 189.563C261.933 188.791 262.542 187.339 262.642 187.339C265.897 188.483 269.097 189.772 272.316 191.043C272.225 191.415 272.143 191.805 272.061 192.177C271.325 192.359 270.598 192.54 269.861 192.731C274.289 196.29 275.244 203.307 272.68 204.378C272.68 206.829 273.152 208.872 272.589 210.56C270.625 216.488 268.27 222.289 266.133 228.162C265.115 230.977 263.579 231.512 260.778 230.323C250.986 226.193 251.014 226.292 253.696 215.989C255.605 208.672 257.26 201.292 259.205 193.984C259.615 192.422 260.76 191.034 261.569 189.563ZM248.495 184.933C252.232 184.661 255.069 187.793 255.841 191.66C254.505 193.294 252.705 196.517 251.923 196.29C249.232 195.491 244.604 196.38 244.613 191.969C244.622 189.418 244.358 185.242 248.495 184.933ZM244.404 171.007C244.204 171.489 244.004 171.97 243.795 172.442C229.293 169.746 199.944 159.351 197.935 155.076C213.427 160.395 228.911 165.706 244.404 171.007ZM207.827 172.533C207.536 173.014 207.363 173.749 206.936 173.931C197.98 177.916 197.98 187.012 195.462 194.465C192.225 204.006 188.734 205.558 180.715 199.376C179.487 198.423 178.787 195.128 179.451 193.666C182.169 187.738 185.206 181.901 188.843 176.509C189.788 175.111 193.307 175.438 195.716 174.956C194.571 174.384 193.08 173.64 191.616 172.923C194.462 165.733 198.908 167.167 207.827 172.533ZM186.352 218.267C185.397 221.717 183.769 225.04 181.987 228.162C181.469 229.07 179.133 229.724 178.014 229.343C175.869 228.607 173.886 227.209 172.059 225.793C170.968 224.94 170.322 223.533 169.35 222.207C171.104 216.216 172.668 210.678 174.368 205.168C175.059 202.953 176.596 202.308 178.796 203.361C189.37 208.427 189.87 205.513 186.352 218.267ZM180.151 155.756C184.206 157.472 188.27 159.197 192.952 161.176C189.497 162.692 182.869 160.15 179.678 156.837C179.833 156.474 179.996 156.11 180.151 155.756ZM181.733 160.613C184.16 161.775 186.597 162.937 189.143 164.145C184.797 169.764 184.006 169.991 178.76 167.449C176.523 166.36 174.314 165.243 172.114 164.117C171.732 163.927 171.395 163.645 170.795 163.246C175.75 157.745 175.75 157.754 181.733 160.613ZM170.932 165.815C173.014 166.405 174.914 167.603 176.923 168.466C182.878 171.035 183.088 171.534 179.951 177.017C176.978 182.201 173.968 187.357 170.922 192.486C170.459 193.276 169.695 193.884 168.868 194.801C164.431 192.604 160.23 190.625 156.184 188.365C155.73 188.11 155.748 186.077 156.221 185.242C159.758 178.896 163.376 172.587 167.222 166.423C167.668 165.688 169.786 165.497 170.932 165.815ZM164.804 211.631C164.676 212.049 164.522 212.467 164.367 212.866C161.803 219.357 161.612 219.42 155.548 215.807C153.675 214.691 151.638 213.756 149.975 212.394C148.802 211.432 148.111 209.87 147.156 208.518C148.838 203.416 150.256 198.859 151.857 194.374C152.702 192.023 154.248 191.397 156.639 192.704C170.568 200.302 169.731 195.4 164.804 211.631ZM161.54 150.446C164.231 151.826 166.867 153.287 169.541 154.722C167.358 158.525 164.431 159.533 160.903 158.235C159.067 157.554 157.075 157.336 155.148 156.909C157.566 158.434 159.985 159.96 163.149 161.948C158.921 169.074 154.939 176.082 150.575 182.845C149.911 183.88 147.111 184.643 145.965 184.098C134.436 178.733 135.746 181.039 141.219 171.253C143.683 166.841 146.038 162.356 148.656 158.044C149.329 156.937 150.82 156.31 151.939 155.466C153.202 150.718 157.566 148.421 161.54 150.446ZM145.301 197.524C144.447 200.584 143.265 203.552 142.137 206.53C141.901 207.147 141.255 207.61 140.528 208.463C137.173 206.602 133.855 204.841 130.645 202.917C129.872 202.454 128.809 201.246 128.963 200.674C130.463 195.173 132.027 189.672 134.027 184.334C134.327 183.553 137.337 182.891 138.446 183.453C148.72 188.564 148.184 187.23 145.301 197.524ZM152.029 146.297C149.447 148.194 147.065 149.937 144.683 151.69C144.756 152.261 145.065 152.979 144.838 153.378C141.21 159.832 137.555 166.26 133.791 172.641C131.791 176.046 129.109 176.563 125.781 174.266C123.544 172.714 121.117 171.452 118.78 170.063C121.826 163.582 124.381 157.454 127.572 151.671C128.872 149.329 131.563 147.75 133.618 145.825C139.728 139.589 143.638 139.525 152.029 146.297ZM74.6023 160.232C76.3298 156.147 78.2482 152.152 80.5394 147.169C85.2581 151.127 89.8677 154.939 94.3955 158.861C94.7955 159.215 94.9319 160.295 94.7137 160.858C92.9771 165.279 91.1315 169.664 88.9039 175.056C83.576 170.98 78.8483 167.476 74.3296 163.718C73.7932 163.282 74.1568 161.294 74.6023 160.232ZM72.1566 150.046C72.0475 150.31 71.9474 150.582 71.8383 150.854C68.6652 158.816 68.6653 158.825 61.5826 155.312C59.6915 153.324 59.2642 151.39 60.9189 148.821C62.3008 146.66 62.9009 144.01 64.0192 141.667C64.9375 139.752 66.1194 137.964 67.0923 136.275C68.1924 136.62 68.5198 136.629 68.7198 136.793C75.3115 142.139 75.3115 142.139 72.1566 150.046ZM82.4669 145.571C84.6853 139.135 86.3582 132.417 92.1771 127.987C92.6226 127.642 93.4136 127.088 93.6591 127.243C97.7686 129.83 101.842 132.499 105.851 135.231C106.17 135.44 106.024 136.33 106.097 136.892C106.342 137.029 106.588 137.165 106.833 137.292C103.897 143.229 101.005 149.184 97.9232 155.048C97.6777 155.511 96.0866 155.648 95.2956 155.384C94.0864 154.985 92.959 154.204 91.9407 153.396C88.7494 150.845 85.6218 148.195 82.4669 145.571ZM94.9774 175.492C95.9684 172.333 97.4232 169.319 98.5687 166.196C100.151 161.92 101.651 161.367 105.542 163.945C107.242 165.08 108.834 166.405 110.47 167.649C108.479 173.813 106.733 179.314 104.869 184.788C104.688 185.342 103.487 186.14 103.287 186.013C100.433 184.143 97.4504 182.346 94.9955 180.022C94.2227 179.278 94.5319 176.917 94.9774 175.492ZM115.416 174.312C115.843 173.495 118.162 172.986 119.262 173.359C121.426 174.076 123.599 175.229 125.281 176.754C126.354 177.734 127.299 179.868 126.981 181.166C125.926 185.514 124.181 189.699 122.899 194.002C122.135 196.535 120.862 197.397 118.444 196.135C115.998 194.864 113.461 193.712 111.179 192.195C110.161 191.533 109.643 190.108 108.67 188.691C110.961 183.68 112.989 178.887 115.416 174.312ZM134.091 136.057C130.191 138.617 127.618 143.084 121.981 142.185C122.481 150.682 118.425 157.572 113.898 164.19C113.352 164.98 110.916 165.261 109.815 164.762C101.023 160.822 100.905 159.996 105.951 151.78C107.843 148.712 109.07 145.226 110.852 142.067C111.716 140.533 113.17 139.325 114.352 137.973C118.535 131.718 128.154 130.529 134.091 136.057ZM118.516 126.698C110.916 134.832 104.788 134.605 96.223 125.663C102.96 118.782 111.743 119.281 118.516 126.698ZM99.3779 111.592C99.196 112.01 99.0142 112.436 98.8233 112.854C97.1686 112.246 95.5138 111.647 93.85 111.038C93.759 111.22 93.6772 111.401 93.5863 111.583C95.6047 112.827 97.6232 114.061 99.6416 115.296C96.5413 120.361 88.9676 121.632 84.1398 118.283C87.5129 121.151 87.4766 124.165 84.9763 127.696C83.3851 129.93 82.7214 132.825 81.094 135.004C79.6393 136.965 77.0299 139.988 75.6116 139.652C73.1476 139.053 70.3109 136.593 69.4017 134.242C68.8744 132.853 71.3475 128.985 73.2204 128.296C76.6117 127.052 76.8026 124.437 77.8027 122.005C78.3574 120.67 78.7845 119.29 79.3028 117.865H83.7034C81.6667 115.668 82.2123 113.952 84.7581 112.718C87.3765 111.447 89.9586 109.595 92.7044 109.259C94.8046 109.014 97.1503 110.748 99.3779 111.592ZM86.3309 103.667C78.1845 111.819 71.7928 110.648 64.0556 99.8724C74.6932 94.9975 77.4935 95.4514 86.3309 103.667ZM19.9778 43.1532C24.2965 41.1106 29.8427 41.3285 34.8796 41.2014C38.2345 41.1106 42.3258 45.3773 42.6986 48.146C38.6254 48.8541 34.3977 49.0538 30.5791 50.4337C27.206 51.6411 24.3329 54.2283 21.1599 56.062C18.6595 57.5054 16.0501 58.74 12.1224 60.7735C12.9316 54.0467 13.5771 48.6453 14.2136 43.2349C14.8591 43.2984 15.5046 43.3619 16.1411 43.4073C15.8137 46.6663 15.4865 49.9162 15.0591 54.0649C16.9139 49.6621 17.4594 44.3333 19.9778 43.1532ZM39.6892 60.5556C37.8163 61.418 35.7796 61.9718 33.934 62.8978C32.3519 63.6966 30.9518 64.8404 29.3152 65.9298C27.0422 58.4859 31.3792 51.75 38.3709 52.1131C40.4802 52.2311 42.3986 55.9259 44.3988 57.9775C42.835 58.849 41.3076 59.8112 39.6892 60.5556ZM47.7538 70.7502C46.0354 70.0058 44.317 69.2614 42.5986 68.508C42.8896 67.8543 43.1805 67.1917 43.4532 66.538C45.9263 65.5848 47.6174 66.3928 47.7538 70.7502ZM43.526 39.0136C36.1433 38.0241 28.7606 37.0437 21.1143 36.0179C21.3143 32.1779 23.9147 30.3714 26.6514 28.8553C29.2971 27.4029 31.0609 29.1458 33.143 30.7072C36.4525 33.2128 40.171 35.1645 43.726 37.3523C43.6533 37.9152 43.5988 38.4598 43.526 39.0136ZM28.4061 75.843C28.6697 72.6657 36.3706 65.9752 39.3437 66.5562C40.462 66.7741 41.3257 68.3446 42.3895 69.3704C41.4167 71.0135 41.0712 72.2662 40.2529 72.8835C37.5889 74.8625 34.7886 76.6963 31.9338 78.3939C31.2064 78.8387 29.7607 78.9749 29.1697 78.53C28.5605 78.0943 28.3242 76.7598 28.4061 75.843ZM33.4794 84.2038C35.9979 81.8708 38.9436 79.9916 41.7621 78.0035C42.3168 77.6132 43.1896 77.6949 43.8442 77.4135C49.8358 74.8444 51.1177 75.3255 54.1545 80.7451C49.0539 85.6744 44.1351 90.4585 39.1255 95.1609C38.5072 95.751 37.2616 96.2957 36.5615 96.0687C34.2158 95.3152 31.6519 85.8923 33.4794 84.2038ZM65.9831 56.3798C60.2915 60.1562 58.1276 59.784 55.5455 53.5384C53.809 49.3443 52.8543 44.7963 52.0088 40.3117C51.8633 39.531 54.0544 37.4613 55.0909 37.4976C56.9275 37.5884 59.8005 38.3872 60.3461 39.6854C62.5827 44.9688 64.092 50.5517 65.9831 56.3798ZM62.8646 37.2343C69.3381 36.5898 70.311 37.2797 71.4929 42.6902C72.293 46.3758 73.2657 50.0252 74.0295 53.7199C74.1749 54.4099 73.684 55.245 73.4931 56.0076C72.7385 55.7625 71.5656 55.7443 71.2838 55.236C68.4016 49.9344 65.6376 44.5512 62.9009 39.1588C62.6736 38.7049 62.8646 38.0423 62.8646 37.2343ZM54.4363 63.1792C53.8544 63.3607 53.2908 63.5423 52.718 63.7239C51.436 59.8385 50.1541 55.9531 48.8903 52.0768C49.5994 51.8862 50.3087 51.7046 51.0178 51.5049C51.4269 55.6081 57.0093 58.2226 54.4363 63.1792ZM40.9257 99.9268C45.6443 95.7328 50.1904 91.2665 55.3182 87.6443C59.0914 84.9754 63.0373 86.201 67.0651 91.1394C56.282 91.4208 53.6818 99.7271 49.2449 106.209C47.9811 108.043 45.899 109.323 44.1988 110.866C42.7805 108.006 41.2621 105.174 40.0165 102.233C39.771 101.679 40.3528 100.435 40.9257 99.9268ZM74.1205 39.5492C74.4387 39.1861 74.7477 38.8411 75.066 38.4871C76.348 39.4947 78.621 40.4116 78.7301 41.5282C79.1392 46.1852 78.9028 50.9058 78.9028 55.59C78.5664 55.6898 78.2391 55.7715 77.9027 55.8714C76.648 50.4246 75.3843 44.996 74.1205 39.5492ZM86.8583 53.8652C86.8219 54.6005 85.8036 55.2813 85.249 55.9803C84.7126 55.2723 83.7397 54.5823 83.7034 53.847C83.5579 49.8799 83.6306 45.9038 83.6306 41.9367C84.1761 41.7733 84.7217 41.6008 85.2581 41.4283C85.8127 42.2726 86.8037 43.0714 86.8492 43.9429C87.0401 47.2382 87.031 50.5699 86.8583 53.8652ZM159.73 88.888C161.412 79.9462 163.322 75.6886 165.767 75.4617C167.258 84.3672 164.649 90.1499 159.73 88.888ZM171.75 58.0592C172.104 57.9866 172.459 57.914 172.814 57.8322C174.232 61.4907 175.959 65.0674 176.832 68.8529C177.014 69.6609 174.086 71.1769 171.759 73.0379V58.0592H171.75ZM171.741 74.8716C171.932 73.9366 174.586 73.2739 176.205 73.0197C176.814 72.9199 178.251 74.2816 178.314 75.0623C178.587 78.3666 178.933 81.7709 178.423 85.0026C177.723 89.4055 173.905 88.4795 170.095 88.9697C170.641 83.6954 170.841 79.22 171.741 74.8716ZM165.395 66.3474C166.222 67.2733 167.04 68.1902 168.349 69.6518C166.931 71.2495 165.931 72.3933 164.931 73.5281C164.394 72.5295 163.322 71.4492 163.458 70.5414C163.685 69.0889 164.704 67.7454 165.395 66.3474ZM158.994 57.224C159.357 58.7945 159.876 60.3468 159.921 61.9173C159.921 62.2532 158.148 62.6254 157.194 62.9885C157.075 61.1911 156.957 59.4027 156.83 57.6053C157.557 57.4782 158.276 57.3511 158.994 57.224ZM155.384 69.4884C155.993 68.163 156.875 66.9647 157.639 65.721C158.457 67.0192 159.258 68.3082 159.721 69.0345C159.357 71.1133 159.448 72.4115 158.894 73.3193C158.266 74.3814 157.057 75.0986 156.094 75.961C155.648 74.7718 154.993 73.6189 154.821 72.3933C154.684 71.4765 154.975 70.378 155.384 69.4884ZM156.548 78.058C157.039 78.1125 157.894 79.4651 157.721 79.8554C156.53 82.597 155.102 85.2296 153.739 87.8985C153.23 87.6353 152.72 87.3811 152.211 87.1178C152.811 84.3672 153.293 81.5893 154.102 78.9022C154.266 78.3848 155.748 77.9672 156.548 78.058ZM148.484 53.1026C152.357 54.4462 154.066 59.1122 152.129 61.4998C151.766 61.9446 150.666 62.3803 150.32 62.1715C149.565 61.6995 148.647 60.8461 148.556 60.0745C148.338 57.8504 148.484 55.5809 148.484 53.1026ZM149.156 74.8807C144.338 72.2935 147.583 68.7077 147.838 65.485C152.384 65.1491 152.984 65.7392 151.675 69.443C151.02 71.3221 150.011 73.0833 149.156 74.8807C149.184 74.8898 149.202 74.9079 149.229 74.917C149.211 74.917 149.184 74.9079 149.165 74.9079C150.984 78.6117 149.747 81.7164 146.874 84.0858C145.956 84.8574 144.056 84.4489 142.601 84.5941C142.547 83.3232 141.937 81.5349 142.537 80.8994C144.592 78.7661 144.438 74.0274 149.156 74.9079C149.165 74.8988 149.156 74.8898 149.156 74.8807ZM141.755 50.933C142.301 50.8513 142.837 50.7787 143.374 50.706C143.81 51.7682 144.719 52.8757 144.619 53.8742C144.056 58.8853 143.301 63.8963 142.437 68.8711C142.319 69.5701 140.864 70.7321 140.546 70.5868C139.655 70.1874 138.301 69.0617 138.41 68.4353C139.364 62.58 140.592 56.7701 141.755 50.933ZM139.91 75.5797C137.91 77.7312 136.082 79.7283 133.491 82.5244C133.245 75.6523 135.427 73.5553 139.91 75.5797ZM136.055 45.8947V59.5026C132.8 56.4161 132.909 50.9693 136.055 45.8947ZM133.809 61.0822C134.582 61.3636 135.346 61.6541 136.119 61.9355C135.337 63.8056 134.573 65.7029 133.682 67.5185C133.636 67.6183 132.473 67.1644 131.827 66.9738C132.482 65.0038 133.145 63.043 133.809 61.0822ZM127.236 56.3344C126.599 50.7877 126.026 45.7858 125.435 40.7112C131.227 42.0002 132.418 50.2884 127.236 56.3344ZM119.326 53.8833C119.335 53.8743 119.353 53.8652 119.362 53.847C118.526 52.1585 117.198 50.5245 117.025 48.7724C116.662 44.9688 116.907 41.1015 116.907 37.2615C117.353 37.0255 117.789 36.7895 118.235 36.5444C119.389 37.661 121.617 38.9047 121.517 39.8851C120.999 44.5602 124.335 49.9072 119.371 53.847C119.389 53.8743 119.407 53.9015 119.417 53.9287C119.417 53.9287 119.407 53.9287 119.407 53.9378C122.453 55.9894 122.062 58.7219 120.562 61.3999C120.208 62.0263 118.207 62.5165 117.707 62.1261C115.825 60.6646 117.071 55.2813 119.407 53.9378C119.38 53.9196 119.353 53.9015 119.326 53.8833ZM105.606 31.261C111.643 32.4502 114.18 38.8593 112.634 49.3897C107.588 49.2626 105.779 47.6558 105.633 42.8899C105.524 39.0045 105.606 35.1191 105.606 31.261ZM106.77 50.706C113.143 51.4686 114.052 52.9574 112.498 60.0654C105.215 60.5738 103.897 58.4314 106.77 50.706ZM101.023 28.9007C101.469 33.9935 101.915 39.0862 102.387 44.3878C98.2414 43.2712 96.9321 33.7121 101.023 28.9007ZM98.4324 53.5565C98.5142 52.1222 98.4232 50.6334 98.7778 49.2717C98.9688 48.5092 99.8961 47.9282 100.496 47.2746C101.133 47.9463 102.305 48.609 102.324 49.299C102.378 51.4323 102.169 53.611 101.715 55.6989C101.533 56.5432 100.433 57.1786 99.7507 57.9049C99.2597 57.0334 98.6686 56.1891 98.3232 55.2632C98.1232 54.773 98.3778 54.1194 98.4324 53.5565ZM94.2319 56.1256C94.1955 56.3344 92.7499 56.6703 92.3499 56.3888C91.6134 55.8896 90.7405 54.9999 90.6951 54.2283C90.5132 50.9602 90.6133 47.6921 90.6133 44.4241C91.1224 44.1608 91.6225 43.8885 92.1226 43.6252C93.2227 44.6964 95.2137 45.7222 95.2592 46.8388C95.3774 49.9253 94.7228 53.0482 94.2319 56.1256ZM94.3773 29.1367C94.6592 32.9313 94.5046 36.7713 94.5046 40.5932C94.1318 40.811 93.7499 41.038 93.3772 41.2649C92.3225 40.0394 90.6859 38.95 90.3586 37.5702C89.7495 34.9467 89.7495 32.1325 89.8405 29.4091C89.8677 28.583 91.2042 27.067 91.677 27.1577C92.7135 27.3938 94.3228 28.3742 94.3773 29.1367ZM88.6585 17.2718C90.0677 18.7788 91.4861 20.2857 92.9044 21.7927C87.9402 23.6264 88.0129 20.7396 87.631 18.2522C87.9583 17.9254 88.3039 17.5986 88.6585 17.2718ZM82.6669 25.1515C87.4765 28.4741 85.4672 33.2491 87.0219 37.0255C81.8486 37.2525 80.4211 33.3217 82.6669 25.1515ZM79.0028 16.4094C80.7576 18.1615 82.5214 19.9044 84.7853 22.1558C79.7847 22.764 79.6393 22.6188 78.13 17.3535C78.421 17.0358 78.7119 16.7181 79.0028 16.4094ZM77.2208 27.2485C77.6208 29.3728 77.7482 31.5515 78.0209 33.9299C78.1664 36.7623 77.1027 37.6882 74.1114 36.3174C70.0291 34.4655 68.538 30.9614 68.1016 26.9762C68.0106 26.1864 69.9017 24.4616 70.9473 24.4071C73.3476 24.2528 76.5026 23.5175 77.2208 27.2485ZM64.4556 15.084C66.665 15.0568 69.1652 14.7209 71.0109 15.6287C72.7384 16.473 73.7749 18.7061 75.1024 20.3311C74.9114 20.7215 74.7296 21.13 74.5296 21.5203C72.4203 21.4023 70.1291 21.7654 68.2562 21.0483C66.5014 20.3856 65.0921 18.6608 63.7374 17.2083C63.4828 16.9178 64.1829 15.0931 64.4556 15.084ZM63.8192 27.9475C64.4829 29.9538 65.374 31.8965 66.1559 33.8664C60.9189 35.5186 55.7001 31.0794 53.7363 23.5719C59.6279 21.3024 61.9372 22.3283 63.8192 27.9475ZM59.1642 19.9317C51.827 21.9198 49.2994 21.13 46.1081 16.0281C52.7543 12.7782 57.3458 14.0582 59.1642 19.9317ZM47.681 23.69C48.381 23.5629 49.554 24.4797 50.0449 25.2151C51.9542 28.0928 53.6726 31.1067 55.7728 34.5745C46.1535 37.7881 40.8802 31.2247 34.4614 27.766V26.4315C38.8619 25.4783 43.2441 24.4525 47.681 23.69ZM43.2441 21.1027C36.9889 26.3498 31.0428 26.3044 25.0603 20.8032C31.261 18.3975 37.298 13.6769 43.2441 21.1027ZM36.9616 2.62904C37.1889 3.1374 37.4071 3.64577 37.6344 4.15414C32.6247 6.36917 27.6332 8.58419 22.6235 10.7901C22.3962 10.2636 22.1599 9.72802 21.9235 9.2015C26.9423 7.0137 31.9519 4.81683 36.9616 2.62904ZM20.3779 24.7339C21.478 24.0349 23.8965 25.3694 25.824 26.4769C20.6415 29.1731 19.0687 36.4808 11.3587 36.272C13.268 31.1067 16.2683 27.3393 20.3779 24.7339ZM10.3676 45.5407C9.81299 52.5852 9.27667 59.3483 8.74933 66.0932C5.05798 60.7735 6.50354 47.0658 10.3676 45.5407ZM13.6953 67.9451C17.7775 64.7769 21.7871 61.5179 27.1423 59.902C28.3151 65.1491 26.524 68.9709 21.9235 72.0121C17.0229 75.262 12.5042 79.0838 8.00372 82.5244C6.31262 77.2228 8.17645 72.2299 13.6953 67.9451ZM11.6496 105.292C9.96759 99.473 6.85822 93.7447 10.9223 87.6171C11.3314 93.5269 15.3773 99.246 11.6496 105.292ZM15.8319 83.4231C18.6868 80.6089 20.5234 76.6146 26.2786 78.5391C27.3969 86.3371 17.4321 88.2253 15.3773 94.9612C12.8588 90.7581 12.0769 87.1269 15.8319 83.4231ZM21.3325 123.185C20.7051 124.319 19.987 125.418 18.7596 126.244C15.7319 121.215 12.6861 116.794 14.6954 111.292C17.4594 103.749 19.2869 95.6421 26.2059 90.3496C27.3151 89.4963 28.3788 88.5794 29.9153 87.3266C32.9702 93.1093 35.7342 97.8389 31.9974 103.821C28.0878 110.058 24.8602 116.712 21.3325 123.185ZM32.2884 151.572C28.6061 145.698 23.9056 140.387 22.96 133.025C26.4332 139.035 29.9062 145.054 33.3794 151.063C33.0157 151.227 32.6429 151.399 32.2884 151.572ZM33.9612 146.47C33.4066 146.633 32.8612 146.806 32.3066 146.96C29.3972 141.277 26.1604 135.721 23.7692 129.821C23.1418 128.268 24.8238 125.518 25.9149 123.584C29.288 117.638 32.8975 111.828 36.4343 105.982C36.5616 105.782 36.9252 105.737 37.1889 105.619C43.7442 116.086 44.8353 115.051 38.4345 125.009C36.7434 127.633 35.9342 130.992 35.3433 134.124C34.5522 138.172 34.3885 142.348 33.9612 146.47ZM47.1265 169.491C43.2169 164.771 39.2983 160.05 35.3887 155.33C35.6433 155.103 35.9069 154.876 36.1615 154.658L48.3356 168.42C47.9356 168.774 47.5356 169.137 47.1265 169.491ZM47.9539 165.887C44.3716 161.575 39.5073 157.463 37.1616 152.243C35.6705 148.93 37.4344 143.81 38.58 139.725C39.9711 134.759 42.1622 130.011 44.1897 125.236C44.9807 123.393 46.0081 121.505 47.4174 120.144C48.1629 119.417 49.954 119.753 51.2633 119.599C50.2541 112.799 53.9272 107.888 58.2732 103.494C59.1369 102.623 62.0735 102.514 63.11 103.304C66.7741 106.091 70.1745 109.286 73.3294 112.645C74.0386 113.399 73.875 115.741 73.2295 116.839C71.3838 119.953 69.1017 122.812 66.9651 125.745C64.9285 128.523 62.7919 129.721 60.0643 126.389C59.3915 125.563 58.1096 125.236 57.1094 124.673C61.91 130.057 60.0915 135.286 57.4639 141.068C53.9271 148.875 51.2724 157.082 47.9539 165.887ZM65.1558 170.399C64.3011 174.103 63.2555 177.761 62.3008 181.438C61.7098 181.729 60.7643 182.4 60.6007 182.246C57.8185 179.677 55.1364 176.99 52.9271 173.577C53.5362 173.704 54.1454 173.849 54.7546 173.976C51.336 167.567 54.4181 162.093 57.4821 156.764C58.0367 155.811 60.2006 155.784 61.619 155.33C67.2924 159.279 66.456 164.825 65.1558 170.399ZM81.7941 195.336C82.2123 196.517 82.6487 197.769 83.1033 199.022C82.7668 199.349 82.4395 199.676 82.1031 200.003C79.7938 198.26 77.6481 196.217 75.1478 194.819C67.1196 190.298 64.5648 184.198 68.5471 175.556C69.9654 172.469 70.6291 169.038 71.8565 164.98C77.1116 169.028 81.6758 172.523 86.1945 176.082C86.7128 176.491 87.3038 177.353 87.2311 177.907C86.4492 183.208 85.6217 188.519 84.5398 193.766C84.4034 194.438 82.7578 194.81 81.7941 195.336ZM94.2137 209.035C91.2861 206.82 88.3676 204.614 85.4399 202.399C85.8036 201.936 86.1854 201.464 86.5491 201.001C89.3221 203.398 92.0861 205.803 94.8592 208.209C94.641 208.481 94.4319 208.754 94.2137 209.035ZM97.5231 208.055C94.3864 205.204 91.2315 202.49 88.2857 199.558C87.6038 198.877 87.1583 197.343 87.4219 196.435C88.8221 191.605 90.4859 186.839 92.0679 182.055C102.524 185.823 104.724 196.571 97.5231 208.055ZM114.389 216.252C112.87 217.233 110.152 217.632 108.524 216.969C102.033 214.346 100.787 211.168 103.124 204.596C104.469 200.81 106.033 197.116 107.77 192.695C111.488 194.964 114.489 196.716 117.389 198.614C118.18 199.131 118.935 200.003 119.244 200.883C120.808 205.268 118.371 213.674 114.389 216.252ZM130.072 228.653C126.899 226.801 123.626 225.094 120.635 222.979C119.989 222.525 119.98 220.519 120.317 219.429C121.399 215.98 122.962 212.675 123.99 209.208C125.308 204.796 127.99 204.296 131.927 205.531C139.664 207.973 141.201 210.678 138.755 218.295C138.228 219.947 137.555 221.572 137.11 223.251C136.2 226.637 133.8 227.79 130.072 228.653ZM150.557 240.109C146.547 238.402 142.637 236.923 138.937 235.016C138.155 234.617 137.528 232.356 137.946 231.476C140.201 226.764 142.765 222.207 145.292 217.632C146.547 215.381 148.074 214.827 150.657 216.198C161.531 221.962 162.776 226.71 155.512 237.077C154.584 238.402 152.529 238.938 150.557 240.109ZM167.004 250.649C165.104 249.941 163.303 248.942 161.494 248.007C160.212 247.344 159.003 246.545 157.148 245.438C160.367 239.719 163.331 234.426 166.34 229.161C166.686 228.553 167.568 227.591 167.795 227.69C171.55 229.424 175.396 231.04 178.823 233.292C179.787 233.909 179.996 236.605 179.633 238.13C178.905 241.062 177.641 243.886 176.387 246.672C174.696 250.422 170.777 252.065 167.004 250.649ZM191.261 261.66C190.561 261.833 189.825 261.86 188.106 262.087C185.524 260.689 182.142 259.037 179.014 257.021C178.369 256.604 178.096 254.525 178.542 253.681C180.824 249.305 183.424 245.093 185.861 240.799C187.188 238.466 188.77 238.275 190.825 239.891C192.752 241.416 194.762 242.832 196.725 244.312C197.18 244.657 197.735 244.975 198.007 245.438C199.708 248.325 194.489 260.852 191.261 261.66ZM200.708 270.638C199.126 269.921 197.626 269.068 195.78 268.124C198.78 261.624 201.553 255.587 204.726 248.697C207.972 250.503 211.236 252.192 214.318 254.18C214.809 254.507 214.728 256.304 214.391 257.23C213.173 260.498 211.727 263.676 210.372 266.889C208.327 271.773 205.572 272.862 200.708 270.638ZM218.61 280.061C213.227 279.952 210.363 276.076 212.227 272.336C214.346 268.078 216.864 264.002 219.528 260.072C220.064 259.273 222.328 258.855 223.329 259.3C229.793 262.132 230.193 263.24 227.365 269.758C226.229 272.399 225.038 275.15 223.229 277.329C221.974 278.854 219.646 279.489 218.61 280.061ZM231.466 291.155C223.82 285.181 223.083 287.75 229.056 278.309C230.848 275.486 232.575 272.617 234.303 269.758C235.612 267.579 237.267 267.198 239.412 268.569C241.131 269.667 243.031 270.511 244.631 271.746C245.631 272.527 246.222 273.825 247.259 275.25C244.904 280.388 243.076 285.49 240.321 290.029C237.967 293.896 235.139 294.023 231.466 291.155ZM253.941 302.874C246.304 303.047 242.303 297.073 245.186 291.527C247.331 287.396 249.441 283.239 251.895 279.299C252.441 278.418 254.659 277.701 255.605 278.091C259.078 279.562 262.442 281.359 265.597 283.402C266.534 284.01 267.461 286.325 267.034 287.051C264.306 291.663 261.369 296.184 258.105 300.432C257.005 301.876 254.75 302.42 253.941 302.874ZM257.733 307.695C262.379 302.965 266.906 298.508 271.27 293.887C274.816 290.138 278.117 291.055 281.508 293.978C282.372 294.722 283.281 295.43 284.536 296.456C280.79 301.413 277.489 306.551 273.416 310.999C269.652 315.111 264.115 313.877 257.733 307.695ZM280.435 452.761C278.953 445.78 278.889 438.481 279.462 431.019C279.899 429.839 279.944 429.921 280.199 431.01C279.49 438.772 279.635 445.916 281.608 452.688C282.517 454.286 281.117 454.667 280.435 452.761ZM289.754 458.643C283.026 443.828 281.781 428.423 284.799 412.518C292.346 427.279 289.445 443.12 289.754 458.643ZM304.829 504.614C296.401 494.193 292.246 481.574 288.054 469.8C292.373 474.13 297.092 478.742 301.628 483.526C302.756 484.715 303.665 486.395 304.02 488.002C305.202 493.258 306.084 498.577 307.084 503.87C306.329 504.115 305.583 504.369 304.829 504.614ZM296.619 475.129C296.246 473.44 296.855 473.504 297.81 474.148C299.555 476.645 301.701 478.86 304.192 480.83C305.311 482.527 304.683 482.736 302.929 481.992C300.383 480.004 298.292 477.707 296.619 475.129ZM323.413 526.61C321.103 524.477 318.803 522.334 316.485 520.201C316.812 519.829 317.13 519.439 317.458 519.066C318.603 520.138 319.721 521.254 320.922 522.271C322.122 523.288 323.413 524.204 324.667 525.167C324.258 525.648 323.831 526.129 323.413 526.61ZM596.953 560.834C592.216 571.619 586.27 581.877 581.343 592.589C572.914 610.936 564.777 629.409 556.767 647.946C554.767 652.576 551.321 655.227 547.339 657.805C540.029 662.526 532.973 667.637 525.736 672.457C516.799 678.43 508.143 684.957 498.66 689.905C493.478 692.619 486.886 693.382 480.876 693.591C470.848 693.936 460.72 693.709 450.764 692.565C445.609 691.966 440.226 689.687 435.835 686.818C426.216 680.546 417.26 673.283 407.859 666.656C403.24 663.406 397.994 661.019 393.521 657.605C390.057 654.973 386.302 651.85 384.483 648.074C377.664 633.93 371.773 619.342 365.172 605.08C358.581 590.828 351.261 576.902 344.833 562.586C341.651 555.505 339.751 547.844 336.942 539.483C339.169 539.664 340.387 539.428 341.197 539.882C345.252 542.188 349.307 544.53 353.143 547.172C354.307 547.98 355.035 549.705 355.507 551.157C357.971 558.746 359.79 566.581 362.772 573.961C365.809 581.459 370.118 588.44 373.509 595.821C376.528 602.384 378.983 609.202 381.81 615.865C384.074 621.203 386.475 626.486 388.957 631.724C389.193 632.232 390.393 632.332 391.166 632.523C391.693 632.65 392.493 632.36 392.757 632.65C398.512 638.578 404.204 644.551 409.905 650.534C409.986 650.624 409.959 650.815 410.114 651.85C407.959 650.307 406.286 649.118 404.631 647.946C406.45 653.747 432.644 667.446 442.445 666.992C430.307 664.632 418.696 658.359 412.75 652.395L405.968 643.825V642.817L406.304 636.581L409.214 637.779L417.842 642.491C423.924 643.852 433.953 651.414 443.672 658.477C444.227 659.321 444.763 659.775 444.809 660.283C445.59 667.564 450.809 668.454 456.583 668.363C467.802 668.209 479.013 667.982 490.232 667.7C491.314 667.682 492.65 667.782 493.241 667.001C493.551 666.611 493.651 665.966 493.405 664.968H493.378C493.369 664.986 493.351 665.013 493.341 665.031C493.351 665.013 493.351 664.986 493.36 664.968C492.86 664.986 492.36 664.995 491.859 665.013C483.158 665.267 474.43 665.576 465.729 665.649C464.829 665.658 463.393 664.26 463.102 663.252C462.047 659.584 459.401 658.241 454.61 657.197C456.61 660.556 458.046 662.989 459.492 665.431C453.773 667.038 451.809 662.789 449.6 658.931C449.591 658.931 449.582 658.922 449.573 658.922C450.136 660.846 450.682 662.771 451.237 664.714C451.264 664.804 451.291 664.895 451.318 664.986C448.8 665.222 447.627 664.677 446.618 661.582C446.227 660.374 445.854 658.777 445.445 656.689C446.918 657.487 448.009 658.068 449.045 658.631C449.218 658.731 449.4 658.822 449.573 658.922C449.573 658.904 449.564 658.895 449.564 658.876C449.573 658.895 449.582 658.913 449.6 658.931C449.6 658.94 449.609 658.94 449.609 658.94C450.364 657.705 451.128 656.462 451.955 655.1C449.173 653.248 446.309 651.278 443.381 649.417C441.217 648.046 440.081 646.467 440.708 643.671C441.517 640.04 440.19 638.324 436.017 637.825C422.524 636.209 418.933 629.999 421.851 616.346C426.606 619.36 430.843 622.41 435.426 624.852C441.017 627.848 441.599 632.886 441.908 638.26C442.327 645.568 447.9 648.682 454.928 648.528C458.692 648.437 462.456 649.308 466.229 649.308C473.566 649.29 480.904 648.981 488.232 648.773C492.76 648.636 497.451 644.769 498.606 640.285C498.888 639.159 499.106 638.015 499.342 636.871C499.87 634.248 499.479 630.263 501.051 629.237C506.943 625.415 510.816 618.198 518.981 618.089C521.472 629.927 519.335 635.491 505.888 637.779C501.824 638.469 499.397 639.032 500.06 643.97C500.279 645.632 498.851 648.037 497.442 649.281C494.869 651.541 491.759 653.185 488.877 655.082C488.886 655.164 488.895 655.236 488.895 655.318H488.905C488.932 655.645 488.959 655.962 488.996 656.289C491.368 656.171 493.76 656.053 496.205 655.926C496.187 655.999 496.16 656.053 496.142 656.126C495.287 658.904 494.333 661.936 493.378 664.968C493.387 664.968 493.387 664.968 493.396 664.968C494.66 662.88 495.914 660.792 497.196 658.677C502.588 660.474 504.052 659.003 505.479 649.844C506.588 650.606 507.552 651.26 508.325 651.786C509.862 650.979 511.244 650.252 512.616 649.526C512.835 649.853 513.053 650.171 513.271 650.488C516.817 644.951 519.326 643.271 523.472 643.998C522.599 644.96 521.999 646.185 521.09 646.512C518.208 647.529 518.363 649.417 518.381 652.013C518.408 656.961 514.535 659.648 510.762 661.781C507.289 663.742 503.406 664.986 499.188 666.765C506.407 668.245 533.973 654.074 536.965 647.411C534.883 648.918 533.219 650.134 531.555 651.342C531.3 651.069 531.046 650.788 530.791 650.516C534.819 646.721 538.874 642.972 542.838 639.114C544.384 637.607 545.675 635.864 547.084 634.221C547.375 633.894 547.539 633.304 547.875 633.204C556.476 630.807 555.176 621.865 558.767 616.219C562.349 610.581 563.559 603.501 566.423 597.337C569.878 589.875 574.387 582.903 577.678 575.395C580.515 568.914 582.688 562.069 584.37 555.188C585.461 550.73 587.27 547.48 591.335 545.302C594.99 543.35 598.499 541.099 602.063 538.983C602.554 539.319 603.036 539.646 603.527 539.982C601.372 546.927 599.872 554.189 596.953 560.834ZM368.163 565.201V576.857C363.536 573.607 363.681 571.819 368.163 565.201ZM400.267 632.314L399.14 632.16C398.949 633.567 398.758 634.983 398.585 636.218C395.148 634.429 392.566 630.689 393.294 627.748C393.603 626.513 394.576 625.442 395.239 624.307C396.394 625.224 397.594 626.087 398.667 627.094C399.003 627.421 398.958 628.157 399.067 628.656C404.213 628.819 404.64 629.709 405.44 641.41C401.467 639.631 401.204 639.177 400.267 632.314ZM404.013 625.996C409.486 628.456 414.123 630.099 418.233 632.614C419.86 633.612 420.315 636.554 421.497 639.023C416.278 640.321 413.069 640.058 410.786 635.927C408.941 632.596 406.504 629.6 404.013 625.996ZM418.642 621.902C418.26 622.755 416.642 623.481 415.587 623.49C413.269 623.536 410.923 623.245 408.65 622.782C402.495 621.539 400.331 616.455 402.413 607.422C403.922 608.766 404.913 609.837 406.086 610.627C408.15 611.998 409.004 614.757 413.023 613.486C417.06 612.234 420.497 617.853 418.642 621.902ZM403.267 625.079C395.085 623.173 391.393 618.97 392.557 613.314C396.03 617.136 399.285 620.713 403.267 625.079ZM394.794 607.949C388.375 604.045 383.247 598.68 386.975 590.519C387.893 591.872 388.72 592.725 389.111 593.733C390.802 598.018 393.157 601.658 397.239 604.154C398.258 604.781 398.476 606.723 399.067 608.049C397.63 608.049 395.848 608.593 394.794 607.949ZM390.393 614.086C390.448 615.529 389.729 615.583 388.62 614.939C386.629 610.745 384.638 606.551 382.638 602.366C382.874 599.406 383.338 599.261 384.029 601.721C386.156 605.852 388.275 609.964 390.393 614.086ZM376.01 574.079C378.828 579.144 381.656 584.219 384.683 589.63C377.428 588.894 374.51 582.803 376.01 574.079ZM379.965 603.292C378.901 600.841 377.974 598.689 376.728 595.812C383.065 597.627 383.602 598.907 379.965 603.292ZM421.697 638.042C427.516 639.431 432.407 640.484 437.199 641.864C437.962 642.082 438.281 643.816 438.799 644.851C437.162 645.641 435.344 647.32 433.916 647.039C431.307 646.521 428.907 644.851 426.443 643.644C425.534 643.199 424.361 642.908 423.815 642.173C422.861 640.893 422.315 639.304 421.697 638.042ZM445.39 634.983C445.4 633.413 445.936 630.816 446.818 630.535C448.391 630.036 451.437 630.344 452.055 631.388C454.392 635.374 457.865 634.411 461.21 634.302C466.966 634.139 466.966 634.103 467.066 640.076C467.138 644.615 464.038 646.676 457.719 646.095C455.264 645.877 452.709 645.659 450.446 644.815C448.882 644.234 447.218 642.826 446.527 641.356C445.636 639.459 445.39 637.126 445.39 634.983ZM473.976 635.083C475.067 633.812 478.149 634.239 480.322 633.894C483.64 634.084 487.304 635.673 489.596 631.488C490.132 630.517 492.905 630.163 494.369 630.562C495.151 630.771 495.724 633.204 495.705 634.62C495.551 643.353 491.378 646.739 481.84 646.076C480.685 645.995 479.531 645.786 478.385 645.586C474.103 644.833 471.13 638.424 473.976 635.083ZM556.149 589.857C559.258 584.673 562.086 579.98 564.904 575.304C566.314 582.658 563.295 588.876 556.149 589.857ZM563.886 596.311C563.031 598.317 562.177 600.323 561.322 602.33C560.94 602.402 560.558 602.457 560.186 602.529C559.658 601.304 558.349 599.57 558.749 598.971C559.722 597.509 561.486 596.583 562.931 595.439C563.259 595.73 563.568 596.02 563.886 596.311ZM556.431 602.675C556.812 602.811 557.203 602.956 557.585 603.092C555.94 606.85 554.285 610.6 552.639 614.358C551.93 614.086 551.23 613.813 550.521 613.541C552.494 609.919 554.458 606.297 556.431 602.675ZM542.693 636.218C542.374 633.612 541.665 631.189 541.911 628.874C542.193 626.232 543.465 623.835 546.902 624.071C547.884 631.652 547.839 631.788 542.693 636.218ZM540.511 632.178C539.865 635.482 540.465 639.586 535.383 641.347C535.846 637.743 536.055 634.729 536.701 631.815C536.919 630.798 538.228 630.027 539.029 629.146C539.556 630.163 540.692 631.307 540.511 632.178ZM544.611 608.73C543.865 608.857 542.42 608.557 542.329 608.203C542.138 607.386 542.302 606.215 542.811 605.561C543.593 604.563 544.966 604.027 545.747 603.02C547.72 600.469 549.539 597.8 551.339 595.131C552.103 593.996 552.685 592.734 553.785 590.719C556.412 598.127 551.057 607.649 544.611 608.73ZM548.575 613.178C549.393 618.979 546.457 622.183 538.01 624.698C541.338 621.076 544.656 617.454 548.575 613.178ZM524.681 623.563C521.336 623.036 521.254 620.05 521.836 618.216C522.39 616.464 525.191 613.795 526.282 614.104C531.019 615.438 533.064 612.061 535.846 609.819C536.71 609.111 537.647 608.475 539.156 607.359C539.238 609.065 539.283 609.919 539.319 610.754C539.692 620.358 534.301 625.061 524.681 623.563ZM525.382 631.67C528.964 630.254 532.191 627.957 535.501 626.105C534.183 633.885 527.5 640.13 521.217 639.313C519.935 633.576 520.09 633.767 525.382 631.67ZM520.363 656.008C519.899 655.663 519.444 655.327 518.981 654.982L530.928 637.87C532.819 646.576 529.255 651.95 520.363 656.008ZM502.497 643.226C503.643 642.391 505.179 642.091 506.57 641.637C510.425 640.375 514.28 639.132 518.463 637.779C519.308 640.176 518.517 641.846 515.808 642.963C513.126 644.061 510.716 645.84 507.989 646.766C506.588 647.238 504.652 646.784 503.188 646.176C502.597 645.931 502.142 643.471 502.497 643.226ZM572.041 572.708C572.169 570.466 572.651 568.251 572.987 566.018C573.342 565.872 573.696 565.718 574.051 565.564C574.705 568.342 575.578 571.092 575.851 573.906C575.924 574.533 573.914 575.368 572.869 576.103C572.569 574.969 571.978 573.825 572.041 572.708ZM635.358 505.25C633.23 496.435 637.449 485.196 642.84 480.621C646.414 477.589 649.105 473.531 652.196 469.945C648.177 481.947 644.75 494.465 635.358 505.25ZM636.803 480.512C639.231 478.07 641.659 475.628 644.086 473.186C644.386 473.531 644.686 473.858 644.977 474.194C642.695 476.699 640.422 479.205 638.14 481.692C637.704 481.293 637.249 480.903 636.803 480.512ZM656.56 411.728C659.679 429.058 657.306 444.573 651.123 459.942C648.741 442.457 650.878 421.977 656.56 411.728ZM661.497 428.686C663.579 436.856 661.261 445.68 657.615 455.348C659.061 445.426 660.37 436.484 661.497 428.686ZM665.298 360.583C663.697 368.109 661.443 375.498 659.779 383.015C656.624 397.258 650.969 410.367 642.859 422.504C632.712 437.691 630.312 454.776 630.675 472.605C630.848 481.574 629.803 490.58 630.012 499.549C630.403 516.334 610.537 534.78 594.99 535.407C581.888 535.933 574.542 543.867 568.314 553.835C566.314 557.04 564.286 560.226 562.268 563.421C562.031 563.785 561.513 564.148 561.549 564.484C562.422 574.388 554.739 580.869 551.439 589.094C550.348 591.826 546.657 593.833 543.747 595.476C534.383 600.777 524.827 605.743 515.38 610.89C505.161 616.446 494.969 622.074 484.74 627.621C483.886 628.084 482.749 628.374 481.786 628.265C477.021 627.766 473.157 628.964 470.975 634.33C467.92 630.054 464.802 627.276 459.81 628.22C458.91 628.393 457.756 627.948 456.892 627.485C446.909 622.083 436.999 616.555 426.988 611.226C416.596 605.688 406.077 600.405 395.721 594.822C393.512 593.642 391.102 592.008 389.911 589.92C386.356 583.738 382.456 577.501 380.492 570.765C379.156 566.199 378.165 561.524 375.555 557.648C371.755 552.019 367.591 546.582 363.008 541.58C359.38 537.622 354.371 536.015 348.834 535.643C340.36 535.08 332.477 532.738 326.595 525.993C322.695 521.517 317.958 517.559 315.003 512.539C309.502 503.225 309.093 492.477 309.82 482.046C311.375 459.914 309.311 438.744 296.573 419.708C290.036 409.94 285.19 399.41 282.563 387.908C280.299 378.004 277.926 368.118 275.635 358.214C274.862 354.873 275.571 352.05 278.153 349.481C282.426 345.205 286.372 340.63 290.427 336.218C299.674 345.005 309.62 343.934 319.694 341.183C325.004 339.731 330.441 338.315 335.341 335.918C338.569 334.339 340.906 330.998 343.724 328.529C345.097 327.33 346.497 325.905 348.143 325.342C351.625 324.162 352.698 321.62 353.198 318.425C353.389 317.208 353.434 315.465 354.216 314.921C358.453 311.961 362.89 309.301 367.263 306.551C370.136 303.337 373.064 300.169 375.846 296.883C376.737 295.83 377.755 294.45 377.792 293.179C378.055 285.345 378.51 277.519 375.01 270.03C373.328 266.444 372.609 262.396 371.5 258.537C371.173 257.43 371.118 256.232 370.791 255.124C369.2 249.65 368.591 244.421 362.581 240.472C356.78 236.669 353.062 229.642 348.561 223.923C346.87 221.762 345.743 219.157 344.052 216.969C342.797 215.353 341.242 213.819 339.524 212.757C336.678 211.014 333.623 209.58 330.568 208.218C327.122 206.684 327.04 204.142 329.432 202.181C334.087 198.35 339.178 195.019 344.161 191.578C345.206 190.861 346.643 190.725 347.716 190.035C360.563 181.992 373.582 174.711 387.957 169.201C397.949 165.37 407.868 161.076 418.115 157.781C456.965 145.299 495.451 147.613 533.601 161.031C539.101 162.964 544.711 164.653 550.057 166.95C565.059 173.395 579.87 180.194 593.444 189.436C598.69 193.012 604.618 195.627 609.673 199.431C614.901 203.37 614.655 205.867 608.673 208.554C600.99 212.013 595.053 216.579 591.198 224.368C588.798 229.225 584.579 233.201 581.124 237.522C580.215 238.657 579.288 240.173 578.06 240.581C570.65 243.105 570.923 249.895 569.277 255.641C567.614 261.46 565.377 267.171 564.295 273.098C563.086 279.744 562.031 286.643 562.64 293.27C562.949 296.674 566.932 299.797 569.396 302.947C570.423 304.281 571.805 305.343 573.023 306.524L573.042 306.533C577.306 309.202 581.688 311.725 585.752 314.667C586.707 315.356 586.825 317.444 586.989 318.924C587.443 322.891 589.462 324.625 592.607 323.363C594.744 326.023 596.49 329.255 599.145 331.306C611.264 340.684 625.12 344.324 640.295 342.209C642.686 341.873 645.159 340.158 646.996 338.442C648.678 336.862 649.896 336.581 651.36 338.124C655.942 342.999 660.761 347.729 664.798 353.021C666.098 354.737 665.816 358.159 665.298 360.583ZM666.834 311.026C662.752 306.605 659.415 301.503 655.415 296.238C658.151 294.468 660.379 292.907 662.734 291.59C663.47 291.182 664.825 291.073 665.489 291.481C672.335 295.766 677.435 301.776 682.136 308.376C675.244 313.968 670.48 314.966 666.834 311.026ZM686.073 302.938C685.291 302.457 682.918 301.676 681.636 300.051C678.59 296.175 675.899 291.99 673.462 287.705C672.917 286.761 673.526 284.183 674.426 283.584C677.672 281.405 681.199 279.598 684.791 278.019C685.645 277.637 687.755 278.282 688.218 279.081C691.128 284.101 693.919 289.23 696.392 294.486C697.956 297.791 692.555 302.82 686.073 302.938ZM711.958 288.812C703.693 295.113 701.038 294.395 696.983 284.827C696.583 283.901 696.128 282.984 695.783 282.031C692.055 271.955 692.155 273.48 701.293 268.451C702.211 267.942 704.502 268.205 704.984 268.904C708.43 273.915 711.567 279.126 714.794 284.283C715.012 284.646 715.103 285.081 715.403 285.935C714.331 286.852 713.176 287.877 711.958 288.812ZM720.868 279.952C719.822 279.135 717.404 277.919 716.031 275.967C714.221 273.398 713.285 270.248 711.921 267.379C710.485 264.384 711.148 262.405 714.158 260.653C719.422 257.593 719.395 257.375 722.477 262.45C724.423 265.655 726.332 268.914 727.887 272.318C729.714 276.312 726.714 280.27 720.868 279.952ZM738.206 271.174C734.587 272.363 731.633 271.537 730.078 267.624C728.687 264.12 727.005 260.716 725.85 257.139C725.505 256.059 726.514 254.543 726.968 253.245C727.041 253.027 727.432 252.927 727.678 252.773C735.306 247.98 735.242 248.007 738.761 256.077C740.488 260.035 742.488 263.857 744.552 268.16C742.334 269.231 740.361 270.466 738.206 271.174ZM761.391 256.849C757.999 258.946 754.426 260.752 750.698 262.777C748.716 261.442 746.516 260.789 745.907 259.418C744.198 255.623 743.07 251.556 741.906 247.535C741.697 246.781 742.161 245.429 742.779 244.902C745.07 242.941 747.425 240.981 750.035 239.528C750.917 239.029 753.308 239.583 753.853 240.4C756.717 244.748 759.299 249.305 761.772 253.889C762.181 254.625 761.954 256.504 761.391 256.849ZM766.782 249.65C763.109 246.627 762.054 240.445 759.827 235.67C763.718 232.529 767.618 229.397 771.983 225.866C776.001 232.992 779.393 239.011 783.138 245.665C777.338 248.098 772.31 254.198 766.782 249.65ZM801.386 234.826C797.722 236.768 793.831 238.293 790.539 239.737C788.439 239.174 786.421 239.201 786.075 238.457C783.729 233.428 781.675 228.244 779.729 223.033C779.574 222.616 780.829 221.454 781.62 220.936C783.429 219.72 785.339 218.676 787.212 217.578C792.831 214.273 792.976 214.264 796.149 219.756C798.313 223.524 800.386 227.355 802.177 231.303C802.604 232.22 802.113 234.453 801.386 234.826ZM809.187 227.808C806.396 227.881 803.95 226.528 802.932 223.042C802.486 221.508 801.659 220.038 801.477 218.485C801.113 215.599 799.84 211.259 801.195 210.052C804.159 207.41 808.496 206.23 812.396 204.787C812.969 204.578 814.588 206.039 815.078 207.047C816.424 209.78 817.424 212.675 818.552 215.508C821.261 222.298 817.37 227.799 809.187 227.808ZM835.863 214.073C829.371 220.02 824.634 218.676 821.725 210.27C821.306 209.044 820.979 207.773 820.679 206.511C819.715 202.454 820.288 199.186 824.716 197.315C827.198 196.262 829.407 194.547 832.426 192.713C834.717 198.723 836.972 203.888 838.518 209.253C838.881 210.533 837.19 212.857 835.863 214.073ZM835.044 184.289C833.253 179.232 831.135 174.094 830.717 168.847C830.544 166.768 834.435 164.371 836.972 161.566C839.045 163.464 840.545 164.344 841.291 165.651C842.354 167.512 842.736 169.746 843.627 171.734C846.937 179.114 846.1 181.783 838.69 185.46C837.827 185.886 835.317 185.06 835.044 184.289ZM843.973 205.994C842.891 205.776 841.709 204.678 841.136 203.67C836.336 195.327 838.909 187.584 848.61 182.945C849.955 187.756 851.41 192.395 852.51 197.125C852.947 199.022 845.837 206.384 843.973 205.994ZM873.194 187.42C869.921 190.516 865.866 193.067 861.693 194.855C859.111 195.954 856.274 194.483 855.356 191.142C852.956 182.4 852.046 176.681 861.829 169.964C863.83 168.593 865.703 167.022 868.594 164.816C870.058 170.481 871.412 175.301 872.512 180.176C873.058 182.609 874.294 186.376 873.194 187.42ZM870.203 155.557C868.339 151.971 866.948 148.104 865.675 144.255C865.375 143.329 865.966 141.713 866.684 140.914C868.221 139.216 870.112 137.827 872.503 135.749C873.813 137.764 875.076 139.334 875.931 141.105C876.949 143.183 877.495 145.498 878.468 147.595C880.713 152.488 879.65 155.702 874.431 157.599C873.358 157.99 870.821 156.719 870.203 155.557ZM885.996 172.07C883.886 174.775 881.577 177.326 879.34 179.94C872.74 173.095 873.231 162.102 879.204 157.009C880.941 155.53 882.35 155.221 883.232 157.508C884.677 161.267 885.968 165.098 887.041 168.974C887.278 169.855 886.641 171.234 885.996 172.07ZM900.734 156.047C898.997 157.799 897.488 159.769 895.833 161.594C893.451 164.235 890.224 163.836 889.923 160.413C889.069 150.618 883.168 142.966 879.622 134.36C878.186 130.846 880.477 128.931 881.495 126.389C875.476 129.058 875.395 129.058 871.358 123.257C869.467 120.534 866.266 117.683 866.33 114.951C866.393 112.536 870.121 110.176 872.294 107.843C879.559 100.045 880.868 100.272 886.578 109.395C888.823 112.981 889.605 116.521 888.178 120.516C889.123 119.88 890.06 119.245 891.424 118.337C892.897 120.47 894.679 122.295 895.561 124.483C898.27 131.219 900.616 138.1 903.152 144.917C904.734 149.157 903.943 152.806 900.734 156.047ZM906.625 145.762C906.053 142.267 905.243 139.28 905.143 136.257C904.989 131.346 904.098 126.916 900.57 123.157C894.415 116.612 899.434 111.238 902.961 104.838C905.389 109.205 907.462 113.063 909.689 116.839C910.89 118.882 912.681 120.625 913.608 122.767C914.208 124.138 914.135 126.153 913.599 127.587C912.499 130.547 910.88 133.307 909.48 136.148C909.771 136.284 910.071 136.42 910.353 136.557C911.962 133.552 913.581 130.556 915.381 127.188C916.727 131.491 911.971 141.776 906.625 145.762ZM911.108 146.996C910.689 146.769 910.262 146.551 909.853 146.324C912.208 141.985 914.572 137.646 916.927 133.316C917.427 133.579 917.927 133.851 918.427 134.124C915.981 138.408 913.544 142.702 911.108 146.996ZM922.991 125.763C922.436 125.754 921.882 125.754 921.327 125.745C915.417 119.317 911.671 111.665 907.944 103.776C904.952 97.4849 907.335 93.1002 909.853 88.3706C921.191 93.4815 923.618 104.048 925.719 114.306C926.437 117.801 923.991 121.932 922.991 125.763ZM924.928 95.9961C922.118 88.8245 914.081 86.1828 913.599 77.5678C924.664 79.7556 928.864 86.1737 924.928 95.9961ZM928.755 105.864C924.4 99.5819 928.764 93.6903 929.392 87.6353C933.056 93.8809 929.937 99.827 928.755 105.864ZM932.51 82.8693C926.755 78.412 920.518 74.2997 915.254 69.1888C913.081 67.0827 913.008 62.8161 911.817 58.9852C924.773 62.0717 933.583 72.8109 932.51 82.8693ZM931.301 66.0387C930.837 59.5026 930.383 52.9574 929.892 46.0763C933.674 48.7724 935.029 61.4453 931.301 66.0387Z" fill="#711011" fill-opacity="0.3"/>
<path d="M399.141 632.167C398.95 633.574 398.759 634.99 398.587 636.234C395.159 634.445 392.559 630.696 393.295 627.764C393.604 626.53 394.577 625.458 395.241 624.314C396.396 625.231 397.605 626.094 398.659 627.101C398.996 627.428 398.95 628.154 399.069 628.654C404.215 628.826 404.651 629.716 405.442 641.408C401.469 639.647 401.205 639.184 400.269 632.321C399.896 632.267 399.514 632.212 399.141 632.167Z" fill="#711011" fill-opacity="0.3"/>
<path d="M518.972 654.978C522.736 649.586 526.5 644.203 530.928 637.866C532.819 646.581 529.255 651.955 520.363 655.995C519.899 655.659 519.435 655.323 518.972 654.978Z" fill="#711011" fill-opacity="0.3"/>
<path d="M542.684 636.229C542.366 633.614 541.666 631.199 541.911 628.875C542.193 626.234 543.466 623.837 546.894 624.073C547.885 631.662 547.839 631.799 542.684 636.229Z" fill="#711011" fill-opacity="0.3"/>
<path d="M535.391 641.363C535.855 637.75 536.055 634.745 536.7 631.831C536.927 630.823 538.228 630.042 539.037 629.162C539.564 630.178 540.691 631.313 540.519 632.194C539.864 635.498 540.473 639.592 535.391 641.363Z" fill="#711011" fill-opacity="0.3"/>
<path d="M449.555 658.849C450.137 660.882 450.728 662.907 451.31 664.949C447.81 665.285 446.901 664.096 445.437 656.652C447.173 657.587 448.382 658.25 449.601 658.903C449.592 658.912 449.555 658.849 449.555 658.849Z" fill="#711011" fill-opacity="0.3"/>
<path d="M433.834 651.922C433.534 651.895 433.234 651.868 432.943 651.841C433.243 651.868 433.534 651.895 433.834 651.922Z" fill="#711011" fill-opacity="0.3"/>
<path d="M364.629 534.697C361.12 533.744 357.374 533.263 354.174 531.683C351.728 530.476 350.128 527.671 347.882 525.919C338.554 518.583 329.616 511.022 325.67 499.184C324.779 496.515 322.834 494.218 321.633 491.631C317.051 481.772 323.897 471.805 334.689 472.667C351.846 474.047 368.33 478.277 384.095 485.086C390.487 487.845 396.424 491.613 402.734 494.572C413.399 499.565 424.154 504.395 434.974 509.052C438.647 510.631 442.629 511.512 446.393 513.518C443.838 513.155 441.284 512.792 438.465 512.392C436.965 517.113 435.456 521.888 433.628 527.652C432.728 526.209 432.437 525.728 431.764 524.657C428.118 531.429 424.5 538.156 415.226 537.729C416.417 538.201 417.599 538.664 418.79 539.136C418.717 539.535 418.645 539.944 418.572 540.343C399.824 537.538 380.549 538.655 362.475 530.875C362.338 531.266 362.193 531.647 362.056 532.037C362.902 532.936 363.747 533.835 364.584 534.733L364.629 534.697Z" fill="#711011" fill-opacity="0.3"/>
<path d="M504.025 512.442C500.524 512.896 498.133 513.214 495.66 513.532C495.724 513.014 495.706 512.588 495.797 512.551C515.763 506.387 534.083 496.502 552.785 487.46C567.841 480.188 583.698 475.323 600.391 473.48C603.7 473.117 607.109 472.599 610.364 472.999C619.175 474.088 623.957 484.51 619.475 492.162C618.302 494.159 617.193 496.256 616.465 498.444C612.101 511.625 602.373 520.095 591.344 527.53C589.398 528.837 588.035 531.08 586.025 532.205C583.925 533.376 581.361 533.721 578.452 534.593C579.033 533.404 579.406 532.632 579.815 531.788C570.369 533.83 561.141 536.363 551.73 537.725C542.329 539.095 532.765 539.304 523.018 539.431C524.218 538.905 525.418 538.378 527.246 537.579C525.455 537.026 524.045 536.626 522.654 536.145C520.609 535.446 517.899 535.283 516.654 533.857C511.189 527.612 503.625 522.592 504.025 512.442ZM613.728 491.2C613.856 492.916 614.392 492.344 615.038 491.073C615.238 485.799 614.847 481.051 613.819 476.875C612.71 475.813 612.174 475.649 612.574 476.984C613.283 481.096 613.792 485.59 613.728 491.2Z" fill="#711011" fill-opacity="0.3"/>
<path d="M475.012 601.382C474.858 600.755 474.312 599.421 474.231 598.05C473.749 589.653 473.194 581.256 473.012 572.85C472.849 565.351 473.958 564.462 481.622 564.416C482.204 564.416 482.777 564.416 484.241 564.416C482.977 563.754 482.441 563.463 481.913 563.182C481.95 562.882 481.995 562.583 482.031 562.283C484.886 562.773 487.768 563.136 490.587 563.781C493.524 564.462 496.633 564.988 499.261 566.341C506.189 569.917 508.089 574.72 506.161 582.282C503.307 593.511 498.642 597.251 486.559 598.631C482.822 599.085 479.177 600.374 475.012 601.382Z" fill="#711011" fill-opacity="0.3"/>
<path d="M465.694 601.468C462.594 600.433 460.048 599.516 457.466 598.763C456.511 598.481 455.438 598.617 454.429 598.49C441.3 596.793 434.618 589.14 434.881 576.14C434.945 572.818 440.346 565.846 444.228 564.865C449.028 563.658 453.965 563.032 459.166 563.095C458.639 563.386 458.102 563.676 457.511 563.994C457.729 564.121 457.957 564.366 458.157 564.357C466.74 563.83 468.385 564.557 467.994 575.114C467.685 583.384 466.885 591.636 466.249 599.897C466.203 600.56 465.794 601.205 465.694 601.468Z" fill="#711011" fill-opacity="0.3"/>
<path d="M573.024 306.551C575.352 308.72 577.888 310.726 579.934 313.141C580.989 314.385 581.198 316.355 582.098 318.86C572.188 315.029 561.487 304.118 562.196 299.651C565.787 301.939 569.433 304.272 573.079 306.596C573.079 306.587 573.024 306.551 573.024 306.551Z" fill="#711011" fill-opacity="0.3"/>
<path d="M367.238 306.585C370.775 304.261 374.312 301.946 378.067 299.486C379.476 302.319 377.457 304.624 375.63 306.277C371.111 310.344 366.229 314.02 361.419 317.76C360.892 318.169 359.292 318.196 359.192 317.969C358.828 317.134 358.464 315.827 358.873 315.228C360.174 313.339 361.756 311.615 363.365 309.962C364.565 308.719 365.983 307.684 367.302 306.549C367.293 306.54 367.238 306.585 367.238 306.585Z" fill="#711011" fill-opacity="0.3"/>
<path d="M542.694 543.4C538.121 544.825 533.557 546.25 528.984 547.675C522.756 549.736 520.974 549.927 528.52 546.186C533.093 544.788 537.675 543.381 542.249 541.983C551.595 540.422 551.632 540.921 542.694 543.4Z" fill="#711011" fill-opacity="0.3"/>
<path d="M411.37 547.694C406.796 546.287 402.232 544.871 397.659 543.464C393.331 542.647 392.313 542.102 398.041 542.121C402.614 543.455 407.187 544.789 411.761 546.124C416.679 547.567 415.643 547.921 411.37 547.694Z" fill="#711011" fill-opacity="0.3"/>
<path d="M364.591 534.747C369.292 536.154 374.001 537.561 378.702 538.968C373.665 538.632 368.519 538.614 364.628 534.701L364.591 534.747Z" fill="#711011" fill-opacity="0.3"/>
<path d="M573.331 536.937C569.24 538 565.139 539.062 561.048 540.124C560.948 539.761 560.848 539.388 560.757 539.025C564.866 537.936 568.985 536.856 573.095 535.766C573.177 536.157 573.249 536.547 573.331 536.937Z" fill="#711011" fill-opacity="0.3"/>
<path d="M485.213 657.827C483.313 663.891 482.449 664.581 478.558 663.456C479.194 659.026 479.958 658.345 485.213 657.827Z" fill="#711011" fill-opacity="0.3"/>
<path d="M485.988 655.145C479.624 657.496 474.814 656.57 471.859 651.841C476.869 653.012 481.242 654.038 485.988 655.145Z" fill="#711011" fill-opacity="0.3"/>
<path d="M455.465 655.046C459.711 654.048 463.966 653.049 468.648 651.951C466.211 656.59 460.702 657.634 455.465 655.046Z" fill="#711011" fill-opacity="0.3"/>
<path d="M468.221 658.182C470.158 658.091 472.103 658.01 474.04 657.919C474.203 658.264 474.376 658.609 474.54 658.945C472.876 659.607 471.23 660.688 469.548 660.76C468.639 660.797 467.666 659.09 466.712 658.164C467.221 658.173 467.721 658.182 468.221 658.182Z" fill="#711011" fill-opacity="0.3"/>
<path d="M406.413 634.327L405.968 642.797L395.239 634.327L391.13 628.662L395.239 624.296L402.658 628.099L406.413 634.327Z" fill="#711011" fill-opacity="0.3"/>
<path d="M443.662 658.459L442.444 666.974C430.306 664.614 418.696 658.341 412.75 652.376L405.967 643.807V642.799L406.303 636.563L409.213 637.761L417.841 642.472C423.924 643.843 433.952 651.396 443.662 658.459Z" fill="#711011" fill-opacity="0.3"/>
<path d="M406.294 636.57L405.967 642.806V636.434L406.294 636.57Z" fill="#711011" fill-opacity="0.3"/>
<path d="M442.955 655.989L442.446 666.965L451.847 668.036L454.593 657.16L451.947 655.054L442.955 655.989Z" fill="#711011" fill-opacity="0.3"/>
<path d="M451.947 655.063L455.466 655.054L468.649 651.959L471.859 651.841L485.988 655.145L488.87 655.281L496.171 655.899C496.498 658.159 495.534 661.2 493.334 665.004L454.593 666.974L446.61 661.554L451.947 655.063Z" fill="#711011" fill-opacity="0.3"/>
<path d="M505.455 649.813L489.026 660.861L493.226 666.97L499.172 666.725L512.674 662.232L518.793 657.393L518.975 654.978L530.931 637.866L505.455 649.813Z" fill="#711011" fill-opacity="0.3"/>
<path d="M518.972 654.972L519.863 657.532L528.418 652.412L532.673 646.584L542.666 637.125L551.021 629.599L548.712 622.074L538.492 626.395L530.928 637.86L518.972 654.972Z" fill="#711011" fill-opacity="0.3"/>
</svg>
